<?xml version="1.0" encoding="UTF-8"?>
<svg width="104px" height="72px" viewBox="0 0 104 72" version="1.1" xmlns="http://www.w3.org/2000/svg" xmlns:xlink="http://www.w3.org/1999/xlink">
    <!-- Generator: Sketch 61 (89581) - https://sketch.com -->
    <title>侧边栏-tel</title>
    <desc>Created with Sketch.</desc>
    <g id="设计稿" stroke="none" stroke-width="1" fill="none" fill-rule="evenodd">
        <g id="侧边功能栏_留言/至顶部" transform="translate(-991.000000, -582.000000)">
            <g id="编组-3备份" transform="translate(963.000000, 452.000000)">
                <g id="留言板备份" transform="translate(0.000000, 88.000000)">
                    <g id="侧边栏-tel" transform="translate(28.000000, 42.000000)">
                        <path d="M6.2,17.196 C7.376,17.196 8.286,16.692 8.93,15.712 C9.518,14.788 9.812,13.542 9.812,12.002 C9.812,10.448 9.518,9.216 8.93,8.292 C8.286,7.298 7.376,6.808 6.2,6.808 C5.024,6.808 4.114,7.298 3.47,8.292 C2.882,9.202 2.588,10.434 2.588,12.002 C2.588,13.556 2.882,14.788 3.47,15.712 C4.114,16.692 5.024,17.196 6.2,17.196 Z M6.2,15.908 C5.374,15.908 4.8,15.446 4.464,14.55 C4.212,13.92 4.1,13.066 4.1,12.002 C4.1,10.924 4.212,10.07 4.464,9.454 C4.8,8.544 5.374,8.096 6.2,8.096 C7.012,8.096 7.6,8.544 7.936,9.454 C8.174,10.07 8.3,10.924 8.3,12.002 C8.3,13.066 8.174,13.92 7.936,14.55 C7.6,15.446 7.012,15.908 6.2,15.908 Z M18.044,17 L18.044,15.656 L13.046,15.656 C13.256,15.11 13.9,14.48 14.978,13.766 C15.972,13.094 16.658,12.562 17.05,12.156 C17.694,11.442 18.03,10.658 18.03,9.79 C18.03,8.908 17.722,8.194 17.12,7.634 C16.504,7.074 15.706,6.808 14.754,6.808 C13.69,6.808 12.822,7.158 12.178,7.886 C11.548,8.558 11.226,9.454 11.212,10.574 L12.738,10.574 C12.766,9.762 12.934,9.16 13.27,8.74 C13.592,8.306 14.068,8.096 14.698,8.096 C15.286,8.096 15.748,8.236 16.056,8.516 C16.364,8.796 16.518,9.216 16.518,9.776 C16.518,10.364 16.28,10.91 15.832,11.414 C15.552,11.708 15.076,12.086 14.404,12.562 C13.27,13.346 12.514,13.948 12.15,14.382 C11.478,15.138 11.156,16.006 11.156,17 L18.044,17 Z M22.888,17.196 C23.882,17.196 24.736,16.902 25.45,16.314 C26.206,15.656 26.598,14.816 26.598,13.78 C26.598,12.702 26.29,11.862 25.702,11.246 C25.114,10.63 24.344,10.322 23.406,10.322 C22.958,10.322 22.538,10.392 22.174,10.546 C21.768,10.686 21.418,10.91 21.11,11.232 L21.068,11.232 L21.362,8.348 L26.15,8.348 L26.15,7.004 L20.13,7.004 L19.584,12.604 L21.012,12.604 C21.208,12.24 21.474,11.974 21.838,11.806 C22.174,11.638 22.552,11.568 23,11.568 C23.672,11.568 24.176,11.764 24.54,12.156 C24.904,12.548 25.086,13.094 25.086,13.794 C25.086,14.438 24.876,14.942 24.456,15.334 C24.036,15.712 23.518,15.908 22.902,15.908 C22.342,15.908 21.894,15.782 21.558,15.53 C21.18,15.25 20.956,14.816 20.9,14.256 L19.402,14.256 C19.472,15.18 19.864,15.922 20.578,16.454 C21.222,16.944 21.992,17.196 22.888,17.196 Z M34.97,13.99 L34.97,12.758 L27.9,12.758 L27.9,13.99 L34.97,13.99 Z M39.996,17.196 C40.976,17.196 41.816,16.86 42.488,16.216 C43.146,15.572 43.482,14.746 43.482,13.752 C43.482,12.772 43.188,11.96 42.614,11.33 C42.026,10.714 41.242,10.406 40.262,10.406 C39.73,10.406 39.268,10.504 38.876,10.714 C38.442,10.924 38.092,11.246 37.812,11.694 L37.756,11.694 C37.742,11.61 37.742,11.554 37.742,11.512 C37.742,10.532 37.938,9.734 38.344,9.09 C38.75,8.404 39.296,8.068 39.996,8.068 C41.004,8.068 41.606,8.544 41.816,9.524 L43.3,9.524 C43.048,7.704 41.942,6.808 40.01,6.808 C38.862,6.808 37.938,7.312 37.266,8.334 C36.594,9.342 36.272,10.658 36.272,12.282 C36.272,13.808 36.58,14.998 37.196,15.852 C37.84,16.748 38.764,17.196 39.996,17.196 Z M39.94,15.936 C39.338,15.936 38.848,15.74 38.484,15.348 C38.106,14.956 37.924,14.438 37.924,13.794 C37.924,13.136 38.106,12.618 38.47,12.226 C38.834,11.834 39.324,11.638 39.954,11.638 C40.57,11.638 41.074,11.834 41.438,12.226 C41.802,12.59 41.984,13.108 41.984,13.752 C41.984,14.382 41.788,14.9 41.41,15.32 C41.046,15.726 40.556,15.936 39.94,15.936 Z M48.144,17.196 C49.292,17.196 50.202,16.678 50.888,15.67 C51.546,14.662 51.882,13.346 51.882,11.722 C51.882,10.182 51.56,8.992 50.944,8.138 C50.3,7.242 49.376,6.808 48.158,6.808 C47.164,6.808 46.338,7.13 45.666,7.788 C44.994,8.432 44.672,9.244 44.672,10.252 C44.672,11.232 44.952,12.03 45.526,12.646 C46.114,13.276 46.912,13.598 47.892,13.598 C48.41,13.598 48.872,13.486 49.278,13.29 C49.698,13.066 50.062,12.744 50.342,12.31 L50.398,12.31 C50.398,12.38 50.412,12.436 50.412,12.492 C50.412,13.458 50.202,14.27 49.81,14.914 C49.39,15.586 48.844,15.936 48.158,15.936 C47.15,15.936 46.534,15.446 46.338,14.48 L44.854,14.48 C45.106,16.286 46.198,17.196 48.144,17.196 Z M48.2,12.366 C47.57,12.366 47.08,12.17 46.73,11.778 C46.352,11.4 46.17,10.896 46.17,10.252 C46.17,9.608 46.352,9.09 46.73,8.684 C47.094,8.264 47.598,8.068 48.214,8.068 C48.802,8.068 49.292,8.264 49.67,8.656 C50.034,9.034 50.23,9.552 50.23,10.21 C50.23,10.854 50.048,11.386 49.684,11.778 C49.32,12.17 48.816,12.366 48.2,12.366 Z M56.544,17.196 C57.692,17.196 58.602,16.678 59.288,15.67 C59.946,14.662 60.282,13.346 60.282,11.722 C60.282,10.182 59.96,8.992 59.344,8.138 C58.7,7.242 57.776,6.808 56.558,6.808 C55.564,6.808 54.738,7.13 54.066,7.788 C53.394,8.432 53.072,9.244 53.072,10.252 C53.072,11.232 53.352,12.03 53.926,12.646 C54.514,13.276 55.312,13.598 56.292,13.598 C56.81,13.598 57.272,13.486 57.678,13.29 C58.098,13.066 58.462,12.744 58.742,12.31 L58.798,12.31 C58.798,12.38 58.812,12.436 58.812,12.492 C58.812,13.458 58.602,14.27 58.21,14.914 C57.79,15.586 57.244,15.936 56.558,15.936 C55.55,15.936 54.934,15.446 54.738,14.48 L53.254,14.48 C53.506,16.286 54.598,17.196 56.544,17.196 Z M56.6,12.366 C55.97,12.366 55.48,12.17 55.13,11.778 C54.752,11.4 54.57,10.896 54.57,10.252 C54.57,9.608 54.752,9.09 55.13,8.684 C55.494,8.264 55.998,8.068 56.614,8.068 C57.202,8.068 57.692,8.264 58.07,8.656 C58.434,9.034 58.63,9.552 58.63,10.21 C58.63,10.854 58.448,11.386 58.084,11.778 C57.72,12.17 57.216,12.366 56.6,12.366 Z M64.482,17 L68.024,8.236 L68.024,7.004 L61.304,7.004 L61.304,8.39 L66.484,8.39 L62.858,17 L64.482,17 Z M72.826,17.196 C73.89,17.196 74.772,16.888 75.444,16.3 C76.074,15.712 76.396,14.956 76.396,14.032 C76.396,13.444 76.228,12.954 75.892,12.576 C75.584,12.212 75.136,11.932 74.548,11.75 C75.64,11.386 76.2,10.644 76.2,9.552 C76.2,8.698 75.892,8.026 75.304,7.536 C74.688,7.046 73.89,6.808 72.882,6.808 C71.902,6.808 71.104,7.074 70.488,7.634 C69.83,8.194 69.466,8.964 69.382,9.958 L70.88,9.958 C70.936,9.342 71.146,8.88 71.482,8.572 C71.818,8.264 72.294,8.11 72.896,8.11 C73.484,8.11 73.946,8.236 74.254,8.516 C74.534,8.782 74.688,9.16 74.688,9.664 C74.688,10.168 74.52,10.56 74.212,10.826 C73.904,11.092 73.442,11.232 72.826,11.232 L72.112,11.232 L72.112,12.38 L72.84,12.38 C73.498,12.38 74.002,12.52 74.338,12.8 C74.702,13.08 74.884,13.514 74.884,14.102 C74.884,14.606 74.702,15.012 74.366,15.348 C73.974,15.712 73.456,15.908 72.812,15.908 C72.224,15.908 71.748,15.74 71.384,15.404 C70.964,15.04 70.754,14.522 70.726,13.85 L69.186,13.85 C69.27,14.97 69.662,15.824 70.362,16.412 C70.978,16.93 71.804,17.196 72.826,17.196 Z M81.184,17.196 C82.36,17.196 83.284,16.916 83.942,16.37 C84.586,15.81 84.908,15.096 84.908,14.214 C84.908,13.584 84.712,13.038 84.32,12.562 C83.984,12.114 83.564,11.834 83.088,11.722 L83.088,11.68 C83.592,11.484 83.97,11.204 84.222,10.826 C84.446,10.476 84.558,10.042 84.558,9.524 C84.558,8.782 84.278,8.152 83.718,7.648 C83.088,7.088 82.248,6.808 81.184,6.808 C80.12,6.808 79.266,7.088 78.65,7.648 C78.09,8.152 77.81,8.782 77.81,9.524 C77.81,10.042 77.922,10.476 78.146,10.826 C78.398,11.204 78.776,11.484 79.28,11.68 L79.28,11.722 C78.79,11.834 78.384,12.114 78.048,12.562 C77.656,13.038 77.46,13.584 77.46,14.214 C77.46,15.096 77.782,15.81 78.426,16.37 C79.07,16.916 79.994,17.196 81.184,17.196 Z M81.184,11.218 C80.47,11.218 79.952,11.05 79.63,10.714 C79.364,10.434 79.238,10.056 79.238,9.58 C79.238,9.16 79.392,8.796 79.714,8.516 C80.078,8.18 80.568,8.026 81.184,8.026 C81.8,8.026 82.29,8.18 82.654,8.516 C82.962,8.796 83.13,9.16 83.13,9.58 C83.13,10.056 82.99,10.434 82.738,10.714 C82.402,11.05 81.884,11.218 81.184,11.218 Z M81.184,15.964 C80.47,15.964 79.924,15.796 79.546,15.474 C79.154,15.152 78.972,14.732 78.972,14.214 C78.972,13.654 79.154,13.22 79.532,12.884 C79.896,12.52 80.456,12.352 81.184,12.352 C81.912,12.352 82.458,12.534 82.85,12.898 C83.214,13.22 83.396,13.654 83.396,14.214 C83.396,14.732 83.214,15.152 82.85,15.474 C82.444,15.796 81.884,15.964 81.184,15.964 Z M89.584,17.196 C90.76,17.196 91.684,16.916 92.342,16.37 C92.986,15.81 93.308,15.096 93.308,14.214 C93.308,13.584 93.112,13.038 92.72,12.562 C92.384,12.114 91.964,11.834 91.488,11.722 L91.488,11.68 C91.992,11.484 92.37,11.204 92.622,10.826 C92.846,10.476 92.958,10.042 92.958,9.524 C92.958,8.782 92.678,8.152 92.118,7.648 C91.488,7.088 90.648,6.808 89.584,6.808 C88.52,6.808 87.666,7.088 87.05,7.648 C86.49,8.152 86.21,8.782 86.21,9.524 C86.21,10.042 86.322,10.476 86.546,10.826 C86.798,11.204 87.176,11.484 87.68,11.68 L87.68,11.722 C87.19,11.834 86.784,12.114 86.448,12.562 C86.056,13.038 85.86,13.584 85.86,14.214 C85.86,15.096 86.182,15.81 86.826,16.37 C87.47,16.916 88.394,17.196 89.584,17.196 Z M89.584,11.218 C88.87,11.218 88.352,11.05 88.03,10.714 C87.764,10.434 87.638,10.056 87.638,9.58 C87.638,9.16 87.792,8.796 88.114,8.516 C88.478,8.18 88.968,8.026 89.584,8.026 C90.2,8.026 90.69,8.18 91.054,8.516 C91.362,8.796 91.53,9.16 91.53,9.58 C91.53,10.056 91.39,10.434 91.138,10.714 C90.802,11.05 90.284,11.218 89.584,11.218 Z M89.584,15.964 C88.87,15.964 88.324,15.796 87.946,15.474 C87.554,15.152 87.372,14.732 87.372,14.214 C87.372,13.654 87.554,13.22 87.932,12.884 C88.296,12.52 88.856,12.352 89.584,12.352 C90.312,12.352 90.858,12.534 91.25,12.898 C91.614,13.22 91.796,13.654 91.796,14.214 C91.796,14.732 91.614,15.152 91.25,15.474 C90.844,15.796 90.284,15.964 89.584,15.964 Z M97.872,17.196 C98.866,17.196 99.72,16.902 100.434,16.314 C101.19,15.656 101.582,14.816 101.582,13.78 C101.582,12.702 101.274,11.862 100.686,11.246 C100.098,10.63 99.328,10.322 98.39,10.322 C97.942,10.322 97.522,10.392 97.158,10.546 C96.752,10.686 96.402,10.91 96.094,11.232 L96.052,11.232 L96.346,8.348 L101.134,8.348 L101.134,7.004 L95.114,7.004 L94.568,12.604 L95.996,12.604 C96.192,12.24 96.458,11.974 96.822,11.806 C97.158,11.638 97.536,11.568 97.984,11.568 C98.656,11.568 99.16,11.764 99.524,12.156 C99.888,12.548 100.07,13.094 100.07,13.794 C100.07,14.438 99.86,14.942 99.44,15.334 C99.02,15.712 98.502,15.908 97.886,15.908 C97.326,15.908 96.878,15.782 96.542,15.53 C96.164,15.25 95.94,14.816 95.884,14.256 L94.386,14.256 C94.456,15.18 94.848,15.922 95.562,16.454 C96.206,16.944 96.976,17.196 97.872,17.196 Z M6.2,41.196 C7.376,41.196 8.286,40.692 8.93,39.712 C9.518,38.788 9.812,37.542 9.812,36.002 C9.812,34.448 9.518,33.216 8.93,32.292 C8.286,31.298 7.376,30.808 6.2,30.808 C5.024,30.808 4.114,31.298 3.47,32.292 C2.882,33.202 2.588,34.434 2.588,36.002 C2.588,37.556 2.882,38.788 3.47,39.712 C4.114,40.692 5.024,41.196 6.2,41.196 Z M6.2,39.908 C5.374,39.908 4.8,39.446 4.464,38.55 C4.212,37.92 4.1,37.066 4.1,36.002 C4.1,34.924 4.212,34.07 4.464,33.454 C4.8,32.544 5.374,32.096 6.2,32.096 C7.012,32.096 7.6,32.544 7.936,33.454 C8.174,34.07 8.3,34.924 8.3,36.002 C8.3,37.066 8.174,37.92 7.936,38.55 C7.6,39.446 7.012,39.908 6.2,39.908 Z M18.044,41 L18.044,39.656 L13.046,39.656 C13.256,39.11 13.9,38.48 14.978,37.766 C15.972,37.094 16.658,36.562 17.05,36.156 C17.694,35.442 18.03,34.658 18.03,33.79 C18.03,32.908 17.722,32.194 17.12,31.634 C16.504,31.074 15.706,30.808 14.754,30.808 C13.69,30.808 12.822,31.158 12.178,31.886 C11.548,32.558 11.226,33.454 11.212,34.574 L12.738,34.574 C12.766,33.762 12.934,33.16 13.27,32.74 C13.592,32.306 14.068,32.096 14.698,32.096 C15.286,32.096 15.748,32.236 16.056,32.516 C16.364,32.796 16.518,33.216 16.518,33.776 C16.518,34.364 16.28,34.91 15.832,35.414 C15.552,35.708 15.076,36.086 14.404,36.562 C13.27,37.346 12.514,37.948 12.15,38.382 C11.478,39.138 11.156,40.006 11.156,41 L18.044,41 Z M22.888,41.196 C23.882,41.196 24.736,40.902 25.45,40.314 C26.206,39.656 26.598,38.816 26.598,37.78 C26.598,36.702 26.29,35.862 25.702,35.246 C25.114,34.63 24.344,34.322 23.406,34.322 C22.958,34.322 22.538,34.392 22.174,34.546 C21.768,34.686 21.418,34.91 21.11,35.232 L21.068,35.232 L21.362,32.348 L26.15,32.348 L26.15,31.004 L20.13,31.004 L19.584,36.604 L21.012,36.604 C21.208,36.24 21.474,35.974 21.838,35.806 C22.174,35.638 22.552,35.568 23,35.568 C23.672,35.568 24.176,35.764 24.54,36.156 C24.904,36.548 25.086,37.094 25.086,37.794 C25.086,38.438 24.876,38.942 24.456,39.334 C24.036,39.712 23.518,39.908 22.902,39.908 C22.342,39.908 21.894,39.782 21.558,39.53 C21.18,39.25 20.956,38.816 20.9,38.256 L19.402,38.256 C19.472,39.18 19.864,39.922 20.578,40.454 C21.222,40.944 21.992,41.196 22.888,41.196 Z M34.97,37.99 L34.97,36.758 L27.9,36.758 L27.9,37.99 L34.97,37.99 Z M39.996,41.196 C40.976,41.196 41.816,40.86 42.488,40.216 C43.146,39.572 43.482,38.746 43.482,37.752 C43.482,36.772 43.188,35.96 42.614,35.33 C42.026,34.714 41.242,34.406 40.262,34.406 C39.73,34.406 39.268,34.504 38.876,34.714 C38.442,34.924 38.092,35.246 37.812,35.694 L37.756,35.694 C37.742,35.61 37.742,35.554 37.742,35.512 C37.742,34.532 37.938,33.734 38.344,33.09 C38.75,32.404 39.296,32.068 39.996,32.068 C41.004,32.068 41.606,32.544 41.816,33.524 L43.3,33.524 C43.048,31.704 41.942,30.808 40.01,30.808 C38.862,30.808 37.938,31.312 37.266,32.334 C36.594,33.342 36.272,34.658 36.272,36.282 C36.272,37.808 36.58,38.998 37.196,39.852 C37.84,40.748 38.764,41.196 39.996,41.196 Z M39.94,39.936 C39.338,39.936 38.848,39.74 38.484,39.348 C38.106,38.956 37.924,38.438 37.924,37.794 C37.924,37.136 38.106,36.618 38.47,36.226 C38.834,35.834 39.324,35.638 39.954,35.638 C40.57,35.638 41.074,35.834 41.438,36.226 C41.802,36.59 41.984,37.108 41.984,37.752 C41.984,38.382 41.788,38.9 41.41,39.32 C41.046,39.726 40.556,39.936 39.94,39.936 Z M48.144,41.196 C49.292,41.196 50.202,40.678 50.888,39.67 C51.546,38.662 51.882,37.346 51.882,35.722 C51.882,34.182 51.56,32.992 50.944,32.138 C50.3,31.242 49.376,30.808 48.158,30.808 C47.164,30.808 46.338,31.13 45.666,31.788 C44.994,32.432 44.672,33.244 44.672,34.252 C44.672,35.232 44.952,36.03 45.526,36.646 C46.114,37.276 46.912,37.598 47.892,37.598 C48.41,37.598 48.872,37.486 49.278,37.29 C49.698,37.066 50.062,36.744 50.342,36.31 L50.398,36.31 C50.398,36.38 50.412,36.436 50.412,36.492 C50.412,37.458 50.202,38.27 49.81,38.914 C49.39,39.586 48.844,39.936 48.158,39.936 C47.15,39.936 46.534,39.446 46.338,38.48 L44.854,38.48 C45.106,40.286 46.198,41.196 48.144,41.196 Z M48.2,36.366 C47.57,36.366 47.08,36.17 46.73,35.778 C46.352,35.4 46.17,34.896 46.17,34.252 C46.17,33.608 46.352,33.09 46.73,32.684 C47.094,32.264 47.598,32.068 48.214,32.068 C48.802,32.068 49.292,32.264 49.67,32.656 C50.034,33.034 50.23,33.552 50.23,34.21 C50.23,34.854 50.048,35.386 49.684,35.778 C49.32,36.17 48.816,36.366 48.2,36.366 Z M56.544,41.196 C57.692,41.196 58.602,40.678 59.288,39.67 C59.946,38.662 60.282,37.346 60.282,35.722 C60.282,34.182 59.96,32.992 59.344,32.138 C58.7,31.242 57.776,30.808 56.558,30.808 C55.564,30.808 54.738,31.13 54.066,31.788 C53.394,32.432 53.072,33.244 53.072,34.252 C53.072,35.232 53.352,36.03 53.926,36.646 C54.514,37.276 55.312,37.598 56.292,37.598 C56.81,37.598 57.272,37.486 57.678,37.29 C58.098,37.066 58.462,36.744 58.742,36.31 L58.798,36.31 C58.798,36.38 58.812,36.436 58.812,36.492 C58.812,37.458 58.602,38.27 58.21,38.914 C57.79,39.586 57.244,39.936 56.558,39.936 C55.55,39.936 54.934,39.446 54.738,38.48 L53.254,38.48 C53.506,40.286 54.598,41.196 56.544,41.196 Z M56.6,36.366 C55.97,36.366 55.48,36.17 55.13,35.778 C54.752,35.4 54.57,34.896 54.57,34.252 C54.57,33.608 54.752,33.09 55.13,32.684 C55.494,32.264 55.998,32.068 56.614,32.068 C57.202,32.068 57.692,32.264 58.07,32.656 C58.434,33.034 58.63,33.552 58.63,34.21 C58.63,34.854 58.448,35.386 58.084,35.778 C57.72,36.17 57.216,36.366 56.6,36.366 Z M64.482,41 L68.024,32.236 L68.024,31.004 L61.304,31.004 L61.304,32.39 L66.484,32.39 L62.858,41 L64.482,41 Z M72.826,41.196 C73.89,41.196 74.772,40.888 75.444,40.3 C76.074,39.712 76.396,38.956 76.396,38.032 C76.396,37.444 76.228,36.954 75.892,36.576 C75.584,36.212 75.136,35.932 74.548,35.75 C75.64,35.386 76.2,34.644 76.2,33.552 C76.2,32.698 75.892,32.026 75.304,31.536 C74.688,31.046 73.89,30.808 72.882,30.808 C71.902,30.808 71.104,31.074 70.488,31.634 C69.83,32.194 69.466,32.964 69.382,33.958 L70.88,33.958 C70.936,33.342 71.146,32.88 71.482,32.572 C71.818,32.264 72.294,32.11 72.896,32.11 C73.484,32.11 73.946,32.236 74.254,32.516 C74.534,32.782 74.688,33.16 74.688,33.664 C74.688,34.168 74.52,34.56 74.212,34.826 C73.904,35.092 73.442,35.232 72.826,35.232 L72.112,35.232 L72.112,36.38 L72.84,36.38 C73.498,36.38 74.002,36.52 74.338,36.8 C74.702,37.08 74.884,37.514 74.884,38.102 C74.884,38.606 74.702,39.012 74.366,39.348 C73.974,39.712 73.456,39.908 72.812,39.908 C72.224,39.908 71.748,39.74 71.384,39.404 C70.964,39.04 70.754,38.522 70.726,37.85 L69.186,37.85 C69.27,38.97 69.662,39.824 70.362,40.412 C70.978,40.93 71.804,41.196 72.826,41.196 Z M81.184,41.196 C82.36,41.196 83.284,40.916 83.942,40.37 C84.586,39.81 84.908,39.096 84.908,38.214 C84.908,37.584 84.712,37.038 84.32,36.562 C83.984,36.114 83.564,35.834 83.088,35.722 L83.088,35.68 C83.592,35.484 83.97,35.204 84.222,34.826 C84.446,34.476 84.558,34.042 84.558,33.524 C84.558,32.782 84.278,32.152 83.718,31.648 C83.088,31.088 82.248,30.808 81.184,30.808 C80.12,30.808 79.266,31.088 78.65,31.648 C78.09,32.152 77.81,32.782 77.81,33.524 C77.81,34.042 77.922,34.476 78.146,34.826 C78.398,35.204 78.776,35.484 79.28,35.68 L79.28,35.722 C78.79,35.834 78.384,36.114 78.048,36.562 C77.656,37.038 77.46,37.584 77.46,38.214 C77.46,39.096 77.782,39.81 78.426,40.37 C79.07,40.916 79.994,41.196 81.184,41.196 Z M81.184,35.218 C80.47,35.218 79.952,35.05 79.63,34.714 C79.364,34.434 79.238,34.056 79.238,33.58 C79.238,33.16 79.392,32.796 79.714,32.516 C80.078,32.18 80.568,32.026 81.184,32.026 C81.8,32.026 82.29,32.18 82.654,32.516 C82.962,32.796 83.13,33.16 83.13,33.58 C83.13,34.056 82.99,34.434 82.738,34.714 C82.402,35.05 81.884,35.218 81.184,35.218 Z M81.184,39.964 C80.47,39.964 79.924,39.796 79.546,39.474 C79.154,39.152 78.972,38.732 78.972,38.214 C78.972,37.654 79.154,37.22 79.532,36.884 C79.896,36.52 80.456,36.352 81.184,36.352 C81.912,36.352 82.458,36.534 82.85,36.898 C83.214,37.22 83.396,37.654 83.396,38.214 C83.396,38.732 83.214,39.152 82.85,39.474 C82.444,39.796 81.884,39.964 81.184,39.964 Z M89.584,41.196 C90.76,41.196 91.684,40.916 92.342,40.37 C92.986,39.81 93.308,39.096 93.308,38.214 C93.308,37.584 93.112,37.038 92.72,36.562 C92.384,36.114 91.964,35.834 91.488,35.722 L91.488,35.68 C91.992,35.484 92.37,35.204 92.622,34.826 C92.846,34.476 92.958,34.042 92.958,33.524 C92.958,32.782 92.678,32.152 92.118,31.648 C91.488,31.088 90.648,30.808 89.584,30.808 C88.52,30.808 87.666,31.088 87.05,31.648 C86.49,32.152 86.21,32.782 86.21,33.524 C86.21,34.042 86.322,34.476 86.546,34.826 C86.798,35.204 87.176,35.484 87.68,35.68 L87.68,35.722 C87.19,35.834 86.784,36.114 86.448,36.562 C86.056,37.038 85.86,37.584 85.86,38.214 C85.86,39.096 86.182,39.81 86.826,40.37 C87.47,40.916 88.394,41.196 89.584,41.196 Z M89.584,35.218 C88.87,35.218 88.352,35.05 88.03,34.714 C87.764,34.434 87.638,34.056 87.638,33.58 C87.638,33.16 87.792,32.796 88.114,32.516 C88.478,32.18 88.968,32.026 89.584,32.026 C90.2,32.026 90.69,32.18 91.054,32.516 C91.362,32.796 91.53,33.16 91.53,33.58 C91.53,34.056 91.39,34.434 91.138,34.714 C90.802,35.05 90.284,35.218 89.584,35.218 Z M89.584,39.964 C88.87,39.964 88.324,39.796 87.946,39.474 C87.554,39.152 87.372,38.732 87.372,38.214 C87.372,37.654 87.554,37.22 87.932,36.884 C88.296,36.52 88.856,36.352 89.584,36.352 C90.312,36.352 90.858,36.534 91.25,36.898 C91.614,37.22 91.796,37.654 91.796,38.214 C91.796,38.732 91.614,39.152 91.25,39.474 C90.844,39.796 90.284,39.964 89.584,39.964 Z M98.11,41.196 C99.09,41.196 99.93,40.86 100.602,40.216 C101.26,39.572 101.596,38.746 101.596,37.752 C101.596,36.772 101.302,35.96 100.728,35.33 C100.14,34.714 99.356,34.406 98.376,34.406 C97.844,34.406 97.382,34.504 96.99,34.714 C96.556,34.924 96.206,35.246 95.926,35.694 L95.87,35.694 C95.856,35.61 95.856,35.554 95.856,35.512 C95.856,34.532 96.052,33.734 96.458,33.09 C96.864,32.404 97.41,32.068 98.11,32.068 C99.118,32.068 99.72,32.544 99.93,33.524 L101.414,33.524 C101.162,31.704 100.056,30.808 98.124,30.808 C96.976,30.808 96.052,31.312 95.38,32.334 C94.708,33.342 94.386,34.658 94.386,36.282 C94.386,37.808 94.694,38.998 95.31,39.852 C95.954,40.748 96.878,41.196 98.11,41.196 Z M98.054,39.936 C97.452,39.936 96.962,39.74 96.598,39.348 C96.22,38.956 96.038,38.438 96.038,37.794 C96.038,37.136 96.22,36.618 96.584,36.226 C96.948,35.834 97.438,35.638 98.068,35.638 C98.684,35.638 99.188,35.834 99.552,36.226 C99.916,36.59 100.098,37.108 100.098,37.752 C100.098,38.382 99.902,38.9 99.524,39.32 C99.16,39.726 98.67,39.936 98.054,39.936 Z M6.2,65.196 C7.376,65.196 8.286,64.692 8.93,63.712 C9.518,62.788 9.812,61.542 9.812,60.002 C9.812,58.448 9.518,57.216 8.93,56.292 C8.286,55.298 7.376,54.808 6.2,54.808 C5.024,54.808 4.114,55.298 3.47,56.292 C2.882,57.202 2.588,58.434 2.588,60.002 C2.588,61.556 2.882,62.788 3.47,63.712 C4.114,64.692 5.024,65.196 6.2,65.196 Z M6.2,63.908 C5.374,63.908 4.8,63.446 4.464,62.55 C4.212,61.92 4.1,61.066 4.1,60.002 C4.1,58.924 4.212,58.07 4.464,57.454 C4.8,56.544 5.374,56.096 6.2,56.096 C7.012,56.096 7.6,56.544 7.936,57.454 C8.174,58.07 8.3,58.924 8.3,60.002 C8.3,61.066 8.174,61.92 7.936,62.55 C7.6,63.446 7.012,63.908 6.2,63.908 Z M18.044,65 L18.044,63.656 L13.046,63.656 C13.256,63.11 13.9,62.48 14.978,61.766 C15.972,61.094 16.658,60.562 17.05,60.156 C17.694,59.442 18.03,58.658 18.03,57.79 C18.03,56.908 17.722,56.194 17.12,55.634 C16.504,55.074 15.706,54.808 14.754,54.808 C13.69,54.808 12.822,55.158 12.178,55.886 C11.548,56.558 11.226,57.454 11.212,58.574 L12.738,58.574 C12.766,57.762 12.934,57.16 13.27,56.74 C13.592,56.306 14.068,56.096 14.698,56.096 C15.286,56.096 15.748,56.236 16.056,56.516 C16.364,56.796 16.518,57.216 16.518,57.776 C16.518,58.364 16.28,58.91 15.832,59.414 C15.552,59.708 15.076,60.086 14.404,60.562 C13.27,61.346 12.514,61.948 12.15,62.382 C11.478,63.138 11.156,64.006 11.156,65 L18.044,65 Z M22.888,65.196 C23.882,65.196 24.736,64.902 25.45,64.314 C26.206,63.656 26.598,62.816 26.598,61.78 C26.598,60.702 26.29,59.862 25.702,59.246 C25.114,58.63 24.344,58.322 23.406,58.322 C22.958,58.322 22.538,58.392 22.174,58.546 C21.768,58.686 21.418,58.91 21.11,59.232 L21.068,59.232 L21.362,56.348 L26.15,56.348 L26.15,55.004 L20.13,55.004 L19.584,60.604 L21.012,60.604 C21.208,60.24 21.474,59.974 21.838,59.806 C22.174,59.638 22.552,59.568 23,59.568 C23.672,59.568 24.176,59.764 24.54,60.156 C24.904,60.548 25.086,61.094 25.086,61.794 C25.086,62.438 24.876,62.942 24.456,63.334 C24.036,63.712 23.518,63.908 22.902,63.908 C22.342,63.908 21.894,63.782 21.558,63.53 C21.18,63.25 20.956,62.816 20.9,62.256 L19.402,62.256 C19.472,63.18 19.864,63.922 20.578,64.454 C21.222,64.944 21.992,65.196 22.888,65.196 Z M34.97,61.99 L34.97,60.758 L27.9,60.758 L27.9,61.99 L34.97,61.99 Z M39.996,65.196 C40.976,65.196 41.816,64.86 42.488,64.216 C43.146,63.572 43.482,62.746 43.482,61.752 C43.482,60.772 43.188,59.96 42.614,59.33 C42.026,58.714 41.242,58.406 40.262,58.406 C39.73,58.406 39.268,58.504 38.876,58.714 C38.442,58.924 38.092,59.246 37.812,59.694 L37.756,59.694 C37.742,59.61 37.742,59.554 37.742,59.512 C37.742,58.532 37.938,57.734 38.344,57.09 C38.75,56.404 39.296,56.068 39.996,56.068 C41.004,56.068 41.606,56.544 41.816,57.524 L43.3,57.524 C43.048,55.704 41.942,54.808 40.01,54.808 C38.862,54.808 37.938,55.312 37.266,56.334 C36.594,57.342 36.272,58.658 36.272,60.282 C36.272,61.808 36.58,62.998 37.196,63.852 C37.84,64.748 38.764,65.196 39.996,65.196 Z M39.94,63.936 C39.338,63.936 38.848,63.74 38.484,63.348 C38.106,62.956 37.924,62.438 37.924,61.794 C37.924,61.136 38.106,60.618 38.47,60.226 C38.834,59.834 39.324,59.638 39.954,59.638 C40.57,59.638 41.074,59.834 41.438,60.226 C41.802,60.59 41.984,61.108 41.984,61.752 C41.984,62.382 41.788,62.9 41.41,63.32 C41.046,63.726 40.556,63.936 39.94,63.936 Z M48.144,65.196 C49.292,65.196 50.202,64.678 50.888,63.67 C51.546,62.662 51.882,61.346 51.882,59.722 C51.882,58.182 51.56,56.992 50.944,56.138 C50.3,55.242 49.376,54.808 48.158,54.808 C47.164,54.808 46.338,55.13 45.666,55.788 C44.994,56.432 44.672,57.244 44.672,58.252 C44.672,59.232 44.952,60.03 45.526,60.646 C46.114,61.276 46.912,61.598 47.892,61.598 C48.41,61.598 48.872,61.486 49.278,61.29 C49.698,61.066 50.062,60.744 50.342,60.31 L50.398,60.31 C50.398,60.38 50.412,60.436 50.412,60.492 C50.412,61.458 50.202,62.27 49.81,62.914 C49.39,63.586 48.844,63.936 48.158,63.936 C47.15,63.936 46.534,63.446 46.338,62.48 L44.854,62.48 C45.106,64.286 46.198,65.196 48.144,65.196 Z M48.2,60.366 C47.57,60.366 47.08,60.17 46.73,59.778 C46.352,59.4 46.17,58.896 46.17,58.252 C46.17,57.608 46.352,57.09 46.73,56.684 C47.094,56.264 47.598,56.068 48.214,56.068 C48.802,56.068 49.292,56.264 49.67,56.656 C50.034,57.034 50.23,57.552 50.23,58.21 C50.23,58.854 50.048,59.386 49.684,59.778 C49.32,60.17 48.816,60.366 48.2,60.366 Z M56.544,65.196 C57.692,65.196 58.602,64.678 59.288,63.67 C59.946,62.662 60.282,61.346 60.282,59.722 C60.282,58.182 59.96,56.992 59.344,56.138 C58.7,55.242 57.776,54.808 56.558,54.808 C55.564,54.808 54.738,55.13 54.066,55.788 C53.394,56.432 53.072,57.244 53.072,58.252 C53.072,59.232 53.352,60.03 53.926,60.646 C54.514,61.276 55.312,61.598 56.292,61.598 C56.81,61.598 57.272,61.486 57.678,61.29 C58.098,61.066 58.462,60.744 58.742,60.31 L58.798,60.31 C58.798,60.38 58.812,60.436 58.812,60.492 C58.812,61.458 58.602,62.27 58.21,62.914 C57.79,63.586 57.244,63.936 56.558,63.936 C55.55,63.936 54.934,63.446 54.738,62.48 L53.254,62.48 C53.506,64.286 54.598,65.196 56.544,65.196 Z M56.6,60.366 C55.97,60.366 55.48,60.17 55.13,59.778 C54.752,59.4 54.57,58.896 54.57,58.252 C54.57,57.608 54.752,57.09 55.13,56.684 C55.494,56.264 55.998,56.068 56.614,56.068 C57.202,56.068 57.692,56.264 58.07,56.656 C58.434,57.034 58.63,57.552 58.63,58.21 C58.63,58.854 58.448,59.386 58.084,59.778 C57.72,60.17 57.216,60.366 56.6,60.366 Z M64.482,65 L68.024,56.236 L68.024,55.004 L61.304,55.004 L61.304,56.39 L66.484,56.39 L62.858,65 L64.482,65 Z M72.826,65.196 C73.89,65.196 74.772,64.888 75.444,64.3 C76.074,63.712 76.396,62.956 76.396,62.032 C76.396,61.444 76.228,60.954 75.892,60.576 C75.584,60.212 75.136,59.932 74.548,59.75 C75.64,59.386 76.2,58.644 76.2,57.552 C76.2,56.698 75.892,56.026 75.304,55.536 C74.688,55.046 73.89,54.808 72.882,54.808 C71.902,54.808 71.104,55.074 70.488,55.634 C69.83,56.194 69.466,56.964 69.382,57.958 L70.88,57.958 C70.936,57.342 71.146,56.88 71.482,56.572 C71.818,56.264 72.294,56.11 72.896,56.11 C73.484,56.11 73.946,56.236 74.254,56.516 C74.534,56.782 74.688,57.16 74.688,57.664 C74.688,58.168 74.52,58.56 74.212,58.826 C73.904,59.092 73.442,59.232 72.826,59.232 L72.112,59.232 L72.112,60.38 L72.84,60.38 C73.498,60.38 74.002,60.52 74.338,60.8 C74.702,61.08 74.884,61.514 74.884,62.102 C74.884,62.606 74.702,63.012 74.366,63.348 C73.974,63.712 73.456,63.908 72.812,63.908 C72.224,63.908 71.748,63.74 71.384,63.404 C70.964,63.04 70.754,62.522 70.726,61.85 L69.186,61.85 C69.27,62.97 69.662,63.824 70.362,64.412 C70.978,64.93 71.804,65.196 72.826,65.196 Z M81.184,65.196 C82.36,65.196 83.284,64.916 83.942,64.37 C84.586,63.81 84.908,63.096 84.908,62.214 C84.908,61.584 84.712,61.038 84.32,60.562 C83.984,60.114 83.564,59.834 83.088,59.722 L83.088,59.68 C83.592,59.484 83.97,59.204 84.222,58.826 C84.446,58.476 84.558,58.042 84.558,57.524 C84.558,56.782 84.278,56.152 83.718,55.648 C83.088,55.088 82.248,54.808 81.184,54.808 C80.12,54.808 79.266,55.088 78.65,55.648 C78.09,56.152 77.81,56.782 77.81,57.524 C77.81,58.042 77.922,58.476 78.146,58.826 C78.398,59.204 78.776,59.484 79.28,59.68 L79.28,59.722 C78.79,59.834 78.384,60.114 78.048,60.562 C77.656,61.038 77.46,61.584 77.46,62.214 C77.46,63.096 77.782,63.81 78.426,64.37 C79.07,64.916 79.994,65.196 81.184,65.196 Z M81.184,59.218 C80.47,59.218 79.952,59.05 79.63,58.714 C79.364,58.434 79.238,58.056 79.238,57.58 C79.238,57.16 79.392,56.796 79.714,56.516 C80.078,56.18 80.568,56.026 81.184,56.026 C81.8,56.026 82.29,56.18 82.654,56.516 C82.962,56.796 83.13,57.16 83.13,57.58 C83.13,58.056 82.99,58.434 82.738,58.714 C82.402,59.05 81.884,59.218 81.184,59.218 Z M81.184,63.964 C80.47,63.964 79.924,63.796 79.546,63.474 C79.154,63.152 78.972,62.732 78.972,62.214 C78.972,61.654 79.154,61.22 79.532,60.884 C79.896,60.52 80.456,60.352 81.184,60.352 C81.912,60.352 82.458,60.534 82.85,60.898 C83.214,61.22 83.396,61.654 83.396,62.214 C83.396,62.732 83.214,63.152 82.85,63.474 C82.444,63.796 81.884,63.964 81.184,63.964 Z M89.584,65.196 C90.76,65.196 91.684,64.916 92.342,64.37 C92.986,63.81 93.308,63.096 93.308,62.214 C93.308,61.584 93.112,61.038 92.72,60.562 C92.384,60.114 91.964,59.834 91.488,59.722 L91.488,59.68 C91.992,59.484 92.37,59.204 92.622,58.826 C92.846,58.476 92.958,58.042 92.958,57.524 C92.958,56.782 92.678,56.152 92.118,55.648 C91.488,55.088 90.648,54.808 89.584,54.808 C88.52,54.808 87.666,55.088 87.05,55.648 C86.49,56.152 86.21,56.782 86.21,57.524 C86.21,58.042 86.322,58.476 86.546,58.826 C86.798,59.204 87.176,59.484 87.68,59.68 L87.68,59.722 C87.19,59.834 86.784,60.114 86.448,60.562 C86.056,61.038 85.86,61.584 85.86,62.214 C85.86,63.096 86.182,63.81 86.826,64.37 C87.47,64.916 88.394,65.196 89.584,65.196 Z M89.584,59.218 C88.87,59.218 88.352,59.05 88.03,58.714 C87.764,58.434 87.638,58.056 87.638,57.58 C87.638,57.16 87.792,56.796 88.114,56.516 C88.478,56.18 88.968,56.026 89.584,56.026 C90.2,56.026 90.69,56.18 91.054,56.516 C91.362,56.796 91.53,57.16 91.53,57.58 C91.53,58.056 91.39,58.434 91.138,58.714 C90.802,59.05 90.284,59.218 89.584,59.218 Z M89.584,63.964 C88.87,63.964 88.324,63.796 87.946,63.474 C87.554,63.152 87.372,62.732 87.372,62.214 C87.372,61.654 87.554,61.22 87.932,60.884 C88.296,60.52 88.856,60.352 89.584,60.352 C90.312,60.352 90.858,60.534 91.25,60.898 C91.614,61.22 91.796,61.654 91.796,62.214 C91.796,62.732 91.614,63.152 91.25,63.474 C90.844,63.796 90.284,63.964 89.584,63.964 Z M97.396,65 L100.938,56.236 L100.938,55.004 L94.218,55.004 L94.218,56.39 L99.398,56.39 L95.772,65 L97.396,65 Z" id="025-69973885025-69973886025-69973887" fill="#3B88FE" fill-rule="nonzero"></path>
                        <rect x="2" y="0" width="100" height="72"></rect>
                    </g>
                </g>
            </g>
        </g>
    </g>
</svg>