<?xml version="1.0" encoding="UTF-8"?>
<svg width="380px" height="22px" viewBox="0 0 380 22" version="1.1" xmlns="http://www.w3.org/2000/svg" xmlns:xlink="http://www.w3.org/1999/xlink">
    <!-- Generator: Sketch 61 (89581) - https://sketch.com -->
    <title>技术支持-tel</title>
    <desc>Created with Sketch.</desc>
    <g id="设计稿" stroke="none" stroke-width="1" fill="none" fill-rule="evenodd">
        <g id="增值服务" transform="translate(-470.000000, -2149.000000)">
            <g id="技术支持-tel" transform="translate(470.000000, 2149.000000)">
                <path d="M5.8,17.224 C7.144,17.224 8.184,16.648 8.92,15.528 C9.592,14.472 9.928,13.048 9.928,11.288 C9.928,9.512 9.592,8.104 8.92,7.048 C8.184,5.912 7.144,5.352 5.8,5.352 C4.456,5.352 3.416,5.912 2.68,7.048 C2.008,8.088 1.672,9.496 1.672,11.288 C1.672,13.064 2.008,14.472 2.68,15.528 C3.416,16.648 4.456,17.224 5.8,17.224 Z M5.8,15.752 C4.856,15.752 4.2,15.224 3.816,14.2 C3.528,13.48 3.4,12.504 3.4,11.288 C3.4,10.056 3.528,9.08 3.816,8.376 C4.2,7.336 4.856,6.824 5.8,6.824 C6.728,6.824 7.4,7.336 7.784,8.376 C8.056,9.08 8.2,10.056 8.2,11.288 C8.2,12.504 8.056,13.48 7.784,14.2 C7.4,15.224 6.728,15.752 5.8,15.752 Z M19.336,17 L19.336,15.464 L13.624,15.464 C13.864,14.84 14.6,14.12 15.832,13.304 C16.968,12.536 17.752,11.928 18.2,11.464 C18.936,10.648 19.32,9.752 19.32,8.76 C19.32,7.752 18.968,6.936 18.28,6.296 C17.576,5.656 16.664,5.352 15.576,5.352 C14.36,5.352 13.368,5.752 12.632,6.584 C11.912,7.352 11.544,8.376 11.528,9.656 L13.272,9.656 C13.304,8.728 13.496,8.04 13.88,7.56 C14.248,7.064 14.792,6.824 15.512,6.824 C16.184,6.824 16.712,6.984 17.064,7.304 C17.416,7.624 17.592,8.104 17.592,8.744 C17.592,9.416 17.32,10.04 16.808,10.616 C16.488,10.952 15.944,11.384 15.176,11.928 C13.88,12.824 13.016,13.512 12.6,14.008 C11.832,14.872 11.464,15.864 11.464,17 L19.336,17 Z M24.872,17.224 C26.008,17.224 26.984,16.888 27.8,16.216 C28.664,15.464 29.112,14.504 29.112,13.32 C29.112,12.088 28.76,11.128 28.088,10.424 C27.416,9.72 26.536,9.368 25.464,9.368 C24.952,9.368 24.472,9.448 24.056,9.624 C23.592,9.784 23.192,10.04 22.84,10.408 L22.792,10.408 L23.128,7.112 L28.6,7.112 L28.6,5.576 L21.72,5.576 L21.096,11.976 L22.728,11.976 C22.952,11.56 23.256,11.256 23.672,11.064 C24.056,10.872 24.488,10.792 25,10.792 C25.768,10.792 26.344,11.016 26.76,11.464 C27.176,11.912 27.384,12.536 27.384,13.336 C27.384,14.072 27.144,14.648 26.664,15.096 C26.184,15.528 25.592,15.752 24.888,15.752 C24.248,15.752 23.736,15.608 23.352,15.32 C22.92,15 22.664,14.504 22.6,13.864 L20.888,13.864 C20.968,14.92 21.416,15.768 22.232,16.376 C22.968,16.936 23.848,17.224 24.872,17.224 Z M38.68,13.56 L38.68,12.152 L30.6,12.152 L30.6,13.56 L38.68,13.56 Z M44.424,17.224 C45.544,17.224 46.504,16.84 47.272,16.104 C48.024,15.368 48.408,14.424 48.408,13.288 C48.408,12.168 48.072,11.24 47.416,10.52 C46.744,9.816 45.848,9.464 44.728,9.464 C44.12,9.464 43.592,9.576 43.144,9.816 C42.648,10.056 42.248,10.424 41.928,10.936 L41.864,10.936 C41.848,10.84 41.848,10.776 41.848,10.728 C41.848,9.608 42.072,8.696 42.536,7.96 C43,7.176 43.624,6.792 44.424,6.792 C45.576,6.792 46.264,7.336 46.504,8.456 L48.2,8.456 C47.912,6.376 46.648,5.352 44.44,5.352 C43.128,5.352 42.072,5.928 41.304,7.096 C40.536,8.248 40.168,9.752 40.168,11.608 C40.168,13.352 40.52,14.712 41.224,15.688 C41.96,16.712 43.016,17.224 44.424,17.224 Z M44.36,15.784 C43.672,15.784 43.112,15.56 42.696,15.112 C42.264,14.664 42.056,14.072 42.056,13.336 C42.056,12.584 42.264,11.992 42.68,11.544 C43.096,11.096 43.656,10.872 44.376,10.872 C45.08,10.872 45.656,11.096 46.072,11.544 C46.488,11.96 46.696,12.552 46.696,13.288 C46.696,14.008 46.472,14.6 46.04,15.08 C45.624,15.544 45.064,15.784 44.36,15.784 Z M53.736,17.224 C55.048,17.224 56.088,16.632 56.872,15.48 C57.624,14.328 58.008,12.824 58.008,10.968 C58.008,9.208 57.64,7.848 56.936,6.872 C56.2,5.848 55.144,5.352 53.752,5.352 C52.616,5.352 51.672,5.72 50.904,6.472 C50.136,7.208 49.768,8.136 49.768,9.288 C49.768,10.408 50.088,11.32 50.744,12.024 C51.416,12.744 52.328,13.112 53.448,13.112 C54.04,13.112 54.568,12.984 55.032,12.76 C55.512,12.504 55.928,12.136 56.248,11.64 L56.312,11.64 C56.312,11.72 56.328,11.784 56.328,11.848 C56.328,12.952 56.088,13.88 55.64,14.616 C55.16,15.384 54.536,15.784 53.752,15.784 C52.6,15.784 51.896,15.224 51.672,14.12 L49.976,14.12 C50.264,16.184 51.512,17.224 53.736,17.224 Z M53.8,11.704 C53.08,11.704 52.52,11.48 52.12,11.032 C51.688,10.6 51.48,10.024 51.48,9.288 C51.48,8.552 51.688,7.96 52.12,7.496 C52.536,7.016 53.112,6.792 53.816,6.792 C54.488,6.792 55.048,7.016 55.48,7.464 C55.896,7.896 56.12,8.488 56.12,9.24 C56.12,9.976 55.912,10.584 55.496,11.032 C55.08,11.48 54.504,11.704 53.8,11.704 Z M63.336,17.224 C64.648,17.224 65.688,16.632 66.472,15.48 C67.224,14.328 67.608,12.824 67.608,10.968 C67.608,9.208 67.24,7.848 66.536,6.872 C65.8,5.848 64.744,5.352 63.352,5.352 C62.216,5.352 61.272,5.72 60.504,6.472 C59.736,7.208 59.368,8.136 59.368,9.288 C59.368,10.408 59.688,11.32 60.344,12.024 C61.016,12.744 61.928,13.112 63.048,13.112 C63.64,13.112 64.168,12.984 64.632,12.76 C65.112,12.504 65.528,12.136 65.848,11.64 L65.912,11.64 C65.912,11.72 65.928,11.784 65.928,11.848 C65.928,12.952 65.688,13.88 65.24,14.616 C64.76,15.384 64.136,15.784 63.352,15.784 C62.2,15.784 61.496,15.224 61.272,14.12 L59.576,14.12 C59.864,16.184 61.112,17.224 63.336,17.224 Z M63.4,11.704 C62.68,11.704 62.12,11.48 61.72,11.032 C61.288,10.6 61.08,10.024 61.08,9.288 C61.08,8.552 61.288,7.96 61.72,7.496 C62.136,7.016 62.712,6.792 63.416,6.792 C64.088,6.792 64.648,7.016 65.08,7.464 C65.496,7.896 65.72,8.488 65.72,9.24 C65.72,9.976 65.512,10.584 65.096,11.032 C64.68,11.48 64.104,11.704 63.4,11.704 Z M72.408,17 L76.456,6.984 L76.456,5.576 L68.776,5.576 L68.776,7.16 L74.696,7.16 L70.552,17 L72.408,17 Z M81.944,17.224 C83.16,17.224 84.168,16.872 84.936,16.2 C85.656,15.528 86.024,14.664 86.024,13.608 C86.024,12.936 85.832,12.376 85.448,11.944 C85.096,11.528 84.584,11.208 83.912,11 C85.16,10.584 85.8,9.736 85.8,8.488 C85.8,7.512 85.448,6.744 84.776,6.184 C84.072,5.624 83.16,5.352 82.008,5.352 C80.888,5.352 79.976,5.656 79.272,6.296 C78.52,6.936 78.104,7.816 78.008,8.952 L79.72,8.952 C79.784,8.248 80.024,7.72 80.408,7.368 C80.792,7.016 81.336,6.84 82.024,6.84 C82.696,6.84 83.224,6.984 83.576,7.304 C83.896,7.608 84.072,8.04 84.072,8.616 C84.072,9.192 83.88,9.64 83.528,9.944 C83.176,10.248 82.648,10.408 81.944,10.408 L81.128,10.408 L81.128,11.72 L81.96,11.72 C82.712,11.72 83.288,11.88 83.672,12.2 C84.088,12.52 84.296,13.016 84.296,13.688 C84.296,14.264 84.088,14.728 83.704,15.112 C83.256,15.528 82.664,15.752 81.928,15.752 C81.256,15.752 80.712,15.56 80.296,15.176 C79.816,14.76 79.576,14.168 79.544,13.4 L77.784,13.4 C77.88,14.68 78.328,15.656 79.128,16.328 C79.832,16.92 80.776,17.224 81.944,17.224 Z M91.496,17.224 C92.84,17.224 93.896,16.904 94.648,16.28 C95.384,15.64 95.752,14.824 95.752,13.816 C95.752,13.096 95.528,12.472 95.08,11.928 C94.696,11.416 94.216,11.096 93.672,10.968 L93.672,10.92 C94.248,10.696 94.68,10.376 94.968,9.944 C95.224,9.544 95.352,9.048 95.352,8.456 C95.352,7.608 95.032,6.888 94.392,6.312 C93.672,5.672 92.712,5.352 91.496,5.352 C90.28,5.352 89.304,5.672 88.6,6.312 C87.96,6.888 87.64,7.608 87.64,8.456 C87.64,9.048 87.768,9.544 88.024,9.944 C88.312,10.376 88.744,10.696 89.32,10.92 L89.32,10.968 C88.76,11.096 88.296,11.416 87.912,11.928 C87.464,12.472 87.24,13.096 87.24,13.816 C87.24,14.824 87.608,15.64 88.344,16.28 C89.08,16.904 90.136,17.224 91.496,17.224 Z M91.496,10.392 C90.68,10.392 90.088,10.2 89.72,9.816 C89.416,9.496 89.272,9.064 89.272,8.52 C89.272,8.04 89.448,7.624 89.816,7.304 C90.232,6.92 90.792,6.744 91.496,6.744 C92.2,6.744 92.76,6.92 93.176,7.304 C93.528,7.624 93.72,8.04 93.72,8.52 C93.72,9.064 93.56,9.496 93.272,9.816 C92.888,10.2 92.296,10.392 91.496,10.392 Z M91.496,15.816 C90.68,15.816 90.056,15.624 89.624,15.256 C89.176,14.888 88.968,14.408 88.968,13.816 C88.968,13.176 89.176,12.68 89.608,12.296 C90.024,11.88 90.664,11.688 91.496,11.688 C92.328,11.688 92.952,11.896 93.4,12.312 C93.816,12.68 94.024,13.176 94.024,13.816 C94.024,14.408 93.816,14.888 93.4,15.256 C92.936,15.624 92.296,15.816 91.496,15.816 Z M101.096,17.224 C102.44,17.224 103.496,16.904 104.248,16.28 C104.984,15.64 105.352,14.824 105.352,13.816 C105.352,13.096 105.128,12.472 104.68,11.928 C104.296,11.416 103.816,11.096 103.272,10.968 L103.272,10.92 C103.848,10.696 104.28,10.376 104.568,9.944 C104.824,9.544 104.952,9.048 104.952,8.456 C104.952,7.608 104.632,6.888 103.992,6.312 C103.272,5.672 102.312,5.352 101.096,5.352 C99.88,5.352 98.904,5.672 98.2,6.312 C97.56,6.888 97.24,7.608 97.24,8.456 C97.24,9.048 97.368,9.544 97.624,9.944 C97.912,10.376 98.344,10.696 98.92,10.92 L98.92,10.968 C98.36,11.096 97.896,11.416 97.512,11.928 C97.064,12.472 96.84,13.096 96.84,13.816 C96.84,14.824 97.208,15.64 97.944,16.28 C98.68,16.904 99.736,17.224 101.096,17.224 Z M101.096,10.392 C100.28,10.392 99.688,10.2 99.32,9.816 C99.016,9.496 98.872,9.064 98.872,8.52 C98.872,8.04 99.048,7.624 99.416,7.304 C99.832,6.92 100.392,6.744 101.096,6.744 C101.8,6.744 102.36,6.92 102.776,7.304 C103.128,7.624 103.32,8.04 103.32,8.52 C103.32,9.064 103.16,9.496 102.872,9.816 C102.488,10.2 101.896,10.392 101.096,10.392 Z M101.096,15.816 C100.28,15.816 99.656,15.624 99.224,15.256 C98.776,14.888 98.568,14.408 98.568,13.816 C98.568,13.176 98.776,12.68 99.208,12.296 C99.624,11.88 100.264,11.688 101.096,11.688 C101.928,11.688 102.552,11.896 103,12.312 C103.416,12.68 103.624,13.176 103.624,13.816 C103.624,14.408 103.416,14.888 103,15.256 C102.536,15.624 101.896,15.816 101.096,15.816 Z M110.568,17.224 C111.704,17.224 112.68,16.888 113.496,16.216 C114.36,15.464 114.808,14.504 114.808,13.32 C114.808,12.088 114.456,11.128 113.784,10.424 C113.112,9.72 112.232,9.368 111.16,9.368 C110.648,9.368 110.168,9.448 109.752,9.624 C109.288,9.784 108.888,10.04 108.536,10.408 L108.488,10.408 L108.824,7.112 L114.296,7.112 L114.296,5.576 L107.416,5.576 L106.792,11.976 L108.424,11.976 C108.648,11.56 108.952,11.256 109.368,11.064 C109.752,10.872 110.184,10.792 110.696,10.792 C111.464,10.792 112.04,11.016 112.456,11.464 C112.872,11.912 113.08,12.536 113.08,13.336 C113.08,14.072 112.84,14.648 112.36,15.096 C111.88,15.528 111.288,15.752 110.584,15.752 C109.944,15.752 109.432,15.608 109.048,15.32 C108.616,15 108.36,14.504 108.296,13.864 L106.584,13.864 C106.664,14.92 107.112,15.768 107.928,16.376 C108.664,16.936 109.544,17.224 110.568,17.224 Z M136.28,17.224 C137.624,17.224 138.664,16.648 139.4,15.528 C140.072,14.472 140.408,13.048 140.408,11.288 C140.408,9.512 140.072,8.104 139.4,7.048 C138.664,5.912 137.624,5.352 136.28,5.352 C134.936,5.352 133.896,5.912 133.16,7.048 C132.488,8.088 132.152,9.496 132.152,11.288 C132.152,13.064 132.488,14.472 133.16,15.528 C133.896,16.648 134.936,17.224 136.28,17.224 Z M136.28,15.752 C135.336,15.752 134.68,15.224 134.296,14.2 C134.008,13.48 133.88,12.504 133.88,11.288 C133.88,10.056 134.008,9.08 134.296,8.376 C134.68,7.336 135.336,6.824 136.28,6.824 C137.208,6.824 137.88,7.336 138.264,8.376 C138.536,9.08 138.68,10.056 138.68,11.288 C138.68,12.504 138.536,13.48 138.264,14.2 C137.88,15.224 137.208,15.752 136.28,15.752 Z M149.816,17 L149.816,15.464 L144.104,15.464 C144.344,14.84 145.08,14.12 146.312,13.304 C147.448,12.536 148.232,11.928 148.68,11.464 C149.416,10.648 149.8,9.752 149.8,8.76 C149.8,7.752 149.448,6.936 148.76,6.296 C148.056,5.656 147.144,5.352 146.056,5.352 C144.84,5.352 143.848,5.752 143.112,6.584 C142.392,7.352 142.024,8.376 142.008,9.656 L143.752,9.656 C143.784,8.728 143.976,8.04 144.36,7.56 C144.728,7.064 145.272,6.824 145.992,6.824 C146.664,6.824 147.192,6.984 147.544,7.304 C147.896,7.624 148.072,8.104 148.072,8.744 C148.072,9.416 147.8,10.04 147.288,10.616 C146.968,10.952 146.424,11.384 145.656,11.928 C144.36,12.824 143.496,13.512 143.08,14.008 C142.312,14.872 141.944,15.864 141.944,17 L149.816,17 Z M155.352,17.224 C156.488,17.224 157.464,16.888 158.28,16.216 C159.144,15.464 159.592,14.504 159.592,13.32 C159.592,12.088 159.24,11.128 158.568,10.424 C157.896,9.72 157.016,9.368 155.944,9.368 C155.432,9.368 154.952,9.448 154.536,9.624 C154.072,9.784 153.672,10.04 153.32,10.408 L153.272,10.408 L153.608,7.112 L159.08,7.112 L159.08,5.576 L152.2,5.576 L151.576,11.976 L153.208,11.976 C153.432,11.56 153.736,11.256 154.152,11.064 C154.536,10.872 154.968,10.792 155.48,10.792 C156.248,10.792 156.824,11.016 157.24,11.464 C157.656,11.912 157.864,12.536 157.864,13.336 C157.864,14.072 157.624,14.648 157.144,15.096 C156.664,15.528 156.072,15.752 155.368,15.752 C154.728,15.752 154.216,15.608 153.832,15.32 C153.4,15 153.144,14.504 153.08,13.864 L151.368,13.864 C151.448,14.92 151.896,15.768 152.712,16.376 C153.448,16.936 154.328,17.224 155.352,17.224 Z M169.16,13.56 L169.16,12.152 L161.08,12.152 L161.08,13.56 L169.16,13.56 Z M174.904,17.224 C176.024,17.224 176.984,16.84 177.752,16.104 C178.504,15.368 178.888,14.424 178.888,13.288 C178.888,12.168 178.552,11.24 177.896,10.52 C177.224,9.816 176.328,9.464 175.208,9.464 C174.6,9.464 174.072,9.576 173.624,9.816 C173.128,10.056 172.728,10.424 172.408,10.936 L172.344,10.936 C172.328,10.84 172.328,10.776 172.328,10.728 C172.328,9.608 172.552,8.696 173.016,7.96 C173.48,7.176 174.104,6.792 174.904,6.792 C176.056,6.792 176.744,7.336 176.984,8.456 L178.68,8.456 C178.392,6.376 177.128,5.352 174.92,5.352 C173.608,5.352 172.552,5.928 171.784,7.096 C171.016,8.248 170.648,9.752 170.648,11.608 C170.648,13.352 171,14.712 171.704,15.688 C172.44,16.712 173.496,17.224 174.904,17.224 Z M174.84,15.784 C174.152,15.784 173.592,15.56 173.176,15.112 C172.744,14.664 172.536,14.072 172.536,13.336 C172.536,12.584 172.744,11.992 173.16,11.544 C173.576,11.096 174.136,10.872 174.856,10.872 C175.56,10.872 176.136,11.096 176.552,11.544 C176.968,11.96 177.176,12.552 177.176,13.288 C177.176,14.008 176.952,14.6 176.52,15.08 C176.104,15.544 175.544,15.784 174.84,15.784 Z M184.216,17.224 C185.528,17.224 186.568,16.632 187.352,15.48 C188.104,14.328 188.488,12.824 188.488,10.968 C188.488,9.208 188.12,7.848 187.416,6.872 C186.68,5.848 185.624,5.352 184.232,5.352 C183.096,5.352 182.152,5.72 181.384,6.472 C180.616,7.208 180.248,8.136 180.248,9.288 C180.248,10.408 180.568,11.32 181.224,12.024 C181.896,12.744 182.808,13.112 183.928,13.112 C184.52,13.112 185.048,12.984 185.512,12.76 C185.992,12.504 186.408,12.136 186.728,11.64 L186.792,11.64 C186.792,11.72 186.808,11.784 186.808,11.848 C186.808,12.952 186.568,13.88 186.12,14.616 C185.64,15.384 185.016,15.784 184.232,15.784 C183.08,15.784 182.376,15.224 182.152,14.12 L180.456,14.12 C180.744,16.184 181.992,17.224 184.216,17.224 Z M184.28,11.704 C183.56,11.704 183,11.48 182.6,11.032 C182.168,10.6 181.96,10.024 181.96,9.288 C181.96,8.552 182.168,7.96 182.6,7.496 C183.016,7.016 183.592,6.792 184.296,6.792 C184.968,6.792 185.528,7.016 185.96,7.464 C186.376,7.896 186.6,8.488 186.6,9.24 C186.6,9.976 186.392,10.584 185.976,11.032 C185.56,11.48 184.984,11.704 184.28,11.704 Z M193.816,17.224 C195.128,17.224 196.168,16.632 196.952,15.48 C197.704,14.328 198.088,12.824 198.088,10.968 C198.088,9.208 197.72,7.848 197.016,6.872 C196.28,5.848 195.224,5.352 193.832,5.352 C192.696,5.352 191.752,5.72 190.984,6.472 C190.216,7.208 189.848,8.136 189.848,9.288 C189.848,10.408 190.168,11.32 190.824,12.024 C191.496,12.744 192.408,13.112 193.528,13.112 C194.12,13.112 194.648,12.984 195.112,12.76 C195.592,12.504 196.008,12.136 196.328,11.64 L196.392,11.64 C196.392,11.72 196.408,11.784 196.408,11.848 C196.408,12.952 196.168,13.88 195.72,14.616 C195.24,15.384 194.616,15.784 193.832,15.784 C192.68,15.784 191.976,15.224 191.752,14.12 L190.056,14.12 C190.344,16.184 191.592,17.224 193.816,17.224 Z M193.88,11.704 C193.16,11.704 192.6,11.48 192.2,11.032 C191.768,10.6 191.56,10.024 191.56,9.288 C191.56,8.552 191.768,7.96 192.2,7.496 C192.616,7.016 193.192,6.792 193.896,6.792 C194.568,6.792 195.128,7.016 195.56,7.464 C195.976,7.896 196.2,8.488 196.2,9.24 C196.2,9.976 195.992,10.584 195.576,11.032 C195.16,11.48 194.584,11.704 193.88,11.704 Z M202.888,17 L206.936,6.984 L206.936,5.576 L199.256,5.576 L199.256,7.16 L205.176,7.16 L201.032,17 L202.888,17 Z M212.424,17.224 C213.64,17.224 214.648,16.872 215.416,16.2 C216.136,15.528 216.504,14.664 216.504,13.608 C216.504,12.936 216.312,12.376 215.928,11.944 C215.576,11.528 215.064,11.208 214.392,11 C215.64,10.584 216.28,9.736 216.28,8.488 C216.28,7.512 215.928,6.744 215.256,6.184 C214.552,5.624 213.64,5.352 212.488,5.352 C211.368,5.352 210.456,5.656 209.752,6.296 C209,6.936 208.584,7.816 208.488,8.952 L210.2,8.952 C210.264,8.248 210.504,7.72 210.888,7.368 C211.272,7.016 211.816,6.84 212.504,6.84 C213.176,6.84 213.704,6.984 214.056,7.304 C214.376,7.608 214.552,8.04 214.552,8.616 C214.552,9.192 214.36,9.64 214.008,9.944 C213.656,10.248 213.128,10.408 212.424,10.408 L211.608,10.408 L211.608,11.72 L212.44,11.72 C213.192,11.72 213.768,11.88 214.152,12.2 C214.568,12.52 214.776,13.016 214.776,13.688 C214.776,14.264 214.568,14.728 214.184,15.112 C213.736,15.528 213.144,15.752 212.408,15.752 C211.736,15.752 211.192,15.56 210.776,15.176 C210.296,14.76 210.056,14.168 210.024,13.4 L208.264,13.4 C208.36,14.68 208.808,15.656 209.608,16.328 C210.312,16.92 211.256,17.224 212.424,17.224 Z M221.976,17.224 C223.32,17.224 224.376,16.904 225.128,16.28 C225.864,15.64 226.232,14.824 226.232,13.816 C226.232,13.096 226.008,12.472 225.56,11.928 C225.176,11.416 224.696,11.096 224.152,10.968 L224.152,10.92 C224.728,10.696 225.16,10.376 225.448,9.944 C225.704,9.544 225.832,9.048 225.832,8.456 C225.832,7.608 225.512,6.888 224.872,6.312 C224.152,5.672 223.192,5.352 221.976,5.352 C220.76,5.352 219.784,5.672 219.08,6.312 C218.44,6.888 218.12,7.608 218.12,8.456 C218.12,9.048 218.248,9.544 218.504,9.944 C218.792,10.376 219.224,10.696 219.8,10.92 L219.8,10.968 C219.24,11.096 218.776,11.416 218.392,11.928 C217.944,12.472 217.72,13.096 217.72,13.816 C217.72,14.824 218.088,15.64 218.824,16.28 C219.56,16.904 220.616,17.224 221.976,17.224 Z M221.976,10.392 C221.16,10.392 220.568,10.2 220.2,9.816 C219.896,9.496 219.752,9.064 219.752,8.52 C219.752,8.04 219.928,7.624 220.296,7.304 C220.712,6.92 221.272,6.744 221.976,6.744 C222.68,6.744 223.24,6.92 223.656,7.304 C224.008,7.624 224.2,8.04 224.2,8.52 C224.2,9.064 224.04,9.496 223.752,9.816 C223.368,10.2 222.776,10.392 221.976,10.392 Z M221.976,15.816 C221.16,15.816 220.536,15.624 220.104,15.256 C219.656,14.888 219.448,14.408 219.448,13.816 C219.448,13.176 219.656,12.68 220.088,12.296 C220.504,11.88 221.144,11.688 221.976,11.688 C222.808,11.688 223.432,11.896 223.88,12.312 C224.296,12.68 224.504,13.176 224.504,13.816 C224.504,14.408 224.296,14.888 223.88,15.256 C223.416,15.624 222.776,15.816 221.976,15.816 Z M231.576,17.224 C232.92,17.224 233.976,16.904 234.728,16.28 C235.464,15.64 235.832,14.824 235.832,13.816 C235.832,13.096 235.608,12.472 235.16,11.928 C234.776,11.416 234.296,11.096 233.752,10.968 L233.752,10.92 C234.328,10.696 234.76,10.376 235.048,9.944 C235.304,9.544 235.432,9.048 235.432,8.456 C235.432,7.608 235.112,6.888 234.472,6.312 C233.752,5.672 232.792,5.352 231.576,5.352 C230.36,5.352 229.384,5.672 228.68,6.312 C228.04,6.888 227.72,7.608 227.72,8.456 C227.72,9.048 227.848,9.544 228.104,9.944 C228.392,10.376 228.824,10.696 229.4,10.92 L229.4,10.968 C228.84,11.096 228.376,11.416 227.992,11.928 C227.544,12.472 227.32,13.096 227.32,13.816 C227.32,14.824 227.688,15.64 228.424,16.28 C229.16,16.904 230.216,17.224 231.576,17.224 Z M231.576,10.392 C230.76,10.392 230.168,10.2 229.8,9.816 C229.496,9.496 229.352,9.064 229.352,8.52 C229.352,8.04 229.528,7.624 229.896,7.304 C230.312,6.92 230.872,6.744 231.576,6.744 C232.28,6.744 232.84,6.92 233.256,7.304 C233.608,7.624 233.8,8.04 233.8,8.52 C233.8,9.064 233.64,9.496 233.352,9.816 C232.968,10.2 232.376,10.392 231.576,10.392 Z M231.576,15.816 C230.76,15.816 230.136,15.624 229.704,15.256 C229.256,14.888 229.048,14.408 229.048,13.816 C229.048,13.176 229.256,12.68 229.688,12.296 C230.104,11.88 230.744,11.688 231.576,11.688 C232.408,11.688 233.032,11.896 233.48,12.312 C233.896,12.68 234.104,13.176 234.104,13.816 C234.104,14.408 233.896,14.888 233.48,15.256 C233.016,15.624 232.376,15.816 231.576,15.816 Z M241.32,17.224 C242.44,17.224 243.4,16.84 244.168,16.104 C244.92,15.368 245.304,14.424 245.304,13.288 C245.304,12.168 244.968,11.24 244.312,10.52 C243.64,9.816 242.744,9.464 241.624,9.464 C241.016,9.464 240.488,9.576 240.04,9.816 C239.544,10.056 239.144,10.424 238.824,10.936 L238.76,10.936 C238.744,10.84 238.744,10.776 238.744,10.728 C238.744,9.608 238.968,8.696 239.432,7.96 C239.896,7.176 240.52,6.792 241.32,6.792 C242.472,6.792 243.16,7.336 243.4,8.456 L245.096,8.456 C244.808,6.376 243.544,5.352 241.336,5.352 C240.024,5.352 238.968,5.928 238.2,7.096 C237.432,8.248 237.064,9.752 237.064,11.608 C237.064,13.352 237.416,14.712 238.12,15.688 C238.856,16.712 239.912,17.224 241.32,17.224 Z M241.256,15.784 C240.568,15.784 240.008,15.56 239.592,15.112 C239.16,14.664 238.952,14.072 238.952,13.336 C238.952,12.584 239.16,11.992 239.576,11.544 C239.992,11.096 240.552,10.872 241.272,10.872 C241.976,10.872 242.552,11.096 242.968,11.544 C243.384,11.96 243.592,12.552 243.592,13.288 C243.592,14.008 243.368,14.6 242.936,15.08 C242.52,15.544 241.96,15.784 241.256,15.784 Z M266.76,17.224 C268.104,17.224 269.144,16.648 269.88,15.528 C270.552,14.472 270.888,13.048 270.888,11.288 C270.888,9.512 270.552,8.104 269.88,7.048 C269.144,5.912 268.104,5.352 266.76,5.352 C265.416,5.352 264.376,5.912 263.64,7.048 C262.968,8.088 262.632,9.496 262.632,11.288 C262.632,13.064 262.968,14.472 263.64,15.528 C264.376,16.648 265.416,17.224 266.76,17.224 Z M266.76,15.752 C265.816,15.752 265.16,15.224 264.776,14.2 C264.488,13.48 264.36,12.504 264.36,11.288 C264.36,10.056 264.488,9.08 264.776,8.376 C265.16,7.336 265.816,6.824 266.76,6.824 C267.688,6.824 268.36,7.336 268.744,8.376 C269.016,9.08 269.16,10.056 269.16,11.288 C269.16,12.504 269.016,13.48 268.744,14.2 C268.36,15.224 267.688,15.752 266.76,15.752 Z M280.296,17 L280.296,15.464 L274.584,15.464 C274.824,14.84 275.56,14.12 276.792,13.304 C277.928,12.536 278.712,11.928 279.16,11.464 C279.896,10.648 280.28,9.752 280.28,8.76 C280.28,7.752 279.928,6.936 279.24,6.296 C278.536,5.656 277.624,5.352 276.536,5.352 C275.32,5.352 274.328,5.752 273.592,6.584 C272.872,7.352 272.504,8.376 272.488,9.656 L274.232,9.656 C274.264,8.728 274.456,8.04 274.84,7.56 C275.208,7.064 275.752,6.824 276.472,6.824 C277.144,6.824 277.672,6.984 278.024,7.304 C278.376,7.624 278.552,8.104 278.552,8.744 C278.552,9.416 278.28,10.04 277.768,10.616 C277.448,10.952 276.904,11.384 276.136,11.928 C274.84,12.824 273.976,13.512 273.56,14.008 C272.792,14.872 272.424,15.864 272.424,17 L280.296,17 Z M285.832,17.224 C286.968,17.224 287.944,16.888 288.76,16.216 C289.624,15.464 290.072,14.504 290.072,13.32 C290.072,12.088 289.72,11.128 289.048,10.424 C288.376,9.72 287.496,9.368 286.424,9.368 C285.912,9.368 285.432,9.448 285.016,9.624 C284.552,9.784 284.152,10.04 283.8,10.408 L283.752,10.408 L284.088,7.112 L289.56,7.112 L289.56,5.576 L282.68,5.576 L282.056,11.976 L283.688,11.976 C283.912,11.56 284.216,11.256 284.632,11.064 C285.016,10.872 285.448,10.792 285.96,10.792 C286.728,10.792 287.304,11.016 287.72,11.464 C288.136,11.912 288.344,12.536 288.344,13.336 C288.344,14.072 288.104,14.648 287.624,15.096 C287.144,15.528 286.552,15.752 285.848,15.752 C285.208,15.752 284.696,15.608 284.312,15.32 C283.88,15 283.624,14.504 283.56,13.864 L281.848,13.864 C281.928,14.92 282.376,15.768 283.192,16.376 C283.928,16.936 284.808,17.224 285.832,17.224 Z M299.64,13.56 L299.64,12.152 L291.56,12.152 L291.56,13.56 L299.64,13.56 Z M305.384,17.224 C306.504,17.224 307.464,16.84 308.232,16.104 C308.984,15.368 309.368,14.424 309.368,13.288 C309.368,12.168 309.032,11.24 308.376,10.52 C307.704,9.816 306.808,9.464 305.688,9.464 C305.08,9.464 304.552,9.576 304.104,9.816 C303.608,10.056 303.208,10.424 302.888,10.936 L302.824,10.936 C302.808,10.84 302.808,10.776 302.808,10.728 C302.808,9.608 303.032,8.696 303.496,7.96 C303.96,7.176 304.584,6.792 305.384,6.792 C306.536,6.792 307.224,7.336 307.464,8.456 L309.16,8.456 C308.872,6.376 307.608,5.352 305.4,5.352 C304.088,5.352 303.032,5.928 302.264,7.096 C301.496,8.248 301.128,9.752 301.128,11.608 C301.128,13.352 301.48,14.712 302.184,15.688 C302.92,16.712 303.976,17.224 305.384,17.224 Z M305.32,15.784 C304.632,15.784 304.072,15.56 303.656,15.112 C303.224,14.664 303.016,14.072 303.016,13.336 C303.016,12.584 303.224,11.992 303.64,11.544 C304.056,11.096 304.616,10.872 305.336,10.872 C306.04,10.872 306.616,11.096 307.032,11.544 C307.448,11.96 307.656,12.552 307.656,13.288 C307.656,14.008 307.432,14.6 307,15.08 C306.584,15.544 306.024,15.784 305.32,15.784 Z M314.696,17.224 C316.008,17.224 317.048,16.632 317.832,15.48 C318.584,14.328 318.968,12.824 318.968,10.968 C318.968,9.208 318.6,7.848 317.896,6.872 C317.16,5.848 316.104,5.352 314.712,5.352 C313.576,5.352 312.632,5.72 311.864,6.472 C311.096,7.208 310.728,8.136 310.728,9.288 C310.728,10.408 311.048,11.32 311.704,12.024 C312.376,12.744 313.288,13.112 314.408,13.112 C315,13.112 315.528,12.984 315.992,12.76 C316.472,12.504 316.888,12.136 317.208,11.64 L317.272,11.64 C317.272,11.72 317.288,11.784 317.288,11.848 C317.288,12.952 317.048,13.88 316.6,14.616 C316.12,15.384 315.496,15.784 314.712,15.784 C313.56,15.784 312.856,15.224 312.632,14.12 L310.936,14.12 C311.224,16.184 312.472,17.224 314.696,17.224 Z M314.76,11.704 C314.04,11.704 313.48,11.48 313.08,11.032 C312.648,10.6 312.44,10.024 312.44,9.288 C312.44,8.552 312.648,7.96 313.08,7.496 C313.496,7.016 314.072,6.792 314.776,6.792 C315.448,6.792 316.008,7.016 316.44,7.464 C316.856,7.896 317.08,8.488 317.08,9.24 C317.08,9.976 316.872,10.584 316.456,11.032 C316.04,11.48 315.464,11.704 314.76,11.704 Z M324.296,17.224 C325.608,17.224 326.648,16.632 327.432,15.48 C328.184,14.328 328.568,12.824 328.568,10.968 C328.568,9.208 328.2,7.848 327.496,6.872 C326.76,5.848 325.704,5.352 324.312,5.352 C323.176,5.352 322.232,5.72 321.464,6.472 C320.696,7.208 320.328,8.136 320.328,9.288 C320.328,10.408 320.648,11.32 321.304,12.024 C321.976,12.744 322.888,13.112 324.008,13.112 C324.6,13.112 325.128,12.984 325.592,12.76 C326.072,12.504 326.488,12.136 326.808,11.64 L326.872,11.64 C326.872,11.72 326.888,11.784 326.888,11.848 C326.888,12.952 326.648,13.88 326.2,14.616 C325.72,15.384 325.096,15.784 324.312,15.784 C323.16,15.784 322.456,15.224 322.232,14.12 L320.536,14.12 C320.824,16.184 322.072,17.224 324.296,17.224 Z M324.36,11.704 C323.64,11.704 323.08,11.48 322.68,11.032 C322.248,10.6 322.04,10.024 322.04,9.288 C322.04,8.552 322.248,7.96 322.68,7.496 C323.096,7.016 323.672,6.792 324.376,6.792 C325.048,6.792 325.608,7.016 326.04,7.464 C326.456,7.896 326.68,8.488 326.68,9.24 C326.68,9.976 326.472,10.584 326.056,11.032 C325.64,11.48 325.064,11.704 324.36,11.704 Z M333.368,17 L337.416,6.984 L337.416,5.576 L329.736,5.576 L329.736,7.16 L335.656,7.16 L331.512,17 L333.368,17 Z M342.904,17.224 C344.12,17.224 345.128,16.872 345.896,16.2 C346.616,15.528 346.984,14.664 346.984,13.608 C346.984,12.936 346.792,12.376 346.408,11.944 C346.056,11.528 345.544,11.208 344.872,11 C346.12,10.584 346.76,9.736 346.76,8.488 C346.76,7.512 346.408,6.744 345.736,6.184 C345.032,5.624 344.12,5.352 342.968,5.352 C341.848,5.352 340.936,5.656 340.232,6.296 C339.48,6.936 339.064,7.816 338.968,8.952 L340.68,8.952 C340.744,8.248 340.984,7.72 341.368,7.368 C341.752,7.016 342.296,6.84 342.984,6.84 C343.656,6.84 344.184,6.984 344.536,7.304 C344.856,7.608 345.032,8.04 345.032,8.616 C345.032,9.192 344.84,9.64 344.488,9.944 C344.136,10.248 343.608,10.408 342.904,10.408 L342.088,10.408 L342.088,11.72 L342.92,11.72 C343.672,11.72 344.248,11.88 344.632,12.2 C345.048,12.52 345.256,13.016 345.256,13.688 C345.256,14.264 345.048,14.728 344.664,15.112 C344.216,15.528 343.624,15.752 342.888,15.752 C342.216,15.752 341.672,15.56 341.256,15.176 C340.776,14.76 340.536,14.168 340.504,13.4 L338.744,13.4 C338.84,14.68 339.288,15.656 340.088,16.328 C340.792,16.92 341.736,17.224 342.904,17.224 Z M352.456,17.224 C353.8,17.224 354.856,16.904 355.608,16.28 C356.344,15.64 356.712,14.824 356.712,13.816 C356.712,13.096 356.488,12.472 356.04,11.928 C355.656,11.416 355.176,11.096 354.632,10.968 L354.632,10.92 C355.208,10.696 355.64,10.376 355.928,9.944 C356.184,9.544 356.312,9.048 356.312,8.456 C356.312,7.608 355.992,6.888 355.352,6.312 C354.632,5.672 353.672,5.352 352.456,5.352 C351.24,5.352 350.264,5.672 349.56,6.312 C348.92,6.888 348.6,7.608 348.6,8.456 C348.6,9.048 348.728,9.544 348.984,9.944 C349.272,10.376 349.704,10.696 350.28,10.92 L350.28,10.968 C349.72,11.096 349.256,11.416 348.872,11.928 C348.424,12.472 348.2,13.096 348.2,13.816 C348.2,14.824 348.568,15.64 349.304,16.28 C350.04,16.904 351.096,17.224 352.456,17.224 Z M352.456,10.392 C351.64,10.392 351.048,10.2 350.68,9.816 C350.376,9.496 350.232,9.064 350.232,8.52 C350.232,8.04 350.408,7.624 350.776,7.304 C351.192,6.92 351.752,6.744 352.456,6.744 C353.16,6.744 353.72,6.92 354.136,7.304 C354.488,7.624 354.68,8.04 354.68,8.52 C354.68,9.064 354.52,9.496 354.232,9.816 C353.848,10.2 353.256,10.392 352.456,10.392 Z M352.456,15.816 C351.64,15.816 351.016,15.624 350.584,15.256 C350.136,14.888 349.928,14.408 349.928,13.816 C349.928,13.176 350.136,12.68 350.568,12.296 C350.984,11.88 351.624,11.688 352.456,11.688 C353.288,11.688 353.912,11.896 354.36,12.312 C354.776,12.68 354.984,13.176 354.984,13.816 C354.984,14.408 354.776,14.888 354.36,15.256 C353.896,15.624 353.256,15.816 352.456,15.816 Z M362.056,17.224 C363.4,17.224 364.456,16.904 365.208,16.28 C365.944,15.64 366.312,14.824 366.312,13.816 C366.312,13.096 366.088,12.472 365.64,11.928 C365.256,11.416 364.776,11.096 364.232,10.968 L364.232,10.92 C364.808,10.696 365.24,10.376 365.528,9.944 C365.784,9.544 365.912,9.048 365.912,8.456 C365.912,7.608 365.592,6.888 364.952,6.312 C364.232,5.672 363.272,5.352 362.056,5.352 C360.84,5.352 359.864,5.672 359.16,6.312 C358.52,6.888 358.2,7.608 358.2,8.456 C358.2,9.048 358.328,9.544 358.584,9.944 C358.872,10.376 359.304,10.696 359.88,10.92 L359.88,10.968 C359.32,11.096 358.856,11.416 358.472,11.928 C358.024,12.472 357.8,13.096 357.8,13.816 C357.8,14.824 358.168,15.64 358.904,16.28 C359.64,16.904 360.696,17.224 362.056,17.224 Z M362.056,10.392 C361.24,10.392 360.648,10.2 360.28,9.816 C359.976,9.496 359.832,9.064 359.832,8.52 C359.832,8.04 360.008,7.624 360.376,7.304 C360.792,6.92 361.352,6.744 362.056,6.744 C362.76,6.744 363.32,6.92 363.736,7.304 C364.088,7.624 364.28,8.04 364.28,8.52 C364.28,9.064 364.12,9.496 363.832,9.816 C363.448,10.2 362.856,10.392 362.056,10.392 Z M362.056,15.816 C361.24,15.816 360.616,15.624 360.184,15.256 C359.736,14.888 359.528,14.408 359.528,13.816 C359.528,13.176 359.736,12.68 360.168,12.296 C360.584,11.88 361.224,11.688 362.056,11.688 C362.888,11.688 363.512,11.896 363.96,12.312 C364.376,12.68 364.584,13.176 364.584,13.816 C364.584,14.408 364.376,14.888 363.96,15.256 C363.496,15.624 362.856,15.816 362.056,15.816 Z M370.984,17 L375.032,6.984 L375.032,5.576 L367.352,5.576 L367.352,7.16 L373.272,7.16 L369.128,17 L370.984,17 Z" id="025-69973885025-69973886025-69973887" fill="#333333" fill-rule="nonzero"></path>
                <rect x="0" y="0" width="380" height="22"></rect>
            </g>
        </g>
    </g>
</svg>