<?xml version="1.0" encoding="UTF-8"?>
<svg width="330px" height="24px" viewBox="0 0 330 24" version="1.1" xmlns="http://www.w3.org/2000/svg" xmlns:xlink="http://www.w3.org/1999/xlink">
    <!-- Generator: Sketch 61 (89581) - https://sketch.com -->
    <title>关于我们-tel</title>
    <desc>Created with Sketch.</desc>
    <g id="设计稿" stroke="none" stroke-width="1" fill="none" fill-rule="evenodd">
        <g id="关于我们" transform="translate(-360.000000, -1453.000000)">
            <g id="联系我们" transform="translate(0.000000, 1233.000000)">
                <g id="编组-6" transform="translate(360.000000, 180.000000)">
                    <g id="关于我们-tel" transform="translate(0.000000, 40.000000)">
                        <path d="M4.2,17.196 C5.39,17.196 6.286,16.664 6.902,15.614 C7.434,14.718 7.7,13.514 7.7,12.002 C7.7,10.49 7.434,9.286 6.902,8.39 C6.286,7.326 5.39,6.808 4.2,6.808 C2.996,6.808 2.1,7.326 1.498,8.39 C0.966,9.286 0.7,10.49 0.7,12.002 C0.7,13.514 0.966,14.718 1.498,15.614 C2.1,16.664 2.996,17.196 4.2,17.196 Z M4.2,16.216 C3.304,16.216 2.66,15.726 2.268,14.774 C1.988,14.088 1.848,13.164 1.848,12.002 C1.848,10.826 1.988,9.902 2.268,9.23 C2.66,8.264 3.304,7.788 4.2,7.788 C5.096,7.788 5.74,8.264 6.132,9.23 C6.412,9.902 6.566,10.826 6.566,12.002 C6.566,13.164 6.412,14.088 6.132,14.774 C5.74,15.726 5.096,16.216 4.2,16.216 Z M15.932,17 L15.932,15.978 L10.682,15.978 C10.864,15.306 11.592,14.536 12.866,13.682 C13.902,12.982 14.588,12.436 14.938,12.072 C15.582,11.372 15.918,10.588 15.918,9.72 C15.918,8.852 15.61,8.138 15.022,7.606 C14.42,7.074 13.664,6.808 12.74,6.808 C11.732,6.808 10.906,7.144 10.29,7.816 C9.674,8.474 9.352,9.37 9.352,10.49 L10.5,10.49 C10.514,9.608 10.724,8.936 11.116,8.488 C11.48,8.012 12.012,7.788 12.698,7.788 C13.342,7.788 13.86,7.956 14.224,8.292 C14.588,8.628 14.77,9.09 14.77,9.706 C14.77,10.35 14.504,10.952 14,11.498 C13.734,11.778 13.216,12.184 12.432,12.744 C11.368,13.472 10.654,14.074 10.262,14.522 C9.59,15.264 9.268,16.09 9.268,17 L15.932,17 Z M20.916,17.196 C21.896,17.196 22.736,16.888 23.408,16.286 C24.122,15.642 24.486,14.816 24.486,13.808 C24.486,12.73 24.178,11.89 23.59,11.274 C23.002,10.672 22.232,10.378 21.28,10.378 C20.818,10.378 20.398,10.448 20.006,10.616 C19.572,10.784 19.208,11.036 18.928,11.372 L18.872,11.372 L19.208,8.026 L24.08,8.026 L24.08,7.004 L18.27,7.004 L17.738,12.52 L18.83,12.52 C19.026,12.128 19.334,11.82 19.726,11.624 C20.104,11.414 20.524,11.316 21,11.316 C21.728,11.316 22.302,11.526 22.708,11.974 C23.128,12.408 23.352,13.024 23.352,13.822 C23.352,14.522 23.114,15.096 22.666,15.544 C22.204,15.992 21.63,16.216 20.93,16.216 C20.314,16.216 19.796,16.062 19.404,15.768 C18.956,15.432 18.704,14.942 18.648,14.312 L17.514,14.312 C17.584,15.222 17.962,15.95 18.662,16.482 C19.278,16.958 20.034,17.196 20.916,17.196 Z M32.97,13.85 L32.97,12.898 L25.9,12.898 L25.9,13.85 L32.97,13.85 Z M37.996,17.196 C38.976,17.196 39.774,16.86 40.418,16.216 C41.048,15.572 41.37,14.746 41.37,13.766 C41.37,12.786 41.076,12.002 40.502,11.386 C39.914,10.77 39.144,10.462 38.192,10.462 C37.604,10.462 37.086,10.602 36.638,10.896 C36.162,11.176 35.812,11.582 35.56,12.1 L35.504,12.1 C35.49,11.918 35.49,11.792 35.49,11.736 C35.49,10.602 35.7,9.664 36.148,8.936 C36.596,8.152 37.212,7.774 37.996,7.774 C39.158,7.774 39.844,8.334 40.068,9.482 L41.202,9.482 C40.922,7.69 39.858,6.808 38.01,6.808 C36.876,6.808 35.98,7.326 35.322,8.376 C34.692,9.37 34.384,10.672 34.384,12.268 C34.384,13.794 34.664,14.984 35.252,15.838 C35.868,16.734 36.778,17.196 37.996,17.196 Z M37.968,16.23 C37.268,16.23 36.722,15.992 36.302,15.516 C35.882,15.068 35.686,14.494 35.686,13.794 C35.686,13.094 35.896,12.534 36.33,12.086 C36.764,11.638 37.31,11.414 37.968,11.414 C38.654,11.414 39.2,11.624 39.62,12.072 C40.026,12.492 40.236,13.052 40.236,13.766 C40.236,14.48 40.026,15.068 39.606,15.544 C39.186,15.992 38.64,16.23 37.968,16.23 Z M46.144,17.196 C47.264,17.196 48.16,16.664 48.832,15.628 C49.448,14.62 49.77,13.332 49.77,11.736 C49.77,10.196 49.476,8.992 48.888,8.152 C48.272,7.256 47.362,6.808 46.158,6.808 C45.178,6.808 44.366,7.13 43.736,7.788 C43.092,8.432 42.784,9.244 42.784,10.238 C42.784,11.204 43.064,11.988 43.638,12.59 C44.226,13.22 44.996,13.542 45.962,13.542 C46.55,13.542 47.068,13.388 47.516,13.108 C47.978,12.814 48.342,12.408 48.594,11.904 L48.65,11.904 C48.65,12.072 48.664,12.198 48.664,12.268 C48.664,13.388 48.44,14.326 48.006,15.068 C47.544,15.838 46.928,16.23 46.158,16.23 C44.982,16.23 44.296,15.656 44.086,14.522 L42.952,14.522 C43.218,16.3 44.282,17.196 46.144,17.196 Z M46.186,12.59 C45.486,12.59 44.94,12.366 44.534,11.932 C44.114,11.512 43.918,10.938 43.918,10.238 C43.918,9.51 44.114,8.922 44.534,8.46 C44.954,7.998 45.5,7.774 46.186,7.774 C46.872,7.774 47.432,8.012 47.852,8.488 C48.258,8.936 48.468,9.51 48.468,10.21 C48.468,10.896 48.244,11.47 47.824,11.918 C47.376,12.366 46.83,12.59 46.186,12.59 Z M54.544,17.196 C55.664,17.196 56.56,16.664 57.232,15.628 C57.848,14.62 58.17,13.332 58.17,11.736 C58.17,10.196 57.876,8.992 57.288,8.152 C56.672,7.256 55.762,6.808 54.558,6.808 C53.578,6.808 52.766,7.13 52.136,7.788 C51.492,8.432 51.184,9.244 51.184,10.238 C51.184,11.204 51.464,11.988 52.038,12.59 C52.626,13.22 53.396,13.542 54.362,13.542 C54.95,13.542 55.468,13.388 55.916,13.108 C56.378,12.814 56.742,12.408 56.994,11.904 L57.05,11.904 C57.05,12.072 57.064,12.198 57.064,12.268 C57.064,13.388 56.84,14.326 56.406,15.068 C55.944,15.838 55.328,16.23 54.558,16.23 C53.382,16.23 52.696,15.656 52.486,14.522 L51.352,14.522 C51.618,16.3 52.682,17.196 54.544,17.196 Z M54.586,12.59 C53.886,12.59 53.34,12.366 52.934,11.932 C52.514,11.512 52.318,10.938 52.318,10.238 C52.318,9.51 52.514,8.922 52.934,8.46 C53.354,7.998 53.9,7.774 54.586,7.774 C55.272,7.774 55.832,8.012 56.252,8.488 C56.658,8.936 56.868,9.51 56.868,10.21 C56.868,10.896 56.644,11.47 56.224,11.918 C55.776,12.366 55.23,12.59 54.586,12.59 Z M62.23,17 L65.912,7.942 L65.912,7.004 L59.346,7.004 L59.346,8.054 L64.736,8.054 L61.012,17 L62.23,17 Z M70.756,17.196 C71.792,17.196 72.632,16.902 73.276,16.314 C73.906,15.74 74.228,14.998 74.228,14.088 C74.228,13.5 74.06,13.01 73.724,12.618 C73.416,12.226 72.968,11.946 72.38,11.764 C73.472,11.4 74.018,10.644 74.018,9.524 C74.018,8.684 73.724,8.026 73.15,7.536 C72.562,7.046 71.778,6.808 70.826,6.808 C69.874,6.808 69.104,7.074 68.516,7.62 C67.9,8.166 67.536,8.922 67.452,9.888 L68.586,9.888 C68.656,9.216 68.88,8.698 69.272,8.334 C69.65,7.97 70.168,7.802 70.84,7.802 C71.484,7.802 72.002,7.956 72.366,8.292 C72.702,8.6 72.884,9.034 72.884,9.594 C72.884,10.154 72.702,10.588 72.352,10.896 C72.002,11.19 71.498,11.344 70.826,11.344 L70.056,11.344 L70.056,12.24 L70.868,12.24 C71.568,12.24 72.1,12.394 72.492,12.73 C72.884,13.066 73.08,13.528 73.08,14.13 C73.08,14.718 72.87,15.208 72.478,15.6 C72.044,16.006 71.47,16.216 70.756,16.216 C70.126,16.216 69.608,16.034 69.188,15.698 C68.698,15.292 68.432,14.69 68.404,13.906 L67.242,13.906 C67.326,15.026 67.718,15.88 68.432,16.468 C69.034,16.944 69.804,17.196 70.756,17.196 Z M79.128,17.196 C80.276,17.196 81.172,16.916 81.816,16.37 C82.432,15.838 82.74,15.124 82.74,14.242 C82.74,13.598 82.544,13.038 82.152,12.562 C81.788,12.114 81.34,11.82 80.822,11.694 L80.822,11.666 C81.34,11.484 81.732,11.19 82.012,10.798 C82.264,10.434 82.39,9.986 82.39,9.454 C82.39,8.726 82.11,8.11 81.578,7.62 C80.99,7.074 80.164,6.808 79.128,6.808 C78.078,6.808 77.266,7.074 76.678,7.62 C76.132,8.11 75.866,8.726 75.866,9.454 C75.866,9.986 75.992,10.434 76.244,10.798 C76.51,11.19 76.902,11.484 77.434,11.666 L77.434,11.694 C76.902,11.82 76.468,12.114 76.104,12.562 C75.712,13.038 75.516,13.598 75.516,14.242 C75.516,15.124 75.824,15.838 76.44,16.37 C77.07,16.916 77.966,17.196 79.128,17.196 Z M79.128,11.288 C78.344,11.288 77.77,11.092 77.406,10.728 C77.098,10.42 76.944,10 76.944,9.496 C76.944,9.006 77.112,8.6 77.462,8.292 C77.854,7.928 78.414,7.746 79.128,7.746 C79.828,7.746 80.388,7.928 80.794,8.292 C81.13,8.6 81.312,9.006 81.312,9.496 C81.312,10 81.158,10.42 80.85,10.728 C80.472,11.092 79.898,11.288 79.128,11.288 Z M79.128,16.258 C78.316,16.258 77.686,16.062 77.266,15.684 C76.846,15.32 76.65,14.83 76.65,14.242 C76.65,13.64 76.846,13.15 77.266,12.786 C77.7,12.38 78.316,12.184 79.128,12.184 C79.926,12.184 80.556,12.38 81.004,12.786 C81.396,13.15 81.606,13.64 81.606,14.242 C81.606,14.83 81.396,15.306 81.004,15.67 C80.556,16.062 79.94,16.258 79.128,16.258 Z M87.528,17.196 C88.676,17.196 89.572,16.916 90.216,16.37 C90.832,15.838 91.14,15.124 91.14,14.242 C91.14,13.598 90.944,13.038 90.552,12.562 C90.188,12.114 89.74,11.82 89.222,11.694 L89.222,11.666 C89.74,11.484 90.132,11.19 90.412,10.798 C90.664,10.434 90.79,9.986 90.79,9.454 C90.79,8.726 90.51,8.11 89.978,7.62 C89.39,7.074 88.564,6.808 87.528,6.808 C86.478,6.808 85.666,7.074 85.078,7.62 C84.532,8.11 84.266,8.726 84.266,9.454 C84.266,9.986 84.392,10.434 84.644,10.798 C84.91,11.19 85.302,11.484 85.834,11.666 L85.834,11.694 C85.302,11.82 84.868,12.114 84.504,12.562 C84.112,13.038 83.916,13.598 83.916,14.242 C83.916,15.124 84.224,15.838 84.84,16.37 C85.47,16.916 86.366,17.196 87.528,17.196 Z M87.528,11.288 C86.744,11.288 86.17,11.092 85.806,10.728 C85.498,10.42 85.344,10 85.344,9.496 C85.344,9.006 85.512,8.6 85.862,8.292 C86.254,7.928 86.814,7.746 87.528,7.746 C88.228,7.746 88.788,7.928 89.194,8.292 C89.53,8.6 89.712,9.006 89.712,9.496 C89.712,10 89.558,10.42 89.25,10.728 C88.872,11.092 88.298,11.288 87.528,11.288 Z M87.528,16.258 C86.716,16.258 86.086,16.062 85.666,15.684 C85.246,15.32 85.05,14.83 85.05,14.242 C85.05,13.64 85.246,13.15 85.666,12.786 C86.1,12.38 86.716,12.184 87.528,12.184 C88.326,12.184 88.956,12.38 89.404,12.786 C89.796,13.15 90.006,13.64 90.006,14.242 C90.006,14.83 89.796,15.306 89.404,15.67 C88.956,16.062 88.34,16.258 87.528,16.258 Z M95.844,17.196 C96.824,17.196 97.664,16.888 98.336,16.286 C99.05,15.642 99.414,14.816 99.414,13.808 C99.414,12.73 99.106,11.89 98.518,11.274 C97.93,10.672 97.16,10.378 96.208,10.378 C95.746,10.378 95.326,10.448 94.934,10.616 C94.5,10.784 94.136,11.036 93.856,11.372 L93.8,11.372 L94.136,8.026 L99.008,8.026 L99.008,7.004 L93.198,7.004 L92.666,12.52 L93.758,12.52 C93.954,12.128 94.262,11.82 94.654,11.624 C95.032,11.414 95.452,11.316 95.928,11.316 C96.656,11.316 97.23,11.526 97.636,11.974 C98.056,12.408 98.28,13.024 98.28,13.822 C98.28,14.522 98.042,15.096 97.594,15.544 C97.132,15.992 96.558,16.216 95.858,16.216 C95.242,16.216 94.724,16.062 94.332,15.768 C93.884,15.432 93.632,14.942 93.576,14.312 L92.442,14.312 C92.512,15.222 92.89,15.95 93.59,16.482 C94.206,16.958 94.962,17.196 95.844,17.196 Z M118.314,17.196 C119.504,17.196 120.4,16.664 121.016,15.614 C121.548,14.718 121.814,13.514 121.814,12.002 C121.814,10.49 121.548,9.286 121.016,8.39 C120.4,7.326 119.504,6.808 118.314,6.808 C117.11,6.808 116.214,7.326 115.612,8.39 C115.08,9.286 114.814,10.49 114.814,12.002 C114.814,13.514 115.08,14.718 115.612,15.614 C116.214,16.664 117.11,17.196 118.314,17.196 Z M118.314,16.216 C117.418,16.216 116.774,15.726 116.382,14.774 C116.102,14.088 115.962,13.164 115.962,12.002 C115.962,10.826 116.102,9.902 116.382,9.23 C116.774,8.264 117.418,7.788 118.314,7.788 C119.21,7.788 119.854,8.264 120.246,9.23 C120.526,9.902 120.68,10.826 120.68,12.002 C120.68,13.164 120.526,14.088 120.246,14.774 C119.854,15.726 119.21,16.216 118.314,16.216 Z M130.046,17 L130.046,15.978 L124.796,15.978 C124.978,15.306 125.706,14.536 126.98,13.682 C128.016,12.982 128.702,12.436 129.052,12.072 C129.696,11.372 130.032,10.588 130.032,9.72 C130.032,8.852 129.724,8.138 129.136,7.606 C128.534,7.074 127.778,6.808 126.854,6.808 C125.846,6.808 125.02,7.144 124.404,7.816 C123.788,8.474 123.466,9.37 123.466,10.49 L124.614,10.49 C124.628,9.608 124.838,8.936 125.23,8.488 C125.594,8.012 126.126,7.788 126.812,7.788 C127.456,7.788 127.974,7.956 128.338,8.292 C128.702,8.628 128.884,9.09 128.884,9.706 C128.884,10.35 128.618,10.952 128.114,11.498 C127.848,11.778 127.33,12.184 126.546,12.744 C125.482,13.472 124.768,14.074 124.376,14.522 C123.704,15.264 123.382,16.09 123.382,17 L130.046,17 Z M135.03,17.196 C136.01,17.196 136.85,16.888 137.522,16.286 C138.236,15.642 138.6,14.816 138.6,13.808 C138.6,12.73 138.292,11.89 137.704,11.274 C137.116,10.672 136.346,10.378 135.394,10.378 C134.932,10.378 134.512,10.448 134.12,10.616 C133.686,10.784 133.322,11.036 133.042,11.372 L132.986,11.372 L133.322,8.026 L138.194,8.026 L138.194,7.004 L132.384,7.004 L131.852,12.52 L132.944,12.52 C133.14,12.128 133.448,11.82 133.84,11.624 C134.218,11.414 134.638,11.316 135.114,11.316 C135.842,11.316 136.416,11.526 136.822,11.974 C137.242,12.408 137.466,13.024 137.466,13.822 C137.466,14.522 137.228,15.096 136.78,15.544 C136.318,15.992 135.744,16.216 135.044,16.216 C134.428,16.216 133.91,16.062 133.518,15.768 C133.07,15.432 132.818,14.942 132.762,14.312 L131.628,14.312 C131.698,15.222 132.076,15.95 132.776,16.482 C133.392,16.958 134.148,17.196 135.03,17.196 Z M147.084,13.85 L147.084,12.898 L140.014,12.898 L140.014,13.85 L147.084,13.85 Z M152.11,17.196 C153.09,17.196 153.888,16.86 154.532,16.216 C155.162,15.572 155.484,14.746 155.484,13.766 C155.484,12.786 155.19,12.002 154.616,11.386 C154.028,10.77 153.258,10.462 152.306,10.462 C151.718,10.462 151.2,10.602 150.752,10.896 C150.276,11.176 149.926,11.582 149.674,12.1 L149.618,12.1 C149.604,11.918 149.604,11.792 149.604,11.736 C149.604,10.602 149.814,9.664 150.262,8.936 C150.71,8.152 151.326,7.774 152.11,7.774 C153.272,7.774 153.958,8.334 154.182,9.482 L155.316,9.482 C155.036,7.69 153.972,6.808 152.124,6.808 C150.99,6.808 150.094,7.326 149.436,8.376 C148.806,9.37 148.498,10.672 148.498,12.268 C148.498,13.794 148.778,14.984 149.366,15.838 C149.982,16.734 150.892,17.196 152.11,17.196 Z M152.082,16.23 C151.382,16.23 150.836,15.992 150.416,15.516 C149.996,15.068 149.8,14.494 149.8,13.794 C149.8,13.094 150.01,12.534 150.444,12.086 C150.878,11.638 151.424,11.414 152.082,11.414 C152.768,11.414 153.314,11.624 153.734,12.072 C154.14,12.492 154.35,13.052 154.35,13.766 C154.35,14.48 154.14,15.068 153.72,15.544 C153.3,15.992 152.754,16.23 152.082,16.23 Z M160.258,17.196 C161.378,17.196 162.274,16.664 162.946,15.628 C163.562,14.62 163.884,13.332 163.884,11.736 C163.884,10.196 163.59,8.992 163.002,8.152 C162.386,7.256 161.476,6.808 160.272,6.808 C159.292,6.808 158.48,7.13 157.85,7.788 C157.206,8.432 156.898,9.244 156.898,10.238 C156.898,11.204 157.178,11.988 157.752,12.59 C158.34,13.22 159.11,13.542 160.076,13.542 C160.664,13.542 161.182,13.388 161.63,13.108 C162.092,12.814 162.456,12.408 162.708,11.904 L162.764,11.904 C162.764,12.072 162.778,12.198 162.778,12.268 C162.778,13.388 162.554,14.326 162.12,15.068 C161.658,15.838 161.042,16.23 160.272,16.23 C159.096,16.23 158.41,15.656 158.2,14.522 L157.066,14.522 C157.332,16.3 158.396,17.196 160.258,17.196 Z M160.3,12.59 C159.6,12.59 159.054,12.366 158.648,11.932 C158.228,11.512 158.032,10.938 158.032,10.238 C158.032,9.51 158.228,8.922 158.648,8.46 C159.068,7.998 159.614,7.774 160.3,7.774 C160.986,7.774 161.546,8.012 161.966,8.488 C162.372,8.936 162.582,9.51 162.582,10.21 C162.582,10.896 162.358,11.47 161.938,11.918 C161.49,12.366 160.944,12.59 160.3,12.59 Z M168.658,17.196 C169.778,17.196 170.674,16.664 171.346,15.628 C171.962,14.62 172.284,13.332 172.284,11.736 C172.284,10.196 171.99,8.992 171.402,8.152 C170.786,7.256 169.876,6.808 168.672,6.808 C167.692,6.808 166.88,7.13 166.25,7.788 C165.606,8.432 165.298,9.244 165.298,10.238 C165.298,11.204 165.578,11.988 166.152,12.59 C166.74,13.22 167.51,13.542 168.476,13.542 C169.064,13.542 169.582,13.388 170.03,13.108 C170.492,12.814 170.856,12.408 171.108,11.904 L171.164,11.904 C171.164,12.072 171.178,12.198 171.178,12.268 C171.178,13.388 170.954,14.326 170.52,15.068 C170.058,15.838 169.442,16.23 168.672,16.23 C167.496,16.23 166.81,15.656 166.6,14.522 L165.466,14.522 C165.732,16.3 166.796,17.196 168.658,17.196 Z M168.7,12.59 C168,12.59 167.454,12.366 167.048,11.932 C166.628,11.512 166.432,10.938 166.432,10.238 C166.432,9.51 166.628,8.922 167.048,8.46 C167.468,7.998 168.014,7.774 168.7,7.774 C169.386,7.774 169.946,8.012 170.366,8.488 C170.772,8.936 170.982,9.51 170.982,10.21 C170.982,10.896 170.758,11.47 170.338,11.918 C169.89,12.366 169.344,12.59 168.7,12.59 Z M176.344,17 L180.026,7.942 L180.026,7.004 L173.46,7.004 L173.46,8.054 L178.85,8.054 L175.126,17 L176.344,17 Z M184.87,17.196 C185.906,17.196 186.746,16.902 187.39,16.314 C188.02,15.74 188.342,14.998 188.342,14.088 C188.342,13.5 188.174,13.01 187.838,12.618 C187.53,12.226 187.082,11.946 186.494,11.764 C187.586,11.4 188.132,10.644 188.132,9.524 C188.132,8.684 187.838,8.026 187.264,7.536 C186.676,7.046 185.892,6.808 184.94,6.808 C183.988,6.808 183.218,7.074 182.63,7.62 C182.014,8.166 181.65,8.922 181.566,9.888 L182.7,9.888 C182.77,9.216 182.994,8.698 183.386,8.334 C183.764,7.97 184.282,7.802 184.954,7.802 C185.598,7.802 186.116,7.956 186.48,8.292 C186.816,8.6 186.998,9.034 186.998,9.594 C186.998,10.154 186.816,10.588 186.466,10.896 C186.116,11.19 185.612,11.344 184.94,11.344 L184.17,11.344 L184.17,12.24 L184.982,12.24 C185.682,12.24 186.214,12.394 186.606,12.73 C186.998,13.066 187.194,13.528 187.194,14.13 C187.194,14.718 186.984,15.208 186.592,15.6 C186.158,16.006 185.584,16.216 184.87,16.216 C184.24,16.216 183.722,16.034 183.302,15.698 C182.812,15.292 182.546,14.69 182.518,13.906 L181.356,13.906 C181.44,15.026 181.832,15.88 182.546,16.468 C183.148,16.944 183.918,17.196 184.87,17.196 Z M193.242,17.196 C194.39,17.196 195.286,16.916 195.93,16.37 C196.546,15.838 196.854,15.124 196.854,14.242 C196.854,13.598 196.658,13.038 196.266,12.562 C195.902,12.114 195.454,11.82 194.936,11.694 L194.936,11.666 C195.454,11.484 195.846,11.19 196.126,10.798 C196.378,10.434 196.504,9.986 196.504,9.454 C196.504,8.726 196.224,8.11 195.692,7.62 C195.104,7.074 194.278,6.808 193.242,6.808 C192.192,6.808 191.38,7.074 190.792,7.62 C190.246,8.11 189.98,8.726 189.98,9.454 C189.98,9.986 190.106,10.434 190.358,10.798 C190.624,11.19 191.016,11.484 191.548,11.666 L191.548,11.694 C191.016,11.82 190.582,12.114 190.218,12.562 C189.826,13.038 189.63,13.598 189.63,14.242 C189.63,15.124 189.938,15.838 190.554,16.37 C191.184,16.916 192.08,17.196 193.242,17.196 Z M193.242,11.288 C192.458,11.288 191.884,11.092 191.52,10.728 C191.212,10.42 191.058,10 191.058,9.496 C191.058,9.006 191.226,8.6 191.576,8.292 C191.968,7.928 192.528,7.746 193.242,7.746 C193.942,7.746 194.502,7.928 194.908,8.292 C195.244,8.6 195.426,9.006 195.426,9.496 C195.426,10 195.272,10.42 194.964,10.728 C194.586,11.092 194.012,11.288 193.242,11.288 Z M193.242,16.258 C192.43,16.258 191.8,16.062 191.38,15.684 C190.96,15.32 190.764,14.83 190.764,14.242 C190.764,13.64 190.96,13.15 191.38,12.786 C191.814,12.38 192.43,12.184 193.242,12.184 C194.04,12.184 194.67,12.38 195.118,12.786 C195.51,13.15 195.72,13.64 195.72,14.242 C195.72,14.83 195.51,15.306 195.118,15.67 C194.67,16.062 194.054,16.258 193.242,16.258 Z M201.642,17.196 C202.79,17.196 203.686,16.916 204.33,16.37 C204.946,15.838 205.254,15.124 205.254,14.242 C205.254,13.598 205.058,13.038 204.666,12.562 C204.302,12.114 203.854,11.82 203.336,11.694 L203.336,11.666 C203.854,11.484 204.246,11.19 204.526,10.798 C204.778,10.434 204.904,9.986 204.904,9.454 C204.904,8.726 204.624,8.11 204.092,7.62 C203.504,7.074 202.678,6.808 201.642,6.808 C200.592,6.808 199.78,7.074 199.192,7.62 C198.646,8.11 198.38,8.726 198.38,9.454 C198.38,9.986 198.506,10.434 198.758,10.798 C199.024,11.19 199.416,11.484 199.948,11.666 L199.948,11.694 C199.416,11.82 198.982,12.114 198.618,12.562 C198.226,13.038 198.03,13.598 198.03,14.242 C198.03,15.124 198.338,15.838 198.954,16.37 C199.584,16.916 200.48,17.196 201.642,17.196 Z M201.642,11.288 C200.858,11.288 200.284,11.092 199.92,10.728 C199.612,10.42 199.458,10 199.458,9.496 C199.458,9.006 199.626,8.6 199.976,8.292 C200.368,7.928 200.928,7.746 201.642,7.746 C202.342,7.746 202.902,7.928 203.308,8.292 C203.644,8.6 203.826,9.006 203.826,9.496 C203.826,10 203.672,10.42 203.364,10.728 C202.986,11.092 202.412,11.288 201.642,11.288 Z M201.642,16.258 C200.83,16.258 200.2,16.062 199.78,15.684 C199.36,15.32 199.164,14.83 199.164,14.242 C199.164,13.64 199.36,13.15 199.78,12.786 C200.214,12.38 200.83,12.184 201.642,12.184 C202.44,12.184 203.07,12.38 203.518,12.786 C203.91,13.15 204.12,13.64 204.12,14.242 C204.12,14.83 203.91,15.306 203.518,15.67 C203.07,16.062 202.454,16.258 201.642,16.258 Z M210.168,17.196 C211.148,17.196 211.946,16.86 212.59,16.216 C213.22,15.572 213.542,14.746 213.542,13.766 C213.542,12.786 213.248,12.002 212.674,11.386 C212.086,10.77 211.316,10.462 210.364,10.462 C209.776,10.462 209.258,10.602 208.81,10.896 C208.334,11.176 207.984,11.582 207.732,12.1 L207.676,12.1 C207.662,11.918 207.662,11.792 207.662,11.736 C207.662,10.602 207.872,9.664 208.32,8.936 C208.768,8.152 209.384,7.774 210.168,7.774 C211.33,7.774 212.016,8.334 212.24,9.482 L213.374,9.482 C213.094,7.69 212.03,6.808 210.182,6.808 C209.048,6.808 208.152,7.326 207.494,8.376 C206.864,9.37 206.556,10.672 206.556,12.268 C206.556,13.794 206.836,14.984 207.424,15.838 C208.04,16.734 208.95,17.196 210.168,17.196 Z M210.14,16.23 C209.44,16.23 208.894,15.992 208.474,15.516 C208.054,15.068 207.858,14.494 207.858,13.794 C207.858,13.094 208.068,12.534 208.502,12.086 C208.936,11.638 209.482,11.414 210.14,11.414 C210.826,11.414 211.372,11.624 211.792,12.072 C212.198,12.492 212.408,13.052 212.408,13.766 C212.408,14.48 212.198,15.068 211.778,15.544 C211.358,15.992 210.812,16.23 210.14,16.23 Z M232.428,17.196 C233.618,17.196 234.514,16.664 235.13,15.614 C235.662,14.718 235.928,13.514 235.928,12.002 C235.928,10.49 235.662,9.286 235.13,8.39 C234.514,7.326 233.618,6.808 232.428,6.808 C231.224,6.808 230.328,7.326 229.726,8.39 C229.194,9.286 228.928,10.49 228.928,12.002 C228.928,13.514 229.194,14.718 229.726,15.614 C230.328,16.664 231.224,17.196 232.428,17.196 Z M232.428,16.216 C231.532,16.216 230.888,15.726 230.496,14.774 C230.216,14.088 230.076,13.164 230.076,12.002 C230.076,10.826 230.216,9.902 230.496,9.23 C230.888,8.264 231.532,7.788 232.428,7.788 C233.324,7.788 233.968,8.264 234.36,9.23 C234.64,9.902 234.794,10.826 234.794,12.002 C234.794,13.164 234.64,14.088 234.36,14.774 C233.968,15.726 233.324,16.216 232.428,16.216 Z M244.16,17 L244.16,15.978 L238.91,15.978 C239.092,15.306 239.82,14.536 241.094,13.682 C242.13,12.982 242.816,12.436 243.166,12.072 C243.81,11.372 244.146,10.588 244.146,9.72 C244.146,8.852 243.838,8.138 243.25,7.606 C242.648,7.074 241.892,6.808 240.968,6.808 C239.96,6.808 239.134,7.144 238.518,7.816 C237.902,8.474 237.58,9.37 237.58,10.49 L238.728,10.49 C238.742,9.608 238.952,8.936 239.344,8.488 C239.708,8.012 240.24,7.788 240.926,7.788 C241.57,7.788 242.088,7.956 242.452,8.292 C242.816,8.628 242.998,9.09 242.998,9.706 C242.998,10.35 242.732,10.952 242.228,11.498 C241.962,11.778 241.444,12.184 240.66,12.744 C239.596,13.472 238.882,14.074 238.49,14.522 C237.818,15.264 237.496,16.09 237.496,17 L244.16,17 Z M249.144,17.196 C250.124,17.196 250.964,16.888 251.636,16.286 C252.35,15.642 252.714,14.816 252.714,13.808 C252.714,12.73 252.406,11.89 251.818,11.274 C251.23,10.672 250.46,10.378 249.508,10.378 C249.046,10.378 248.626,10.448 248.234,10.616 C247.8,10.784 247.436,11.036 247.156,11.372 L247.1,11.372 L247.436,8.026 L252.308,8.026 L252.308,7.004 L246.498,7.004 L245.966,12.52 L247.058,12.52 C247.254,12.128 247.562,11.82 247.954,11.624 C248.332,11.414 248.752,11.316 249.228,11.316 C249.956,11.316 250.53,11.526 250.936,11.974 C251.356,12.408 251.58,13.024 251.58,13.822 C251.58,14.522 251.342,15.096 250.894,15.544 C250.432,15.992 249.858,16.216 249.158,16.216 C248.542,16.216 248.024,16.062 247.632,15.768 C247.184,15.432 246.932,14.942 246.876,14.312 L245.742,14.312 C245.812,15.222 246.19,15.95 246.89,16.482 C247.506,16.958 248.262,17.196 249.144,17.196 Z M261.198,13.85 L261.198,12.898 L254.128,12.898 L254.128,13.85 L261.198,13.85 Z M266.224,17.196 C267.204,17.196 268.002,16.86 268.646,16.216 C269.276,15.572 269.598,14.746 269.598,13.766 C269.598,12.786 269.304,12.002 268.73,11.386 C268.142,10.77 267.372,10.462 266.42,10.462 C265.832,10.462 265.314,10.602 264.866,10.896 C264.39,11.176 264.04,11.582 263.788,12.1 L263.732,12.1 C263.718,11.918 263.718,11.792 263.718,11.736 C263.718,10.602 263.928,9.664 264.376,8.936 C264.824,8.152 265.44,7.774 266.224,7.774 C267.386,7.774 268.072,8.334 268.296,9.482 L269.43,9.482 C269.15,7.69 268.086,6.808 266.238,6.808 C265.104,6.808 264.208,7.326 263.55,8.376 C262.92,9.37 262.612,10.672 262.612,12.268 C262.612,13.794 262.892,14.984 263.48,15.838 C264.096,16.734 265.006,17.196 266.224,17.196 Z M266.196,16.23 C265.496,16.23 264.95,15.992 264.53,15.516 C264.11,15.068 263.914,14.494 263.914,13.794 C263.914,13.094 264.124,12.534 264.558,12.086 C264.992,11.638 265.538,11.414 266.196,11.414 C266.882,11.414 267.428,11.624 267.848,12.072 C268.254,12.492 268.464,13.052 268.464,13.766 C268.464,14.48 268.254,15.068 267.834,15.544 C267.414,15.992 266.868,16.23 266.196,16.23 Z M274.372,17.196 C275.492,17.196 276.388,16.664 277.06,15.628 C277.676,14.62 277.998,13.332 277.998,11.736 C277.998,10.196 277.704,8.992 277.116,8.152 C276.5,7.256 275.59,6.808 274.386,6.808 C273.406,6.808 272.594,7.13 271.964,7.788 C271.32,8.432 271.012,9.244 271.012,10.238 C271.012,11.204 271.292,11.988 271.866,12.59 C272.454,13.22 273.224,13.542 274.19,13.542 C274.778,13.542 275.296,13.388 275.744,13.108 C276.206,12.814 276.57,12.408 276.822,11.904 L276.878,11.904 C276.878,12.072 276.892,12.198 276.892,12.268 C276.892,13.388 276.668,14.326 276.234,15.068 C275.772,15.838 275.156,16.23 274.386,16.23 C273.21,16.23 272.524,15.656 272.314,14.522 L271.18,14.522 C271.446,16.3 272.51,17.196 274.372,17.196 Z M274.414,12.59 C273.714,12.59 273.168,12.366 272.762,11.932 C272.342,11.512 272.146,10.938 272.146,10.238 C272.146,9.51 272.342,8.922 272.762,8.46 C273.182,7.998 273.728,7.774 274.414,7.774 C275.1,7.774 275.66,8.012 276.08,8.488 C276.486,8.936 276.696,9.51 276.696,10.21 C276.696,10.896 276.472,11.47 276.052,11.918 C275.604,12.366 275.058,12.59 274.414,12.59 Z M282.772,17.196 C283.892,17.196 284.788,16.664 285.46,15.628 C286.076,14.62 286.398,13.332 286.398,11.736 C286.398,10.196 286.104,8.992 285.516,8.152 C284.9,7.256 283.99,6.808 282.786,6.808 C281.806,6.808 280.994,7.13 280.364,7.788 C279.72,8.432 279.412,9.244 279.412,10.238 C279.412,11.204 279.692,11.988 280.266,12.59 C280.854,13.22 281.624,13.542 282.59,13.542 C283.178,13.542 283.696,13.388 284.144,13.108 C284.606,12.814 284.97,12.408 285.222,11.904 L285.278,11.904 C285.278,12.072 285.292,12.198 285.292,12.268 C285.292,13.388 285.068,14.326 284.634,15.068 C284.172,15.838 283.556,16.23 282.786,16.23 C281.61,16.23 280.924,15.656 280.714,14.522 L279.58,14.522 C279.846,16.3 280.91,17.196 282.772,17.196 Z M282.814,12.59 C282.114,12.59 281.568,12.366 281.162,11.932 C280.742,11.512 280.546,10.938 280.546,10.238 C280.546,9.51 280.742,8.922 281.162,8.46 C281.582,7.998 282.128,7.774 282.814,7.774 C283.5,7.774 284.06,8.012 284.48,8.488 C284.886,8.936 285.096,9.51 285.096,10.21 C285.096,10.896 284.872,11.47 284.452,11.918 C284.004,12.366 283.458,12.59 282.814,12.59 Z M290.458,17 L294.14,7.942 L294.14,7.004 L287.574,7.004 L287.574,8.054 L292.964,8.054 L289.24,17 L290.458,17 Z M298.984,17.196 C300.02,17.196 300.86,16.902 301.504,16.314 C302.134,15.74 302.456,14.998 302.456,14.088 C302.456,13.5 302.288,13.01 301.952,12.618 C301.644,12.226 301.196,11.946 300.608,11.764 C301.7,11.4 302.246,10.644 302.246,9.524 C302.246,8.684 301.952,8.026 301.378,7.536 C300.79,7.046 300.006,6.808 299.054,6.808 C298.102,6.808 297.332,7.074 296.744,7.62 C296.128,8.166 295.764,8.922 295.68,9.888 L296.814,9.888 C296.884,9.216 297.108,8.698 297.5,8.334 C297.878,7.97 298.396,7.802 299.068,7.802 C299.712,7.802 300.23,7.956 300.594,8.292 C300.93,8.6 301.112,9.034 301.112,9.594 C301.112,10.154 300.93,10.588 300.58,10.896 C300.23,11.19 299.726,11.344 299.054,11.344 L298.284,11.344 L298.284,12.24 L299.096,12.24 C299.796,12.24 300.328,12.394 300.72,12.73 C301.112,13.066 301.308,13.528 301.308,14.13 C301.308,14.718 301.098,15.208 300.706,15.6 C300.272,16.006 299.698,16.216 298.984,16.216 C298.354,16.216 297.836,16.034 297.416,15.698 C296.926,15.292 296.66,14.69 296.632,13.906 L295.47,13.906 C295.554,15.026 295.946,15.88 296.66,16.468 C297.262,16.944 298.032,17.196 298.984,17.196 Z M307.356,17.196 C308.504,17.196 309.4,16.916 310.044,16.37 C310.66,15.838 310.968,15.124 310.968,14.242 C310.968,13.598 310.772,13.038 310.38,12.562 C310.016,12.114 309.568,11.82 309.05,11.694 L309.05,11.666 C309.568,11.484 309.96,11.19 310.24,10.798 C310.492,10.434 310.618,9.986 310.618,9.454 C310.618,8.726 310.338,8.11 309.806,7.62 C309.218,7.074 308.392,6.808 307.356,6.808 C306.306,6.808 305.494,7.074 304.906,7.62 C304.36,8.11 304.094,8.726 304.094,9.454 C304.094,9.986 304.22,10.434 304.472,10.798 C304.738,11.19 305.13,11.484 305.662,11.666 L305.662,11.694 C305.13,11.82 304.696,12.114 304.332,12.562 C303.94,13.038 303.744,13.598 303.744,14.242 C303.744,15.124 304.052,15.838 304.668,16.37 C305.298,16.916 306.194,17.196 307.356,17.196 Z M307.356,11.288 C306.572,11.288 305.998,11.092 305.634,10.728 C305.326,10.42 305.172,10 305.172,9.496 C305.172,9.006 305.34,8.6 305.69,8.292 C306.082,7.928 306.642,7.746 307.356,7.746 C308.056,7.746 308.616,7.928 309.022,8.292 C309.358,8.6 309.54,9.006 309.54,9.496 C309.54,10 309.386,10.42 309.078,10.728 C308.7,11.092 308.126,11.288 307.356,11.288 Z M307.356,16.258 C306.544,16.258 305.914,16.062 305.494,15.684 C305.074,15.32 304.878,14.83 304.878,14.242 C304.878,13.64 305.074,13.15 305.494,12.786 C305.928,12.38 306.544,12.184 307.356,12.184 C308.154,12.184 308.784,12.38 309.232,12.786 C309.624,13.15 309.834,13.64 309.834,14.242 C309.834,14.83 309.624,15.306 309.232,15.67 C308.784,16.062 308.168,16.258 307.356,16.258 Z M315.756,17.196 C316.904,17.196 317.8,16.916 318.444,16.37 C319.06,15.838 319.368,15.124 319.368,14.242 C319.368,13.598 319.172,13.038 318.78,12.562 C318.416,12.114 317.968,11.82 317.45,11.694 L317.45,11.666 C317.968,11.484 318.36,11.19 318.64,10.798 C318.892,10.434 319.018,9.986 319.018,9.454 C319.018,8.726 318.738,8.11 318.206,7.62 C317.618,7.074 316.792,6.808 315.756,6.808 C314.706,6.808 313.894,7.074 313.306,7.62 C312.76,8.11 312.494,8.726 312.494,9.454 C312.494,9.986 312.62,10.434 312.872,10.798 C313.138,11.19 313.53,11.484 314.062,11.666 L314.062,11.694 C313.53,11.82 313.096,12.114 312.732,12.562 C312.34,13.038 312.144,13.598 312.144,14.242 C312.144,15.124 312.452,15.838 313.068,16.37 C313.698,16.916 314.594,17.196 315.756,17.196 Z M315.756,11.288 C314.972,11.288 314.398,11.092 314.034,10.728 C313.726,10.42 313.572,10 313.572,9.496 C313.572,9.006 313.74,8.6 314.09,8.292 C314.482,7.928 315.042,7.746 315.756,7.746 C316.456,7.746 317.016,7.928 317.422,8.292 C317.758,8.6 317.94,9.006 317.94,9.496 C317.94,10 317.786,10.42 317.478,10.728 C317.1,11.092 316.526,11.288 315.756,11.288 Z M315.756,16.258 C314.944,16.258 314.314,16.062 313.894,15.684 C313.474,15.32 313.278,14.83 313.278,14.242 C313.278,13.64 313.474,13.15 313.894,12.786 C314.328,12.38 314.944,12.184 315.756,12.184 C316.554,12.184 317.184,12.38 317.632,12.786 C318.024,13.15 318.234,13.64 318.234,14.242 C318.234,14.83 318.024,15.306 317.632,15.67 C317.184,16.062 316.568,16.258 315.756,16.258 Z M323.316,17 L326.998,7.942 L326.998,7.004 L320.432,7.004 L320.432,8.054 L325.822,8.054 L322.098,17 L323.316,17 Z" id="025-69973885025-69973886025-69973887" fill="#535353" fill-rule="nonzero"></path>
                        <rect x="0" y="0" width="330" height="24"></rect>
                    </g>
                </g>
            </g>
        </g>
    </g>
</svg>