<?xml version="1.0" encoding="UTF-8"?>
<svg width="380px" height="22px" viewBox="0 0 380 22" version="1.1" xmlns="http://www.w3.org/2000/svg" xmlns:xlink="http://www.w3.org/1999/xlink">
    <!-- Generator: Sketch 61 (89581) - https://sketch.com -->
    <title>保障-注意-tel</title>
    <desc>Created with Sketch.</desc>
    <g id="设计稿" stroke="none" stroke-width="1" fill="none" fill-rule="evenodd">
        <g id="硬件与服务-无忧保障" transform="translate(-455.000000, -1580.000000)">
            <g id="编组-2" transform="translate(0.000000, 1420.000000)">
                <g id="text-注意" transform="translate(455.000000, 66.000000)">
                    <g id="保障-注意-tel" transform="translate(0.000000, 94.000000)">
                        <path d="M4.8,17.224 C6.13333333,17.224 7.17333333,16.6586667 7.92,15.528 C8.592,14.472 8.928,13.0586667 8.928,11.288 C8.928,9.51733333 8.592,8.104 7.92,7.048 C7.184,5.91733333 6.144,5.352 4.8,5.352 C3.456,5.352 2.416,5.91733333 1.68,7.048 C1.008,8.08266667 0.672,9.496 0.672,11.288 C0.672,13.0586667 1.008,14.472 1.68,15.528 C2.42666667,16.6586667 3.46666667,17.224 4.8,17.224 Z M4.8,15.752 C3.86133333,15.752 3.2,15.2346667 2.816,14.2 C2.53866667,13.5066667 2.4,12.536 2.4,11.288 C2.4,10.0293333 2.53866667,9.05866667 2.816,8.376 C3.2,7.34133333 3.86133333,6.824 4.8,6.824 C5.73866667,6.824 6.4,7.34133333 6.784,8.376 C7.06133333,9.09066667 7.2,10.0613333 7.2,11.288 C7.2,12.4933333 7.06133333,13.464 6.784,14.2 C6.4,15.2346667 5.73866667,15.752 4.8,15.752 Z M18.336,17 L18.336,15.464 L12.624,15.464 C12.8693333,14.8346667 13.6053333,14.1146667 14.832,13.304 C15.9626667,12.536 16.752,11.9226667 17.2,11.464 C17.9466667,10.632 18.32,9.73066667 18.32,8.76 C18.32,7.75733333 17.9733333,6.936 17.28,6.296 C16.5866667,5.66666667 15.6853333,5.352 14.576,5.352 C13.3386667,5.352 12.3573333,5.76266667 11.632,6.584 C10.9173333,7.352 10.5493333,8.376 10.528,9.656 L10.528,9.656 L12.272,9.656 C12.304,8.728 12.5066667,8.02933333 12.88,7.56 C13.2426667,7.06933333 13.7866667,6.824 14.512,6.824 C15.1946667,6.824 15.712,6.984 16.064,7.304 C16.416,7.624 16.592,8.104 16.592,8.744 C16.592,9.40533333 16.3306667,10.0293333 15.808,10.616 C15.4986667,10.936 14.9546667,11.3733333 14.176,11.928 C12.8533333,12.8453333 11.9946667,13.5386667 11.6,14.008 C10.8426667,14.8613333 10.464,15.8586667 10.464,17 L10.464,17 L18.336,17 Z M23.872,17.224 C25.0133333,17.224 25.9893333,16.888 26.8,16.216 C27.6746667,15.4586667 28.112,14.4933333 28.112,13.32 C28.112,12.104 27.7706667,11.1386667 27.088,10.424 C26.416,9.72 25.5413333,9.368 24.464,9.368 C23.9306667,9.368 23.4613333,9.45333333 23.056,9.624 C22.5973333,9.784 22.192,10.0453333 21.84,10.408 L21.84,10.408 L21.792,10.408 L22.128,7.112 L27.6,7.112 L27.6,5.576 L20.72,5.576 L20.096,11.976 L21.728,11.976 C21.952,11.5493333 22.2666667,11.2453333 22.672,11.064 C23.0346667,10.8826667 23.4773333,10.792 24,10.792 C24.7573333,10.792 25.344,11.016 25.76,11.464 C26.176,11.912 26.384,12.536 26.384,13.336 C26.384,14.0613333 26.144,14.648 25.664,15.096 C25.1733333,15.5333333 24.5813333,15.752 23.888,15.752 C23.248,15.752 22.736,15.608 22.352,15.32 C21.9146667,15 21.664,14.5146667 21.6,13.864 L21.6,13.864 L19.888,13.864 C19.9733333,14.9306667 20.4213333,15.768 21.232,16.376 C21.9786667,16.9413333 22.8586667,17.224 23.872,17.224 Z M37.68,13.56 L37.68,12.152 L29.6,12.152 L29.6,13.56 L37.68,13.56 Z M43.424,17.224 C44.544,17.224 45.4933333,16.8506667 46.272,16.104 C47.0293333,15.368 47.408,14.4293333 47.408,13.288 C47.408,12.168 47.0773333,11.2453333 46.416,10.52 C45.744,9.816 44.848,9.464 43.728,9.464 C43.1093333,9.464 42.5813333,9.58133333 42.144,9.816 C41.6533333,10.0506667 41.248,10.424 40.928,10.936 L40.928,10.936 L40.864,10.936 C40.8533333,10.872 40.848,10.8026667 40.848,10.728 C40.848,9.608 41.0773333,8.68533333 41.536,7.96 C41.9946667,7.18133333 42.624,6.792 43.424,6.792 C44.576,6.792 45.2693333,7.34666667 45.504,8.456 L45.504,8.456 L47.2,8.456 C46.912,6.38666667 45.6586667,5.352 43.44,5.352 C42.1173333,5.352 41.072,5.93333333 40.304,7.096 C39.5466667,8.22666667 39.168,9.73066667 39.168,11.608 C39.168,13.3466667 39.52,14.7066667 40.224,15.688 C40.96,16.712 42.0266667,17.224 43.424,17.224 Z M43.36,15.784 C42.6666667,15.784 42.112,15.56 41.696,15.112 C41.2693333,14.6746667 41.056,14.0826667 41.056,13.336 C41.056,12.5893333 41.264,11.992 41.68,11.544 C42.096,11.096 42.6613333,10.872 43.376,10.872 C44.0906667,10.872 44.656,11.096 45.072,11.544 C45.488,11.96 45.696,12.5413333 45.696,13.288 C45.696,13.992 45.4773333,14.5893333 45.04,15.08 C44.624,15.5493333 44.064,15.784 43.36,15.784 Z M52.736,17.224 C54.0373333,17.224 55.0826667,16.6426667 55.872,15.48 C56.6293333,14.3173333 57.008,12.8133333 57.008,10.968 C57.008,9.22933333 56.6506667,7.864 55.936,6.872 C55.2106667,5.85866667 54.1493333,5.352 52.752,5.352 C51.6106667,5.352 50.6613333,5.72533333 49.904,6.472 C49.1466667,7.19733333 48.768,8.136 48.768,9.288 C48.768,10.4186667 49.0933333,11.3306667 49.744,12.024 C50.416,12.7493333 51.3173333,13.112 52.448,13.112 C53.0133333,13.112 53.5413333,12.9946667 54.032,12.76 C54.5333333,12.4933333 54.9386667,12.12 55.248,11.64 L55.248,11.64 L55.312,11.64 L55.328,11.848 C55.328,12.936 55.0986667,13.8586667 54.64,14.616 C54.1493333,15.3946667 53.52,15.784 52.752,15.784 C51.5893333,15.784 50.896,15.2293333 50.672,14.12 L50.672,14.12 L48.976,14.12 C49.264,16.1893333 50.5173333,17.224 52.736,17.224 Z M52.8,11.704 C52.0853333,11.704 51.5253333,11.48 51.12,11.032 C50.6933333,10.6053333 50.48,10.024 50.48,9.288 C50.48,8.552 50.6933333,7.95466667 51.12,7.496 C51.5253333,7.02666667 52.0906667,6.792 52.816,6.792 C53.4986667,6.792 54.0533333,7.016 54.48,7.464 C54.9066667,7.912 55.12,8.504 55.12,9.24 C55.12,9.98666667 54.912,10.584 54.496,11.032 C54.08,11.48 53.5146667,11.704 52.8,11.704 Z M62.336,17.224 C63.6373333,17.224 64.6826667,16.6426667 65.472,15.48 C66.2293333,14.3173333 66.608,12.8133333 66.608,10.968 C66.608,9.22933333 66.2506667,7.864 65.536,6.872 C64.8106667,5.85866667 63.7493333,5.352 62.352,5.352 C61.2106667,5.352 60.2613333,5.72533333 59.504,6.472 C58.7466667,7.19733333 58.368,8.136 58.368,9.288 C58.368,10.4186667 58.6933333,11.3306667 59.344,12.024 C60.016,12.7493333 60.9173333,13.112 62.048,13.112 C62.6133333,13.112 63.1413333,12.9946667 63.632,12.76 C64.1333333,12.4933333 64.5386667,12.12 64.848,11.64 L64.848,11.64 L64.912,11.64 L64.928,11.848 C64.928,12.936 64.6986667,13.8586667 64.24,14.616 C63.7493333,15.3946667 63.12,15.784 62.352,15.784 C61.1893333,15.784 60.496,15.2293333 60.272,14.12 L60.272,14.12 L58.576,14.12 C58.864,16.1893333 60.1173333,17.224 62.336,17.224 Z M62.4,11.704 C61.6853333,11.704 61.1253333,11.48 60.72,11.032 C60.2933333,10.6053333 60.08,10.024 60.08,9.288 C60.08,8.552 60.2933333,7.95466667 60.72,7.496 C61.1253333,7.02666667 61.6906667,6.792 62.416,6.792 C63.0986667,6.792 63.6533333,7.016 64.08,7.464 C64.5066667,7.912 64.72,8.504 64.72,9.24 C64.72,9.98666667 64.512,10.584 64.096,11.032 C63.68,11.48 63.1146667,11.704 62.4,11.704 Z M71.872,17 L75.92,6.984 L75.92,5.576 L68.256,5.576 L68.256,7.16 L74.16,7.16 L70.032,17 L71.872,17 Z M81.728,17.224 C82.944,17.224 83.9413333,16.8826667 84.72,16.2 C85.4453333,15.528 85.808,14.664 85.808,13.608 C85.808,12.9253333 85.616,12.3706667 85.232,11.944 C84.8693333,11.5173333 84.3573333,11.2026667 83.696,11 C84.9546667,10.584 85.584,9.74666667 85.584,8.488 C85.584,7.51733333 85.2426667,6.74933333 84.56,6.184 C83.8666667,5.62933333 82.944,5.352 81.792,5.352 C80.6613333,5.352 79.7493333,5.66666667 79.056,6.296 C78.3093333,6.936 77.888,7.82133333 77.792,8.952 L77.792,8.952 L79.504,8.952 C79.568,8.25866667 79.7973333,7.73066667 80.192,7.368 C80.576,7.016 81.1146667,6.84 81.808,6.84 C82.5013333,6.84 83.0186667,6.99466667 83.36,7.304 C83.6906667,7.61333333 83.856,8.05066667 83.856,8.616 C83.856,9.192 83.6746667,9.63466667 83.312,9.944 C82.9493333,10.2533333 82.4213333,10.408 81.728,10.408 L81.728,10.408 L80.912,10.408 L80.912,11.72 L81.744,11.72 C82.5013333,11.72 83.072,11.88 83.456,12.2 C83.872,12.52 84.08,13.016 84.08,13.688 C84.08,14.2426667 83.8826667,14.7173333 83.488,15.112 C83.0293333,15.5386667 82.4373333,15.752 81.712,15.752 C81.04,15.752 80.496,15.56 80.08,15.176 C79.6106667,14.7706667 79.36,14.1786667 79.328,13.4 L79.328,13.4 L77.568,13.4 C77.664,14.68 78.112,15.656 78.912,16.328 C79.6266667,16.9253333 80.5653333,17.224 81.728,17.224 Z M91.28,17.224 C92.624,17.224 93.6746667,16.9093333 94.432,16.28 C95.168,15.64 95.536,14.8186667 95.536,13.816 C95.536,13.1013333 95.312,12.472 94.864,11.928 C94.48,11.416 94.0106667,11.096 93.456,10.968 L93.456,10.968 L93.456,10.92 C94.032,10.696 94.464,10.3706667 94.752,9.944 C95.008,9.53866667 95.136,9.04266667 95.136,8.456 C95.136,7.60266667 94.816,6.888 94.176,6.312 C93.4613333,5.672 92.496,5.352 91.28,5.352 C90.0533333,5.352 89.088,5.672 88.384,6.312 C87.744,6.888 87.424,7.60266667 87.424,8.456 C87.424,9.04266667 87.552,9.53866667 87.808,9.944 C88.096,10.3706667 88.528,10.696 89.104,10.92 L89.104,10.92 L89.104,10.968 C88.5493333,11.096 88.08,11.416 87.696,11.928 C87.248,12.472 87.024,13.1013333 87.024,13.816 C87.024,14.8186667 87.392,15.64 88.128,16.28 C88.8746667,16.9093333 89.9253333,17.224 91.28,17.224 Z M91.28,10.392 C90.4693333,10.392 89.8773333,10.2 89.504,9.816 C89.2053333,9.50666667 89.056,9.07466667 89.056,8.52 C89.056,8.02933333 89.2373333,7.624 89.6,7.304 C90.0053333,6.93066667 90.5653333,6.744 91.28,6.744 C91.9946667,6.744 92.5546667,6.93066667 92.96,7.304 C93.3226667,7.63466667 93.504,8.04 93.504,8.52 C93.504,9.05333333 93.3546667,9.48533333 93.056,9.816 C92.672,10.2 92.08,10.392 91.28,10.392 Z M91.28,15.816 C90.4693333,15.816 89.8453333,15.6293333 89.408,15.256 C88.9706667,14.8933333 88.752,14.4133333 88.752,13.816 C88.752,13.1866667 88.9653333,12.68 89.392,12.296 C89.7973333,11.8906667 90.4266667,11.688 91.28,11.688 C92.1013333,11.688 92.736,11.896 93.184,12.312 C93.6,12.6746667 93.808,13.176 93.808,13.816 C93.808,14.4026667 93.6,14.8826667 93.184,15.256 C92.7146667,15.6293333 92.08,15.816 91.28,15.816 Z M100.88,17.224 C102.224,17.224 103.274667,16.9093333 104.032,16.28 C104.768,15.64 105.136,14.8186667 105.136,13.816 C105.136,13.1013333 104.912,12.472 104.464,11.928 C104.08,11.416 103.610667,11.096 103.056,10.968 L103.056,10.968 L103.056,10.92 C103.632,10.696 104.064,10.3706667 104.352,9.944 C104.608,9.53866667 104.736,9.04266667 104.736,8.456 C104.736,7.60266667 104.416,6.888 103.776,6.312 C103.061333,5.672 102.096,5.352 100.88,5.352 C99.6533333,5.352 98.688,5.672 97.984,6.312 C97.344,6.888 97.024,7.60266667 97.024,8.456 C97.024,9.04266667 97.152,9.53866667 97.408,9.944 C97.696,10.3706667 98.128,10.696 98.704,10.92 L98.704,10.92 L98.704,10.968 C98.1493333,11.096 97.68,11.416 97.296,11.928 C96.848,12.472 96.624,13.1013333 96.624,13.816 C96.624,14.8186667 96.992,15.64 97.728,16.28 C98.4746667,16.9093333 99.5253333,17.224 100.88,17.224 Z M100.88,10.392 C100.069333,10.392 99.4773333,10.2 99.104,9.816 C98.8053333,9.50666667 98.656,9.07466667 98.656,8.52 C98.656,8.02933333 98.8373333,7.624 99.2,7.304 C99.6053333,6.93066667 100.165333,6.744 100.88,6.744 C101.594667,6.744 102.154667,6.93066667 102.56,7.304 C102.922667,7.63466667 103.104,8.04 103.104,8.52 C103.104,9.05333333 102.954667,9.48533333 102.656,9.816 C102.272,10.2 101.68,10.392 100.88,10.392 Z M100.88,15.816 C100.069333,15.816 99.4453333,15.6293333 99.008,15.256 C98.5706667,14.8933333 98.352,14.4133333 98.352,13.816 C98.352,13.1866667 98.5653333,12.68 98.992,12.296 C99.3973333,11.8906667 100.026667,11.688 100.88,11.688 C101.701333,11.688 102.336,11.896 102.784,12.312 C103.2,12.6746667 103.408,13.176 103.408,13.816 C103.408,14.4026667 103.2,14.8826667 102.784,15.256 C102.314667,15.6293333 101.68,15.816 100.88,15.816 Z M110.352,17.224 C111.493333,17.224 112.469333,16.888 113.28,16.216 C114.154667,15.4586667 114.592,14.4933333 114.592,13.32 C114.592,12.104 114.250667,11.1386667 113.568,10.424 C112.896,9.72 112.021333,9.368 110.944,9.368 C110.410667,9.368 109.941333,9.45333333 109.536,9.624 C109.077333,9.784 108.672,10.0453333 108.32,10.408 L108.32,10.408 L108.272,10.408 L108.608,7.112 L114.08,7.112 L114.08,5.576 L107.2,5.576 L106.576,11.976 L108.208,11.976 C108.432,11.5493333 108.746667,11.2453333 109.152,11.064 C109.514667,10.8826667 109.957333,10.792 110.48,10.792 C111.237333,10.792 111.824,11.016 112.24,11.464 C112.656,11.912 112.864,12.536 112.864,13.336 C112.864,14.0613333 112.624,14.648 112.144,15.096 C111.653333,15.5333333 111.061333,15.752 110.368,15.752 C109.728,15.752 109.216,15.608 108.832,15.32 C108.394667,15 108.144,14.5146667 108.08,13.864 L108.08,13.864 L106.368,13.864 C106.453333,14.9306667 106.901333,15.768 107.712,16.376 C108.458667,16.9413333 109.338667,17.224 110.352,17.224 Z M136.064,17.224 C137.397333,17.224 138.437333,16.6586667 139.184,15.528 C139.856,14.472 140.192,13.0586667 140.192,11.288 C140.192,9.51733333 139.856,8.104 139.184,7.048 C138.448,5.91733333 137.408,5.352 136.064,5.352 C134.72,5.352 133.68,5.91733333 132.944,7.048 C132.272,8.08266667 131.936,9.496 131.936,11.288 C131.936,13.0586667 132.272,14.472 132.944,15.528 C133.690667,16.6586667 134.730667,17.224 136.064,17.224 Z M136.064,15.752 C135.125333,15.752 134.464,15.2346667 134.08,14.2 C133.802667,13.5066667 133.664,12.536 133.664,11.288 C133.664,10.0293333 133.802667,9.05866667 134.08,8.376 C134.464,7.34133333 135.125333,6.824 136.064,6.824 C137.002667,6.824 137.664,7.34133333 138.048,8.376 C138.325333,9.09066667 138.464,10.0613333 138.464,11.288 C138.464,12.4933333 138.325333,13.464 138.048,14.2 C137.664,15.2346667 137.002667,15.752 136.064,15.752 Z M149.6,17 L149.6,15.464 L143.888,15.464 C144.133333,14.8346667 144.869333,14.1146667 146.096,13.304 C147.226667,12.536 148.016,11.9226667 148.464,11.464 C149.210667,10.632 149.584,9.73066667 149.584,8.76 C149.584,7.75733333 149.237333,6.936 148.544,6.296 C147.850667,5.66666667 146.949333,5.352 145.84,5.352 C144.602667,5.352 143.621333,5.76266667 142.896,6.584 C142.181333,7.352 141.813333,8.376 141.792,9.656 L141.792,9.656 L143.536,9.656 C143.568,8.728 143.770667,8.02933333 144.144,7.56 C144.506667,7.06933333 145.050667,6.824 145.776,6.824 C146.458667,6.824 146.976,6.984 147.328,7.304 C147.68,7.624 147.856,8.104 147.856,8.744 C147.856,9.40533333 147.594667,10.0293333 147.072,10.616 C146.762667,10.936 146.218667,11.3733333 145.44,11.928 C144.117333,12.8453333 143.258667,13.5386667 142.864,14.008 C142.106667,14.8613333 141.728,15.8586667 141.728,17 L141.728,17 L149.6,17 Z M155.136,17.224 C156.277333,17.224 157.253333,16.888 158.064,16.216 C158.938667,15.4586667 159.376,14.4933333 159.376,13.32 C159.376,12.104 159.034667,11.1386667 158.352,10.424 C157.68,9.72 156.805333,9.368 155.728,9.368 C155.194667,9.368 154.725333,9.45333333 154.32,9.624 C153.861333,9.784 153.456,10.0453333 153.104,10.408 L153.104,10.408 L153.056,10.408 L153.392,7.112 L158.864,7.112 L158.864,5.576 L151.984,5.576 L151.36,11.976 L152.992,11.976 C153.216,11.5493333 153.530667,11.2453333 153.936,11.064 C154.298667,10.8826667 154.741333,10.792 155.264,10.792 C156.021333,10.792 156.608,11.016 157.024,11.464 C157.44,11.912 157.648,12.536 157.648,13.336 C157.648,14.0613333 157.408,14.648 156.928,15.096 C156.437333,15.5333333 155.845333,15.752 155.152,15.752 C154.512,15.752 154,15.608 153.616,15.32 C153.178667,15 152.928,14.5146667 152.864,13.864 L152.864,13.864 L151.152,13.864 C151.237333,14.9306667 151.685333,15.768 152.496,16.376 C153.242667,16.9413333 154.122667,17.224 155.136,17.224 Z M168.944,13.56 L168.944,12.152 L160.864,12.152 L160.864,13.56 L168.944,13.56 Z M174.688,17.224 C175.808,17.224 176.757333,16.8506667 177.536,16.104 C178.293333,15.368 178.672,14.4293333 178.672,13.288 C178.672,12.168 178.341333,11.2453333 177.68,10.52 C177.008,9.816 176.112,9.464 174.992,9.464 C174.373333,9.464 173.845333,9.58133333 173.408,9.816 C172.917333,10.0506667 172.512,10.424 172.192,10.936 L172.192,10.936 L172.128,10.936 C172.117333,10.872 172.112,10.8026667 172.112,10.728 C172.112,9.608 172.341333,8.68533333 172.8,7.96 C173.258667,7.18133333 173.888,6.792 174.688,6.792 C175.84,6.792 176.533333,7.34666667 176.768,8.456 L176.768,8.456 L178.464,8.456 C178.176,6.38666667 176.922667,5.352 174.704,5.352 C173.381333,5.352 172.336,5.93333333 171.568,7.096 C170.810667,8.22666667 170.432,9.73066667 170.432,11.608 C170.432,13.3466667 170.784,14.7066667 171.488,15.688 C172.224,16.712 173.290667,17.224 174.688,17.224 Z M174.624,15.784 C173.930667,15.784 173.376,15.56 172.96,15.112 C172.533333,14.6746667 172.32,14.0826667 172.32,13.336 C172.32,12.5893333 172.528,11.992 172.944,11.544 C173.36,11.096 173.925333,10.872 174.64,10.872 C175.354667,10.872 175.92,11.096 176.336,11.544 C176.752,11.96 176.96,12.5413333 176.96,13.288 C176.96,13.992 176.741333,14.5893333 176.304,15.08 C175.888,15.5493333 175.328,15.784 174.624,15.784 Z M184,17.224 C185.301333,17.224 186.346667,16.6426667 187.136,15.48 C187.893333,14.3173333 188.272,12.8133333 188.272,10.968 C188.272,9.22933333 187.914667,7.864 187.2,6.872 C186.474667,5.85866667 185.413333,5.352 184.016,5.352 C182.874667,5.352 181.925333,5.72533333 181.168,6.472 C180.410667,7.19733333 180.032,8.136 180.032,9.288 C180.032,10.4186667 180.357333,11.3306667 181.008,12.024 C181.68,12.7493333 182.581333,13.112 183.712,13.112 C184.277333,13.112 184.805333,12.9946667 185.296,12.76 C185.797333,12.4933333 186.202667,12.12 186.512,11.64 L186.512,11.64 L186.576,11.64 L186.592,11.848 C186.592,12.936 186.362667,13.8586667 185.904,14.616 C185.413333,15.3946667 184.784,15.784 184.016,15.784 C182.853333,15.784 182.16,15.2293333 181.936,14.12 L181.936,14.12 L180.24,14.12 C180.528,16.1893333 181.781333,17.224 184,17.224 Z M184.064,11.704 C183.349333,11.704 182.789333,11.48 182.384,11.032 C181.957333,10.6053333 181.744,10.024 181.744,9.288 C181.744,8.552 181.957333,7.95466667 182.384,7.496 C182.789333,7.02666667 183.354667,6.792 184.08,6.792 C184.762667,6.792 185.317333,7.016 185.744,7.464 C186.170667,7.912 186.384,8.504 186.384,9.24 C186.384,9.98666667 186.176,10.584 185.76,11.032 C185.344,11.48 184.778667,11.704 184.064,11.704 Z M193.6,17.224 C194.901333,17.224 195.946667,16.6426667 196.736,15.48 C197.493333,14.3173333 197.872,12.8133333 197.872,10.968 C197.872,9.22933333 197.514667,7.864 196.8,6.872 C196.074667,5.85866667 195.013333,5.352 193.616,5.352 C192.474667,5.352 191.525333,5.72533333 190.768,6.472 C190.010667,7.19733333 189.632,8.136 189.632,9.288 C189.632,10.4186667 189.957333,11.3306667 190.608,12.024 C191.28,12.7493333 192.181333,13.112 193.312,13.112 C193.877333,13.112 194.405333,12.9946667 194.896,12.76 C195.397333,12.4933333 195.802667,12.12 196.112,11.64 L196.112,11.64 L196.176,11.64 L196.192,11.848 C196.192,12.936 195.962667,13.8586667 195.504,14.616 C195.013333,15.3946667 194.384,15.784 193.616,15.784 C192.453333,15.784 191.76,15.2293333 191.536,14.12 L191.536,14.12 L189.84,14.12 C190.128,16.1893333 191.381333,17.224 193.6,17.224 Z M193.664,11.704 C192.949333,11.704 192.389333,11.48 191.984,11.032 C191.557333,10.6053333 191.344,10.024 191.344,9.288 C191.344,8.552 191.557333,7.95466667 191.984,7.496 C192.389333,7.02666667 192.954667,6.792 193.68,6.792 C194.362667,6.792 194.917333,7.016 195.344,7.464 C195.770667,7.912 195.984,8.504 195.984,9.24 C195.984,9.98666667 195.776,10.584 195.36,11.032 C194.944,11.48 194.378667,11.704 193.664,11.704 Z M203.136,17 L207.184,6.984 L207.184,5.576 L199.52,5.576 L199.52,7.16 L205.424,7.16 L201.296,17 L203.136,17 Z M212.992,17.224 C214.208,17.224 215.205333,16.8826667 215.984,16.2 C216.709333,15.528 217.072,14.664 217.072,13.608 C217.072,12.9253333 216.88,12.3706667 216.496,11.944 C216.133333,11.5173333 215.621333,11.2026667 214.96,11 C216.218667,10.584 216.848,9.74666667 216.848,8.488 C216.848,7.51733333 216.506667,6.74933333 215.824,6.184 C215.130667,5.62933333 214.208,5.352 213.056,5.352 C211.925333,5.352 211.013333,5.66666667 210.32,6.296 C209.573333,6.936 209.152,7.82133333 209.056,8.952 L209.056,8.952 L210.768,8.952 C210.832,8.25866667 211.061333,7.73066667 211.456,7.368 C211.84,7.016 212.378667,6.84 213.072,6.84 C213.765333,6.84 214.282667,6.99466667 214.624,7.304 C214.954667,7.61333333 215.12,8.05066667 215.12,8.616 C215.12,9.192 214.938667,9.63466667 214.576,9.944 C214.213333,10.2533333 213.685333,10.408 212.992,10.408 L212.992,10.408 L212.176,10.408 L212.176,11.72 L213.008,11.72 C213.765333,11.72 214.336,11.88 214.72,12.2 C215.136,12.52 215.344,13.016 215.344,13.688 C215.344,14.2426667 215.146667,14.7173333 214.752,15.112 C214.293333,15.5386667 213.701333,15.752 212.976,15.752 C212.304,15.752 211.76,15.56 211.344,15.176 C210.874667,14.7706667 210.624,14.1786667 210.592,13.4 L210.592,13.4 L208.832,13.4 C208.928,14.68 209.376,15.656 210.176,16.328 C210.890667,16.9253333 211.829333,17.224 212.992,17.224 Z M222.544,17.224 C223.888,17.224 224.938667,16.9093333 225.696,16.28 C226.432,15.64 226.8,14.8186667 226.8,13.816 C226.8,13.1013333 226.576,12.472 226.128,11.928 C225.744,11.416 225.274667,11.096 224.72,10.968 L224.72,10.968 L224.72,10.92 C225.296,10.696 225.728,10.3706667 226.016,9.944 C226.272,9.53866667 226.4,9.04266667 226.4,8.456 C226.4,7.60266667 226.08,6.888 225.44,6.312 C224.725333,5.672 223.76,5.352 222.544,5.352 C221.317333,5.352 220.352,5.672 219.648,6.312 C219.008,6.888 218.688,7.60266667 218.688,8.456 C218.688,9.04266667 218.816,9.53866667 219.072,9.944 C219.36,10.3706667 219.792,10.696 220.368,10.92 L220.368,10.92 L220.368,10.968 C219.813333,11.096 219.344,11.416 218.96,11.928 C218.512,12.472 218.288,13.1013333 218.288,13.816 C218.288,14.8186667 218.656,15.64 219.392,16.28 C220.138667,16.9093333 221.189333,17.224 222.544,17.224 Z M222.544,10.392 C221.733333,10.392 221.141333,10.2 220.768,9.816 C220.469333,9.50666667 220.32,9.07466667 220.32,8.52 C220.32,8.02933333 220.501333,7.624 220.864,7.304 C221.269333,6.93066667 221.829333,6.744 222.544,6.744 C223.258667,6.744 223.818667,6.93066667 224.224,7.304 C224.586667,7.63466667 224.768,8.04 224.768,8.52 C224.768,9.05333333 224.618667,9.48533333 224.32,9.816 C223.936,10.2 223.344,10.392 222.544,10.392 Z M222.544,15.816 C221.733333,15.816 221.109333,15.6293333 220.672,15.256 C220.234667,14.8933333 220.016,14.4133333 220.016,13.816 C220.016,13.1866667 220.229333,12.68 220.656,12.296 C221.061333,11.8906667 221.690667,11.688 222.544,11.688 C223.365333,11.688 224,11.896 224.448,12.312 C224.864,12.6746667 225.072,13.176 225.072,13.816 C225.072,14.4026667 224.864,14.8826667 224.448,15.256 C223.978667,15.6293333 223.344,15.816 222.544,15.816 Z M232.144,17.224 C233.488,17.224 234.538667,16.9093333 235.296,16.28 C236.032,15.64 236.4,14.8186667 236.4,13.816 C236.4,13.1013333 236.176,12.472 235.728,11.928 C235.344,11.416 234.874667,11.096 234.32,10.968 L234.32,10.968 L234.32,10.92 C234.896,10.696 235.328,10.3706667 235.616,9.944 C235.872,9.53866667 236,9.04266667 236,8.456 C236,7.60266667 235.68,6.888 235.04,6.312 C234.325333,5.672 233.36,5.352 232.144,5.352 C230.917333,5.352 229.952,5.672 229.248,6.312 C228.608,6.888 228.288,7.60266667 228.288,8.456 C228.288,9.04266667 228.416,9.53866667 228.672,9.944 C228.96,10.3706667 229.392,10.696 229.968,10.92 L229.968,10.92 L229.968,10.968 C229.413333,11.096 228.944,11.416 228.56,11.928 C228.112,12.472 227.888,13.1013333 227.888,13.816 C227.888,14.8186667 228.256,15.64 228.992,16.28 C229.738667,16.9093333 230.789333,17.224 232.144,17.224 Z M232.144,10.392 C231.333333,10.392 230.741333,10.2 230.368,9.816 C230.069333,9.50666667 229.92,9.07466667 229.92,8.52 C229.92,8.02933333 230.101333,7.624 230.464,7.304 C230.869333,6.93066667 231.429333,6.744 232.144,6.744 C232.858667,6.744 233.418667,6.93066667 233.824,7.304 C234.186667,7.63466667 234.368,8.04 234.368,8.52 C234.368,9.05333333 234.218667,9.48533333 233.92,9.816 C233.536,10.2 232.944,10.392 232.144,10.392 Z M232.144,15.816 C231.333333,15.816 230.709333,15.6293333 230.272,15.256 C229.834667,14.8933333 229.616,14.4133333 229.616,13.816 C229.616,13.1866667 229.829333,12.68 230.256,12.296 C230.661333,11.8906667 231.290667,11.688 232.144,11.688 C232.965333,11.688 233.6,11.896 234.048,12.312 C234.464,12.6746667 234.672,13.176 234.672,13.816 C234.672,14.4026667 234.464,14.8826667 234.048,15.256 C233.578667,15.6293333 232.944,15.816 232.144,15.816 Z M241.888,17.224 C243.008,17.224 243.957333,16.8506667 244.736,16.104 C245.493333,15.368 245.872,14.4293333 245.872,13.288 C245.872,12.168 245.541333,11.2453333 244.88,10.52 C244.208,9.816 243.312,9.464 242.192,9.464 C241.573333,9.464 241.045333,9.58133333 240.608,9.816 C240.117333,10.0506667 239.712,10.424 239.392,10.936 L239.392,10.936 L239.328,10.936 C239.317333,10.872 239.312,10.8026667 239.312,10.728 C239.312,9.608 239.541333,8.68533333 240,7.96 C240.458667,7.18133333 241.088,6.792 241.888,6.792 C243.04,6.792 243.733333,7.34666667 243.968,8.456 L243.968,8.456 L245.664,8.456 C245.376,6.38666667 244.122667,5.352 241.904,5.352 C240.581333,5.352 239.536,5.93333333 238.768,7.096 C238.010667,8.22666667 237.632,9.73066667 237.632,11.608 C237.632,13.3466667 237.984,14.7066667 238.688,15.688 C239.424,16.712 240.490667,17.224 241.888,17.224 Z M241.824,15.784 C241.130667,15.784 240.576,15.56 240.16,15.112 C239.733333,14.6746667 239.52,14.0826667 239.52,13.336 C239.52,12.5893333 239.728,11.992 240.144,11.544 C240.56,11.096 241.125333,10.872 241.84,10.872 C242.554667,10.872 243.12,11.096 243.536,11.544 C243.952,11.96 244.16,12.5413333 244.16,13.288 C244.16,13.992 243.941333,14.5893333 243.504,15.08 C243.088,15.5493333 242.528,15.784 241.824,15.784 Z M267.328,17.224 C268.661333,17.224 269.701333,16.6586667 270.448,15.528 C271.12,14.472 271.456,13.0586667 271.456,11.288 C271.456,9.51733333 271.12,8.104 270.448,7.048 C269.712,5.91733333 268.672,5.352 267.328,5.352 C265.984,5.352 264.944,5.91733333 264.208,7.048 C263.536,8.08266667 263.2,9.496 263.2,11.288 C263.2,13.0586667 263.536,14.472 264.208,15.528 C264.954667,16.6586667 265.994667,17.224 267.328,17.224 Z M267.328,15.752 C266.389333,15.752 265.728,15.2346667 265.344,14.2 C265.066667,13.5066667 264.928,12.536 264.928,11.288 C264.928,10.0293333 265.066667,9.05866667 265.344,8.376 C265.728,7.34133333 266.389333,6.824 267.328,6.824 C268.266667,6.824 268.928,7.34133333 269.312,8.376 C269.589333,9.09066667 269.728,10.0613333 269.728,11.288 C269.728,12.4933333 269.589333,13.464 269.312,14.2 C268.928,15.2346667 268.266667,15.752 267.328,15.752 Z M280.864,17 L280.864,15.464 L275.152,15.464 C275.397333,14.8346667 276.133333,14.1146667 277.36,13.304 C278.490667,12.536 279.28,11.9226667 279.728,11.464 C280.474667,10.632 280.848,9.73066667 280.848,8.76 C280.848,7.75733333 280.501333,6.936 279.808,6.296 C279.114667,5.66666667 278.213333,5.352 277.104,5.352 C275.866667,5.352 274.885333,5.76266667 274.16,6.584 C273.445333,7.352 273.077333,8.376 273.056,9.656 L273.056,9.656 L274.8,9.656 C274.832,8.728 275.034667,8.02933333 275.408,7.56 C275.770667,7.06933333 276.314667,6.824 277.04,6.824 C277.722667,6.824 278.24,6.984 278.592,7.304 C278.944,7.624 279.12,8.104 279.12,8.744 C279.12,9.40533333 278.858667,10.0293333 278.336,10.616 C278.026667,10.936 277.482667,11.3733333 276.704,11.928 C275.381333,12.8453333 274.522667,13.5386667 274.128,14.008 C273.370667,14.8613333 272.992,15.8586667 272.992,17 L272.992,17 L280.864,17 Z M286.4,17.224 C287.541333,17.224 288.517333,16.888 289.328,16.216 C290.202667,15.4586667 290.64,14.4933333 290.64,13.32 C290.64,12.104 290.298667,11.1386667 289.616,10.424 C288.944,9.72 288.069333,9.368 286.992,9.368 C286.458667,9.368 285.989333,9.45333333 285.584,9.624 C285.125333,9.784 284.72,10.0453333 284.368,10.408 L284.368,10.408 L284.32,10.408 L284.656,7.112 L290.128,7.112 L290.128,5.576 L283.248,5.576 L282.624,11.976 L284.256,11.976 C284.48,11.5493333 284.794667,11.2453333 285.2,11.064 C285.562667,10.8826667 286.005333,10.792 286.528,10.792 C287.285333,10.792 287.872,11.016 288.288,11.464 C288.704,11.912 288.912,12.536 288.912,13.336 C288.912,14.0613333 288.672,14.648 288.192,15.096 C287.701333,15.5333333 287.109333,15.752 286.416,15.752 C285.776,15.752 285.264,15.608 284.88,15.32 C284.442667,15 284.192,14.5146667 284.128,13.864 L284.128,13.864 L282.416,13.864 C282.501333,14.9306667 282.949333,15.768 283.76,16.376 C284.506667,16.9413333 285.386667,17.224 286.4,17.224 Z M300.208,13.56 L300.208,12.152 L292.128,12.152 L292.128,13.56 L300.208,13.56 Z M305.952,17.224 C307.072,17.224 308.021333,16.8506667 308.8,16.104 C309.557333,15.368 309.936,14.4293333 309.936,13.288 C309.936,12.168 309.605333,11.2453333 308.944,10.52 C308.272,9.816 307.376,9.464 306.256,9.464 C305.637333,9.464 305.109333,9.58133333 304.672,9.816 C304.181333,10.0506667 303.776,10.424 303.456,10.936 L303.456,10.936 L303.392,10.936 C303.381333,10.872 303.376,10.8026667 303.376,10.728 C303.376,9.608 303.605333,8.68533333 304.064,7.96 C304.522667,7.18133333 305.152,6.792 305.952,6.792 C307.104,6.792 307.797333,7.34666667 308.032,8.456 L308.032,8.456 L309.728,8.456 C309.44,6.38666667 308.186667,5.352 305.968,5.352 C304.645333,5.352 303.6,5.93333333 302.832,7.096 C302.074667,8.22666667 301.696,9.73066667 301.696,11.608 C301.696,13.3466667 302.048,14.7066667 302.752,15.688 C303.488,16.712 304.554667,17.224 305.952,17.224 Z M305.888,15.784 C305.194667,15.784 304.64,15.56 304.224,15.112 C303.797333,14.6746667 303.584,14.0826667 303.584,13.336 C303.584,12.5893333 303.792,11.992 304.208,11.544 C304.624,11.096 305.189333,10.872 305.904,10.872 C306.618667,10.872 307.184,11.096 307.6,11.544 C308.016,11.96 308.224,12.5413333 308.224,13.288 C308.224,13.992 308.005333,14.5893333 307.568,15.08 C307.152,15.5493333 306.592,15.784 305.888,15.784 Z M315.264,17.224 C316.565333,17.224 317.610667,16.6426667 318.4,15.48 C319.157333,14.3173333 319.536,12.8133333 319.536,10.968 C319.536,9.22933333 319.178667,7.864 318.464,6.872 C317.738667,5.85866667 316.677333,5.352 315.28,5.352 C314.138667,5.352 313.189333,5.72533333 312.432,6.472 C311.674667,7.19733333 311.296,8.136 311.296,9.288 C311.296,10.4186667 311.621333,11.3306667 312.272,12.024 C312.944,12.7493333 313.845333,13.112 314.976,13.112 C315.541333,13.112 316.069333,12.9946667 316.56,12.76 C317.061333,12.4933333 317.466667,12.12 317.776,11.64 L317.776,11.64 L317.84,11.64 L317.856,11.848 C317.856,12.936 317.626667,13.8586667 317.168,14.616 C316.677333,15.3946667 316.048,15.784 315.28,15.784 C314.117333,15.784 313.424,15.2293333 313.2,14.12 L313.2,14.12 L311.504,14.12 C311.792,16.1893333 313.045333,17.224 315.264,17.224 Z M315.328,11.704 C314.613333,11.704 314.053333,11.48 313.648,11.032 C313.221333,10.6053333 313.008,10.024 313.008,9.288 C313.008,8.552 313.221333,7.95466667 313.648,7.496 C314.053333,7.02666667 314.618667,6.792 315.344,6.792 C316.026667,6.792 316.581333,7.016 317.008,7.464 C317.434667,7.912 317.648,8.504 317.648,9.24 C317.648,9.98666667 317.44,10.584 317.024,11.032 C316.608,11.48 316.042667,11.704 315.328,11.704 Z M324.864,17.224 C326.165333,17.224 327.210667,16.6426667 328,15.48 C328.757333,14.3173333 329.136,12.8133333 329.136,10.968 C329.136,9.22933333 328.778667,7.864 328.064,6.872 C327.338667,5.85866667 326.277333,5.352 324.88,5.352 C323.738667,5.352 322.789333,5.72533333 322.032,6.472 C321.274667,7.19733333 320.896,8.136 320.896,9.288 C320.896,10.4186667 321.221333,11.3306667 321.872,12.024 C322.544,12.7493333 323.445333,13.112 324.576,13.112 C325.141333,13.112 325.669333,12.9946667 326.16,12.76 C326.661333,12.4933333 327.066667,12.12 327.376,11.64 L327.376,11.64 L327.44,11.64 L327.456,11.848 C327.456,12.936 327.226667,13.8586667 326.768,14.616 C326.277333,15.3946667 325.648,15.784 324.88,15.784 C323.717333,15.784 323.024,15.2293333 322.8,14.12 L322.8,14.12 L321.104,14.12 C321.392,16.1893333 322.645333,17.224 324.864,17.224 Z M324.928,11.704 C324.213333,11.704 323.653333,11.48 323.248,11.032 C322.821333,10.6053333 322.608,10.024 322.608,9.288 C322.608,8.552 322.821333,7.95466667 323.248,7.496 C323.653333,7.02666667 324.218667,6.792 324.944,6.792 C325.626667,6.792 326.181333,7.016 326.608,7.464 C327.034667,7.912 327.248,8.504 327.248,9.24 C327.248,9.98666667 327.04,10.584 326.624,11.032 C326.208,11.48 325.642667,11.704 324.928,11.704 Z M334.4,17 L338.448,6.984 L338.448,5.576 L330.784,5.576 L330.784,7.16 L336.688,7.16 L332.56,17 L334.4,17 Z M344.256,17.224 C345.472,17.224 346.469333,16.8826667 347.248,16.2 C347.973333,15.528 348.336,14.664 348.336,13.608 C348.336,12.9253333 348.144,12.3706667 347.76,11.944 C347.397333,11.5173333 346.885333,11.2026667 346.224,11 C347.482667,10.584 348.112,9.74666667 348.112,8.488 C348.112,7.51733333 347.770667,6.74933333 347.088,6.184 C346.394667,5.62933333 345.472,5.352 344.32,5.352 C343.189333,5.352 342.277333,5.66666667 341.584,6.296 C340.837333,6.936 340.416,7.82133333 340.32,8.952 L340.32,8.952 L342.032,8.952 C342.096,8.25866667 342.325333,7.73066667 342.72,7.368 C343.104,7.016 343.642667,6.84 344.336,6.84 C345.029333,6.84 345.546667,6.99466667 345.888,7.304 C346.218667,7.61333333 346.384,8.05066667 346.384,8.616 C346.384,9.192 346.202667,9.63466667 345.84,9.944 C345.477333,10.2533333 344.949333,10.408 344.256,10.408 L344.256,10.408 L343.44,10.408 L343.44,11.72 L344.272,11.72 C345.029333,11.72 345.6,11.88 345.984,12.2 C346.4,12.52 346.608,13.016 346.608,13.688 C346.608,14.2426667 346.410667,14.7173333 346.016,15.112 C345.557333,15.5386667 344.965333,15.752 344.24,15.752 C343.568,15.752 343.024,15.56 342.608,15.176 C342.138667,14.7706667 341.888,14.1786667 341.856,13.4 L341.856,13.4 L340.096,13.4 C340.192,14.68 340.64,15.656 341.44,16.328 C342.154667,16.9253333 343.093333,17.224 344.256,17.224 Z M353.808,17.224 C355.152,17.224 356.202667,16.9093333 356.96,16.28 C357.696,15.64 358.064,14.8186667 358.064,13.816 C358.064,13.1013333 357.84,12.472 357.392,11.928 C357.008,11.416 356.538667,11.096 355.984,10.968 L355.984,10.968 L355.984,10.92 C356.56,10.696 356.992,10.3706667 357.28,9.944 C357.536,9.53866667 357.664,9.04266667 357.664,8.456 C357.664,7.60266667 357.344,6.888 356.704,6.312 C355.989333,5.672 355.024,5.352 353.808,5.352 C352.581333,5.352 351.616,5.672 350.912,6.312 C350.272,6.888 349.952,7.60266667 349.952,8.456 C349.952,9.04266667 350.08,9.53866667 350.336,9.944 C350.624,10.3706667 351.056,10.696 351.632,10.92 L351.632,10.92 L351.632,10.968 C351.077333,11.096 350.608,11.416 350.224,11.928 C349.776,12.472 349.552,13.1013333 349.552,13.816 C349.552,14.8186667 349.92,15.64 350.656,16.28 C351.402667,16.9093333 352.453333,17.224 353.808,17.224 Z M353.808,10.392 C352.997333,10.392 352.405333,10.2 352.032,9.816 C351.733333,9.50666667 351.584,9.07466667 351.584,8.52 C351.584,8.02933333 351.765333,7.624 352.128,7.304 C352.533333,6.93066667 353.093333,6.744 353.808,6.744 C354.522667,6.744 355.082667,6.93066667 355.488,7.304 C355.850667,7.63466667 356.032,8.04 356.032,8.52 C356.032,9.05333333 355.882667,9.48533333 355.584,9.816 C355.2,10.2 354.608,10.392 353.808,10.392 Z M353.808,15.816 C352.997333,15.816 352.373333,15.6293333 351.936,15.256 C351.498667,14.8933333 351.28,14.4133333 351.28,13.816 C351.28,13.1866667 351.493333,12.68 351.92,12.296 C352.325333,11.8906667 352.954667,11.688 353.808,11.688 C354.629333,11.688 355.264,11.896 355.712,12.312 C356.128,12.6746667 356.336,13.176 356.336,13.816 C356.336,14.4026667 356.128,14.8826667 355.712,15.256 C355.242667,15.6293333 354.608,15.816 353.808,15.816 Z M363.408,17.224 C364.752,17.224 365.802667,16.9093333 366.56,16.28 C367.296,15.64 367.664,14.8186667 367.664,13.816 C367.664,13.1013333 367.44,12.472 366.992,11.928 C366.608,11.416 366.138667,11.096 365.584,10.968 L365.584,10.968 L365.584,10.92 C366.16,10.696 366.592,10.3706667 366.88,9.944 C367.136,9.53866667 367.264,9.04266667 367.264,8.456 C367.264,7.60266667 366.944,6.888 366.304,6.312 C365.589333,5.672 364.624,5.352 363.408,5.352 C362.181333,5.352 361.216,5.672 360.512,6.312 C359.872,6.888 359.552,7.60266667 359.552,8.456 C359.552,9.04266667 359.68,9.53866667 359.936,9.944 C360.224,10.3706667 360.656,10.696 361.232,10.92 L361.232,10.92 L361.232,10.968 C360.677333,11.096 360.208,11.416 359.824,11.928 C359.376,12.472 359.152,13.1013333 359.152,13.816 C359.152,14.8186667 359.52,15.64 360.256,16.28 C361.002667,16.9093333 362.053333,17.224 363.408,17.224 Z M363.408,10.392 C362.597333,10.392 362.005333,10.2 361.632,9.816 C361.333333,9.50666667 361.184,9.07466667 361.184,8.52 C361.184,8.02933333 361.365333,7.624 361.728,7.304 C362.133333,6.93066667 362.693333,6.744 363.408,6.744 C364.122667,6.744 364.682667,6.93066667 365.088,7.304 C365.450667,7.63466667 365.632,8.04 365.632,8.52 C365.632,9.05333333 365.482667,9.48533333 365.184,9.816 C364.8,10.2 364.208,10.392 363.408,10.392 Z M363.408,15.816 C362.597333,15.816 361.973333,15.6293333 361.536,15.256 C361.098667,14.8933333 360.88,14.4133333 360.88,13.816 C360.88,13.1866667 361.093333,12.68 361.52,12.296 C361.925333,11.8906667 362.554667,11.688 363.408,11.688 C364.229333,11.688 364.864,11.896 365.312,12.312 C365.728,12.6746667 365.936,13.176 365.936,13.816 C365.936,14.4026667 365.728,14.8826667 365.312,15.256 C364.842667,15.6293333 364.208,15.816 363.408,15.816 Z M372.8,17 L376.848,6.984 L376.848,5.576 L369.184,5.576 L369.184,7.16 L375.088,7.16 L370.96,17 L372.8,17 Z" id="025-69973885025-69973886025-69973887" fill="#FFFFFF" fill-rule="nonzero" opacity="0.8"></path>
                        <rect x="0" y="0" width="380" height="22"></rect>
                    </g>
                </g>
            </g>
        </g>
    </g>
</svg>