<?xml version="1.0" encoding="UTF-8"?>
<svg width="380px" height="26px" viewBox="0 0 380 26" version="1.1" xmlns="http://www.w3.org/2000/svg" xmlns:xlink="http://www.w3.org/1999/xlink">
    <!-- Generator: Sketch 61 (89581) - https://sketch.com -->
    <title>footer-tel</title>
    <desc>Created with Sketch.</desc>
    <g id="设计稿" stroke="none" stroke-width="1" fill="none" fill-rule="evenodd">
        <g id="首页" transform="translate(-979.000000, -5033.000000)">
            <g id="footer" transform="translate(0.000000, 4908.000000)">
                <g id="联系我们" transform="translate(923.000000, 101.000000)">
                    <g id="footer-tel" transform="translate(56.000000, 24.000000)">
                        <rect x="0" y="0" width="380" height="26"></rect>
                        <path d="M4.8,19.224 C6.16533333,19.224 7.18933333,18.5946667 7.872,17.336 C8.42666667,16.2906667 8.704,14.9413333 8.704,13.288 C8.704,11.6133333 8.42666667,10.264 7.872,9.24 C7.2,7.98133333 6.176,7.352 4.8,7.352 C3.424,7.352 2.4,7.98133333 1.728,9.24 C1.17333333,10.2426667 0.896,11.592 0.896,13.288 C0.896,14.9733333 1.17333333,16.3226667 1.728,17.336 C2.41066667,18.5946667 3.43466667,19.224 4.8,19.224 Z M4.8,18.36 C3.69066667,18.36 2.896,17.7946667 2.416,16.664 C2.064,15.8106667 1.888,14.6853333 1.888,13.288 C1.888,11.8693333 2.064,10.744 2.416,9.912 C2.896,8.78133333 3.69066667,8.216 4.8,8.216 C5.89866667,8.216 6.69333333,8.78133333 7.184,9.912 C7.54666667,10.7653333 7.728,11.8906667 7.728,13.288 C7.728,14.664 7.54666667,15.7893333 7.184,16.664 C6.68266667,17.7946667 5.888,18.36 4.8,18.36 Z M18.112,19 L18.112,18.104 L11.888,18.104 C12.0693333,17.2186667 12.9706667,16.2266667 14.592,15.128 C15.7973333,14.3066667 16.5866667,13.6986667 16.96,13.304 C17.7173333,12.4933333 18.096,11.5973333 18.096,10.616 C18.096,9.624 17.76,8.83466667 17.088,8.248 C16.4266667,7.65066667 15.5786667,7.352 14.544,7.352 C13.424,7.352 12.528,7.72 11.856,8.456 C11.152,9.192 10.8,10.2 10.8,11.48 L10.8,11.48 L11.792,11.48 C11.792,10.4133333 12.048,9.60266667 12.56,9.048 C13.04,8.49333333 13.696,8.216 14.528,8.216 C15.3173333,8.216 15.9413333,8.424 16.4,8.84 C16.8693333,9.256 17.104,9.84266667 17.104,10.6 C17.104,11.3786667 16.7893333,12.1093333 16.16,12.792 C15.8293333,13.1226667 15.184,13.6293333 14.224,14.312 C13.0933333,15.0906667 12.2933333,15.7466667 11.824,16.28 C11.0666667,17.112 10.688,18.0186667 10.688,19 L10.688,19 L18.112,19 Z M23.92,19.224 C25.04,19.224 25.9733333,18.872 26.72,18.168 C27.4986667,17.4213333 27.888,16.488 27.888,15.368 C27.888,14.152 27.5413333,13.1866667 26.848,12.472 C26.176,11.8 25.296,11.464 24.208,11.464 C23.664,11.464 23.168,11.5653333 22.72,11.768 C22.2186667,11.9706667 21.7973333,12.2746667 21.456,12.68 L21.456,12.68 L21.408,12.68 L21.808,8.472 L27.456,8.472 L27.456,7.576 L20.992,7.576 L20.416,13.816 L21.344,13.816 C21.6,13.3253333 21.968,12.9466667 22.448,12.68 C22.9173333,12.424 23.44,12.296 24.016,12.296 C24.9013333,12.296 25.6,12.5573333 26.112,13.08 C26.6453333,13.6346667 26.912,14.3973333 26.912,15.368 C26.912,16.2213333 26.6293333,16.9413333 26.064,17.528 C25.4986667,18.0933333 24.784,18.376 23.92,18.376 C23.184,18.376 22.56,18.1786667 22.048,17.784 C21.4933333,17.3573333 21.1733333,16.7546667 21.088,15.976 L21.088,15.976 L20.112,15.976 C20.1973333,17.0106667 20.6293333,17.8213333 21.408,18.408 C22.1013333,18.952 22.9386667,19.224 23.92,19.224 Z M37.68,15.272 L37.68,14.44 L29.6,14.44 L29.6,15.272 L37.68,15.272 Z M43.44,19.224 C44.528,19.224 45.424,18.856 46.128,18.12 C46.832,17.384 47.184,16.456 47.184,15.336 C47.184,14.2266667 46.8533333,13.3253333 46.192,12.632 C45.5413333,11.9386667 44.672,11.592 43.584,11.592 C42.848,11.592 42.208,11.784 41.664,12.168 C41.088,12.552 40.672,13.08 40.416,13.752 L40.416,13.752 L40.352,13.752 L40.352,13.192 C40.352,11.7413333 40.6186667,10.5626667 41.152,9.656 C41.696,8.68533333 42.4586667,8.2 43.44,8.2 C44.8906667,8.2 45.7493333,8.92 46.016,10.36 L46.016,10.36 L46.992,10.36 C46.672,8.35466667 45.4933333,7.352 43.456,7.352 C42.1653333,7.352 41.152,7.96 40.416,9.176 C39.7333333,10.3066667 39.392,11.7733333 39.392,13.576 C39.392,15.336 39.7013333,16.6906667 40.32,17.64 C41.0133333,18.696 42.0533333,19.224 43.44,19.224 Z M43.408,18.376 C42.544,18.376 41.8453333,18.072 41.312,17.464 C40.8213333,16.8986667 40.576,16.1946667 40.576,15.352 C40.576,14.5093333 40.8533333,13.816 41.408,13.272 C41.9413333,12.7066667 42.6133333,12.424 43.424,12.424 C44.2773333,12.424 44.9546667,12.6906667 45.456,13.224 C45.9573333,13.7573333 46.208,14.4613333 46.208,15.336 C46.208,16.2106667 45.952,16.936 45.44,17.512 C44.928,18.088 44.2506667,18.376 43.408,18.376 Z M52.72,19.224 C54.0106667,19.224 55.024,18.616 55.76,17.4 C56.4426667,16.2266667 56.784,14.76 56.784,13 C56.784,11.2506667 56.4693333,9.89066667 55.84,8.92 C55.1573333,7.87466667 54.1226667,7.352 52.736,7.352 C51.648,7.352 50.752,7.72 50.048,8.456 C49.344,9.192 48.992,10.12 48.992,11.24 C48.992,12.3493333 49.3173333,13.2453333 49.968,13.928 C50.6293333,14.632 51.504,14.984 52.592,14.984 C53.3173333,14.984 53.9573333,14.792 54.512,14.408 C55.0773333,14.0026667 55.4933333,13.4746667 55.76,12.824 L55.76,12.824 L55.824,12.824 L55.824,13.384 C55.824,14.8026667 55.5573333,15.9813333 55.024,16.92 C54.4586667,17.8906667 53.696,18.376 52.736,18.376 C51.2746667,18.376 50.416,17.656 50.16,16.216 L50.16,16.216 L49.184,16.216 C49.504,18.2213333 50.6826667,19.224 52.72,19.224 Z M52.752,14.152 C51.9093333,14.152 51.232,13.8853333 50.72,13.352 C50.2186667,12.8186667 49.968,12.1146667 49.968,11.24 C49.968,10.3653333 50.224,9.64 50.736,9.064 C51.248,8.488 51.9253333,8.2 52.768,8.2 C53.6213333,8.2 54.32,8.504 54.864,9.112 C55.3546667,9.69866667 55.6,10.4026667 55.6,11.224 C55.6,12.0346667 55.3226667,12.728 54.768,13.304 C54.2026667,13.8693333 53.5306667,14.152 52.752,14.152 Z M62.32,19.224 C63.6106667,19.224 64.624,18.616 65.36,17.4 C66.0426667,16.2266667 66.384,14.76 66.384,13 C66.384,11.2506667 66.0693333,9.89066667 65.44,8.92 C64.7573333,7.87466667 63.7226667,7.352 62.336,7.352 C61.248,7.352 60.352,7.72 59.648,8.456 C58.944,9.192 58.592,10.12 58.592,11.24 C58.592,12.3493333 58.9173333,13.2453333 59.568,13.928 C60.2293333,14.632 61.104,14.984 62.192,14.984 C62.9173333,14.984 63.5573333,14.792 64.112,14.408 C64.6773333,14.0026667 65.0933333,13.4746667 65.36,12.824 L65.36,12.824 L65.424,12.824 L65.424,13.384 C65.424,14.8026667 65.1573333,15.9813333 64.624,16.92 C64.0586667,17.8906667 63.296,18.376 62.336,18.376 C60.8746667,18.376 60.016,17.656 59.76,16.216 L59.76,16.216 L58.784,16.216 C59.104,18.2213333 60.2826667,19.224 62.32,19.224 Z M62.352,14.152 C61.5093333,14.152 60.832,13.8853333 60.32,13.352 C59.8186667,12.8186667 59.568,12.1146667 59.568,11.24 C59.568,10.3653333 59.824,9.64 60.336,9.064 C60.848,8.488 61.5253333,8.2 62.368,8.2 C63.2213333,8.2 63.92,8.504 64.464,9.112 C64.9546667,9.69866667 65.2,10.4026667 65.2,11.224 C65.2,12.0346667 64.9226667,12.728 64.368,13.304 C63.8026667,13.8693333 63.1306667,14.152 62.352,14.152 Z M71.456,19 L75.776,8.392 L75.776,7.576 L68.4,7.576 L68.4,8.488 L74.752,8.488 L70.384,19 L71.456,19 Z M81.712,19.224 C82.832,19.224 83.76,18.8986667 84.496,18.248 C85.2106667,17.5866667 85.568,16.744 85.568,15.72 C85.568,15.0586667 85.3813333,14.4933333 85.008,14.024 C84.6453333,13.5546667 84.1333333,13.2186667 83.472,13.016 C84.7093333,12.6 85.328,11.736 85.328,10.424 C85.328,9.48533333 85.008,8.73866667 84.368,8.184 C83.7173333,7.62933333 82.8586667,7.352 81.792,7.352 C80.7466667,7.352 79.8933333,7.656 79.232,8.264 C78.5386667,8.89333333 78.144,9.74133333 78.048,10.808 L78.048,10.808 L79.024,10.808 C79.12,9.98666667 79.408,9.352 79.888,8.904 C80.3466667,8.44533333 80.9813333,8.216 81.792,8.216 C82.6026667,8.216 83.2373333,8.424 83.696,8.84 C84.1333333,9.256 84.352,9.8 84.352,10.472 C84.352,11.1546667 84.1386667,11.6933333 83.712,12.088 C83.2533333,12.4613333 82.624,12.648 81.824,12.648 L81.824,12.648 L80.912,12.648 L80.912,13.448 L81.92,13.448 C82.7413333,13.448 83.3866667,13.6506667 83.856,14.056 C84.3466667,14.4826667 84.592,15.048 84.592,15.752 C84.592,16.4986667 84.336,17.1226667 83.824,17.624 C83.2693333,18.1253333 82.56,18.376 81.696,18.376 C80.9493333,18.376 80.32,18.168 79.808,17.752 C79.168,17.24 78.8266667,16.4986667 78.784,15.528 L78.784,15.528 L77.792,15.528 C77.888,16.8293333 78.3466667,17.7946667 79.168,18.424 C79.8506667,18.9573333 80.6986667,19.224 81.712,19.224 Z M91.28,19.224 C92.5706667,19.224 93.5733333,18.9093333 94.288,18.28 C94.9706667,17.6613333 95.312,16.8613333 95.312,15.88 C95.312,15.1333333 95.088,14.488 94.64,13.944 C94.192,13.4 93.6586667,13.064 93.04,12.936 L93.04,12.936 L93.04,12.872 C93.648,12.68 94.1173333,12.3546667 94.448,11.896 C94.7573333,11.4373333 94.912,10.9093333 94.912,10.312 C94.912,9.49066667 94.6133333,8.808 94.016,8.264 C93.3653333,7.656 92.4533333,7.352 91.28,7.352 C90.096,7.352 89.184,7.656 88.544,8.264 C87.9466667,8.79733333 87.648,9.48 87.648,10.312 C87.648,10.9306667 87.8026667,11.4586667 88.112,11.896 C88.4426667,12.3546667 88.9173333,12.68 89.536,12.872 L89.536,12.872 L89.536,12.936 C88.8853333,13.064 88.3466667,13.4 87.92,13.944 C87.472,14.488 87.248,15.1333333 87.248,15.88 C87.248,16.872 87.5893333,17.672 88.272,18.28 C88.9866667,18.9093333 89.9893333,19.224 91.28,19.224 Z M91.28,12.536 C90.3413333,12.536 89.6373333,12.312 89.168,11.864 C88.784,11.48 88.592,10.9733333 88.592,10.344 C88.592,9.736 88.8,9.24 89.216,8.856 C89.696,8.408 90.384,8.184 91.28,8.184 C92.1653333,8.184 92.8533333,8.408 93.344,8.856 C93.76,9.24 93.968,9.736 93.968,10.344 C93.968,10.9733333 93.776,11.48 93.392,11.864 C92.912,12.312 92.208,12.536 91.28,12.536 Z M91.28,18.408 C90.2773333,18.408 89.504,18.1626667 88.96,17.672 C88.4586667,17.2346667 88.208,16.6373333 88.208,15.88 C88.208,15.1333333 88.464,14.536 88.976,14.088 C89.5093333,13.5866667 90.2773333,13.336 91.28,13.336 C92.2826667,13.336 93.0506667,13.5866667 93.584,14.088 C94.096,14.536 94.352,15.1333333 94.352,15.88 C94.352,16.616 94.1066667,17.2133333 93.616,17.672 C93.0613333,18.1626667 92.2826667,18.408 91.28,18.408 Z M100.88,19.224 C102.170667,19.224 103.173333,18.9093333 103.888,18.28 C104.570667,17.6613333 104.912,16.8613333 104.912,15.88 C104.912,15.1333333 104.688,14.488 104.24,13.944 C103.792,13.4 103.258667,13.064 102.64,12.936 L102.64,12.936 L102.64,12.872 C103.248,12.68 103.717333,12.3546667 104.048,11.896 C104.357333,11.4373333 104.512,10.9093333 104.512,10.312 C104.512,9.49066667 104.213333,8.808 103.616,8.264 C102.965333,7.656 102.053333,7.352 100.88,7.352 C99.696,7.352 98.784,7.656 98.144,8.264 C97.5466667,8.79733333 97.248,9.48 97.248,10.312 C97.248,10.9306667 97.4026667,11.4586667 97.712,11.896 C98.0426667,12.3546667 98.5173333,12.68 99.136,12.872 L99.136,12.872 L99.136,12.936 C98.4853333,13.064 97.9466667,13.4 97.52,13.944 C97.072,14.488 96.848,15.1333333 96.848,15.88 C96.848,16.872 97.1893333,17.672 97.872,18.28 C98.5866667,18.9093333 99.5893333,19.224 100.88,19.224 Z M100.88,12.536 C99.9413333,12.536 99.2373333,12.312 98.768,11.864 C98.384,11.48 98.192,10.9733333 98.192,10.344 C98.192,9.736 98.4,9.24 98.816,8.856 C99.296,8.408 99.984,8.184 100.88,8.184 C101.765333,8.184 102.453333,8.408 102.944,8.856 C103.36,9.24 103.568,9.736 103.568,10.344 C103.568,10.9733333 103.376,11.48 102.992,11.864 C102.512,12.312 101.808,12.536 100.88,12.536 Z M100.88,18.408 C99.8773333,18.408 99.104,18.1626667 98.56,17.672 C98.0586667,17.2346667 97.808,16.6373333 97.808,15.88 C97.808,15.1333333 98.064,14.536 98.576,14.088 C99.1093333,13.5866667 99.8773333,13.336 100.88,13.336 C101.882667,13.336 102.650667,13.5866667 103.184,14.088 C103.696,14.536 103.952,15.1333333 103.952,15.88 C103.952,16.616 103.706667,17.2133333 103.216,17.672 C102.661333,18.1626667 101.882667,18.408 100.88,18.408 Z M110.4,19.224 C111.52,19.224 112.453333,18.872 113.2,18.168 C113.978667,17.4213333 114.368,16.488 114.368,15.368 C114.368,14.152 114.021333,13.1866667 113.328,12.472 C112.656,11.8 111.776,11.464 110.688,11.464 C110.144,11.464 109.648,11.5653333 109.2,11.768 C108.698667,11.9706667 108.277333,12.2746667 107.936,12.68 L107.936,12.68 L107.888,12.68 L108.288,8.472 L113.936,8.472 L113.936,7.576 L107.472,7.576 L106.896,13.816 L107.824,13.816 C108.08,13.3253333 108.448,12.9466667 108.928,12.68 C109.397333,12.424 109.92,12.296 110.496,12.296 C111.381333,12.296 112.08,12.5573333 112.592,13.08 C113.125333,13.6346667 113.392,14.3973333 113.392,15.368 C113.392,16.2213333 113.109333,16.9413333 112.544,17.528 C111.978667,18.0933333 111.264,18.376 110.4,18.376 C109.664,18.376 109.04,18.1786667 108.528,17.784 C107.973333,17.3573333 107.653333,16.7546667 107.568,15.976 L107.568,15.976 L106.592,15.976 C106.677333,17.0106667 107.109333,17.8213333 107.888,18.408 C108.581333,18.952 109.418667,19.224 110.4,19.224 Z M136.064,19.224 C137.429333,19.224 138.453333,18.5946667 139.136,17.336 C139.690667,16.2906667 139.968,14.9413333 139.968,13.288 C139.968,11.6133333 139.690667,10.264 139.136,9.24 C138.464,7.98133333 137.44,7.352 136.064,7.352 C134.688,7.352 133.664,7.98133333 132.992,9.24 C132.437333,10.2426667 132.16,11.592 132.16,13.288 C132.16,14.9733333 132.437333,16.3226667 132.992,17.336 C133.674667,18.5946667 134.698667,19.224 136.064,19.224 Z M136.064,18.36 C134.954667,18.36 134.16,17.7946667 133.68,16.664 C133.328,15.8106667 133.152,14.6853333 133.152,13.288 C133.152,11.8693333 133.328,10.744 133.68,9.912 C134.16,8.78133333 134.954667,8.216 136.064,8.216 C137.162667,8.216 137.957333,8.78133333 138.448,9.912 C138.810667,10.7653333 138.992,11.8906667 138.992,13.288 C138.992,14.664 138.810667,15.7893333 138.448,16.664 C137.946667,17.7946667 137.152,18.36 136.064,18.36 Z M149.376,19 L149.376,18.104 L143.152,18.104 C143.333333,17.2186667 144.234667,16.2266667 145.856,15.128 C147.061333,14.3066667 147.850667,13.6986667 148.224,13.304 C148.981333,12.4933333 149.36,11.5973333 149.36,10.616 C149.36,9.624 149.024,8.83466667 148.352,8.248 C147.690667,7.65066667 146.842667,7.352 145.808,7.352 C144.688,7.352 143.792,7.72 143.12,8.456 C142.416,9.192 142.064,10.2 142.064,11.48 L142.064,11.48 L143.056,11.48 C143.056,10.4133333 143.312,9.60266667 143.824,9.048 C144.304,8.49333333 144.96,8.216 145.792,8.216 C146.581333,8.216 147.205333,8.424 147.664,8.84 C148.133333,9.256 148.368,9.84266667 148.368,10.6 C148.368,11.3786667 148.053333,12.1093333 147.424,12.792 C147.093333,13.1226667 146.448,13.6293333 145.488,14.312 C144.357333,15.0906667 143.557333,15.7466667 143.088,16.28 C142.330667,17.112 141.952,18.0186667 141.952,19 L141.952,19 L149.376,19 Z M155.184,19.224 C156.304,19.224 157.237333,18.872 157.984,18.168 C158.762667,17.4213333 159.152,16.488 159.152,15.368 C159.152,14.152 158.805333,13.1866667 158.112,12.472 C157.44,11.8 156.56,11.464 155.472,11.464 C154.928,11.464 154.432,11.5653333 153.984,11.768 C153.482667,11.9706667 153.061333,12.2746667 152.72,12.68 L152.72,12.68 L152.672,12.68 L153.072,8.472 L158.72,8.472 L158.72,7.576 L152.256,7.576 L151.68,13.816 L152.608,13.816 C152.864,13.3253333 153.232,12.9466667 153.712,12.68 C154.181333,12.424 154.704,12.296 155.28,12.296 C156.165333,12.296 156.864,12.5573333 157.376,13.08 C157.909333,13.6346667 158.176,14.3973333 158.176,15.368 C158.176,16.2213333 157.893333,16.9413333 157.328,17.528 C156.762667,18.0933333 156.048,18.376 155.184,18.376 C154.448,18.376 153.824,18.1786667 153.312,17.784 C152.757333,17.3573333 152.437333,16.7546667 152.352,15.976 L152.352,15.976 L151.376,15.976 C151.461333,17.0106667 151.893333,17.8213333 152.672,18.408 C153.365333,18.952 154.202667,19.224 155.184,19.224 Z M168.944,15.272 L168.944,14.44 L160.864,14.44 L160.864,15.272 L168.944,15.272 Z M174.704,19.224 C175.792,19.224 176.688,18.856 177.392,18.12 C178.096,17.384 178.448,16.456 178.448,15.336 C178.448,14.2266667 178.117333,13.3253333 177.456,12.632 C176.805333,11.9386667 175.936,11.592 174.848,11.592 C174.112,11.592 173.472,11.784 172.928,12.168 C172.352,12.552 171.936,13.08 171.68,13.752 L171.68,13.752 L171.616,13.752 L171.616,13.192 C171.616,11.7413333 171.882667,10.5626667 172.416,9.656 C172.96,8.68533333 173.722667,8.2 174.704,8.2 C176.154667,8.2 177.013333,8.92 177.28,10.36 L177.28,10.36 L178.256,10.36 C177.936,8.35466667 176.757333,7.352 174.72,7.352 C173.429333,7.352 172.416,7.96 171.68,9.176 C170.997333,10.3066667 170.656,11.7733333 170.656,13.576 C170.656,15.336 170.965333,16.6906667 171.584,17.64 C172.277333,18.696 173.317333,19.224 174.704,19.224 Z M174.672,18.376 C173.808,18.376 173.109333,18.072 172.576,17.464 C172.085333,16.8986667 171.84,16.1946667 171.84,15.352 C171.84,14.5093333 172.117333,13.816 172.672,13.272 C173.205333,12.7066667 173.877333,12.424 174.688,12.424 C175.541333,12.424 176.218667,12.6906667 176.72,13.224 C177.221333,13.7573333 177.472,14.4613333 177.472,15.336 C177.472,16.2106667 177.216,16.936 176.704,17.512 C176.192,18.088 175.514667,18.376 174.672,18.376 Z M183.984,19.224 C185.274667,19.224 186.288,18.616 187.024,17.4 C187.706667,16.2266667 188.048,14.76 188.048,13 C188.048,11.2506667 187.733333,9.89066667 187.104,8.92 C186.421333,7.87466667 185.386667,7.352 184,7.352 C182.912,7.352 182.016,7.72 181.312,8.456 C180.608,9.192 180.256,10.12 180.256,11.24 C180.256,12.3493333 180.581333,13.2453333 181.232,13.928 C181.893333,14.632 182.768,14.984 183.856,14.984 C184.581333,14.984 185.221333,14.792 185.776,14.408 C186.341333,14.0026667 186.757333,13.4746667 187.024,12.824 L187.024,12.824 L187.088,12.824 L187.088,13.384 C187.088,14.8026667 186.821333,15.9813333 186.288,16.92 C185.722667,17.8906667 184.96,18.376 184,18.376 C182.538667,18.376 181.68,17.656 181.424,16.216 L181.424,16.216 L180.448,16.216 C180.768,18.2213333 181.946667,19.224 183.984,19.224 Z M184.016,14.152 C183.173333,14.152 182.496,13.8853333 181.984,13.352 C181.482667,12.8186667 181.232,12.1146667 181.232,11.24 C181.232,10.3653333 181.488,9.64 182,9.064 C182.512,8.488 183.189333,8.2 184.032,8.2 C184.885333,8.2 185.584,8.504 186.128,9.112 C186.618667,9.69866667 186.864,10.4026667 186.864,11.224 C186.864,12.0346667 186.586667,12.728 186.032,13.304 C185.466667,13.8693333 184.794667,14.152 184.016,14.152 Z M193.584,19.224 C194.874667,19.224 195.888,18.616 196.624,17.4 C197.306667,16.2266667 197.648,14.76 197.648,13 C197.648,11.2506667 197.333333,9.89066667 196.704,8.92 C196.021333,7.87466667 194.986667,7.352 193.6,7.352 C192.512,7.352 191.616,7.72 190.912,8.456 C190.208,9.192 189.856,10.12 189.856,11.24 C189.856,12.3493333 190.181333,13.2453333 190.832,13.928 C191.493333,14.632 192.368,14.984 193.456,14.984 C194.181333,14.984 194.821333,14.792 195.376,14.408 C195.941333,14.0026667 196.357333,13.4746667 196.624,12.824 L196.624,12.824 L196.688,12.824 L196.688,13.384 C196.688,14.8026667 196.421333,15.9813333 195.888,16.92 C195.322667,17.8906667 194.56,18.376 193.6,18.376 C192.138667,18.376 191.28,17.656 191.024,16.216 L191.024,16.216 L190.048,16.216 C190.368,18.2213333 191.546667,19.224 193.584,19.224 Z M193.616,14.152 C192.773333,14.152 192.096,13.8853333 191.584,13.352 C191.082667,12.8186667 190.832,12.1146667 190.832,11.24 C190.832,10.3653333 191.088,9.64 191.6,9.064 C192.112,8.488 192.789333,8.2 193.632,8.2 C194.485333,8.2 195.184,8.504 195.728,9.112 C196.218667,9.69866667 196.464,10.4026667 196.464,11.224 C196.464,12.0346667 196.186667,12.728 195.632,13.304 C195.066667,13.8693333 194.394667,14.152 193.616,14.152 Z M202.72,19 L207.04,8.392 L207.04,7.576 L199.664,7.576 L199.664,8.488 L206.016,8.488 L201.648,19 L202.72,19 Z M212.976,19.224 C214.096,19.224 215.024,18.8986667 215.76,18.248 C216.474667,17.5866667 216.832,16.744 216.832,15.72 C216.832,15.0586667 216.645333,14.4933333 216.272,14.024 C215.909333,13.5546667 215.397333,13.2186667 214.736,13.016 C215.973333,12.6 216.592,11.736 216.592,10.424 C216.592,9.48533333 216.272,8.73866667 215.632,8.184 C214.981333,7.62933333 214.122667,7.352 213.056,7.352 C212.010667,7.352 211.157333,7.656 210.496,8.264 C209.802667,8.89333333 209.408,9.74133333 209.312,10.808 L209.312,10.808 L210.288,10.808 C210.384,9.98666667 210.672,9.352 211.152,8.904 C211.610667,8.44533333 212.245333,8.216 213.056,8.216 C213.866667,8.216 214.501333,8.424 214.96,8.84 C215.397333,9.256 215.616,9.8 215.616,10.472 C215.616,11.1546667 215.402667,11.6933333 214.976,12.088 C214.517333,12.4613333 213.888,12.648 213.088,12.648 L213.088,12.648 L212.176,12.648 L212.176,13.448 L213.184,13.448 C214.005333,13.448 214.650667,13.6506667 215.12,14.056 C215.610667,14.4826667 215.856,15.048 215.856,15.752 C215.856,16.4986667 215.6,17.1226667 215.088,17.624 C214.533333,18.1253333 213.824,18.376 212.96,18.376 C212.213333,18.376 211.584,18.168 211.072,17.752 C210.432,17.24 210.090667,16.4986667 210.048,15.528 L210.048,15.528 L209.056,15.528 C209.152,16.8293333 209.610667,17.7946667 210.432,18.424 C211.114667,18.9573333 211.962667,19.224 212.976,19.224 Z M222.544,19.224 C223.834667,19.224 224.837333,18.9093333 225.552,18.28 C226.234667,17.6613333 226.576,16.8613333 226.576,15.88 C226.576,15.1333333 226.352,14.488 225.904,13.944 C225.456,13.4 224.922667,13.064 224.304,12.936 L224.304,12.936 L224.304,12.872 C224.912,12.68 225.381333,12.3546667 225.712,11.896 C226.021333,11.4373333 226.176,10.9093333 226.176,10.312 C226.176,9.49066667 225.877333,8.808 225.28,8.264 C224.629333,7.656 223.717333,7.352 222.544,7.352 C221.36,7.352 220.448,7.656 219.808,8.264 C219.210667,8.79733333 218.912,9.48 218.912,10.312 C218.912,10.9306667 219.066667,11.4586667 219.376,11.896 C219.706667,12.3546667 220.181333,12.68 220.8,12.872 L220.8,12.872 L220.8,12.936 C220.149333,13.064 219.610667,13.4 219.184,13.944 C218.736,14.488 218.512,15.1333333 218.512,15.88 C218.512,16.872 218.853333,17.672 219.536,18.28 C220.250667,18.9093333 221.253333,19.224 222.544,19.224 Z M222.544,12.536 C221.605333,12.536 220.901333,12.312 220.432,11.864 C220.048,11.48 219.856,10.9733333 219.856,10.344 C219.856,9.736 220.064,9.24 220.48,8.856 C220.96,8.408 221.648,8.184 222.544,8.184 C223.429333,8.184 224.117333,8.408 224.608,8.856 C225.024,9.24 225.232,9.736 225.232,10.344 C225.232,10.9733333 225.04,11.48 224.656,11.864 C224.176,12.312 223.472,12.536 222.544,12.536 Z M222.544,18.408 C221.541333,18.408 220.768,18.1626667 220.224,17.672 C219.722667,17.2346667 219.472,16.6373333 219.472,15.88 C219.472,15.1333333 219.728,14.536 220.24,14.088 C220.773333,13.5866667 221.541333,13.336 222.544,13.336 C223.546667,13.336 224.314667,13.5866667 224.848,14.088 C225.36,14.536 225.616,15.1333333 225.616,15.88 C225.616,16.616 225.370667,17.2133333 224.88,17.672 C224.325333,18.1626667 223.546667,18.408 222.544,18.408 Z M232.144,19.224 C233.434667,19.224 234.437333,18.9093333 235.152,18.28 C235.834667,17.6613333 236.176,16.8613333 236.176,15.88 C236.176,15.1333333 235.952,14.488 235.504,13.944 C235.056,13.4 234.522667,13.064 233.904,12.936 L233.904,12.936 L233.904,12.872 C234.512,12.68 234.981333,12.3546667 235.312,11.896 C235.621333,11.4373333 235.776,10.9093333 235.776,10.312 C235.776,9.49066667 235.477333,8.808 234.88,8.264 C234.229333,7.656 233.317333,7.352 232.144,7.352 C230.96,7.352 230.048,7.656 229.408,8.264 C228.810667,8.79733333 228.512,9.48 228.512,10.312 C228.512,10.9306667 228.666667,11.4586667 228.976,11.896 C229.306667,12.3546667 229.781333,12.68 230.4,12.872 L230.4,12.872 L230.4,12.936 C229.749333,13.064 229.210667,13.4 228.784,13.944 C228.336,14.488 228.112,15.1333333 228.112,15.88 C228.112,16.872 228.453333,17.672 229.136,18.28 C229.850667,18.9093333 230.853333,19.224 232.144,19.224 Z M232.144,12.536 C231.205333,12.536 230.501333,12.312 230.032,11.864 C229.648,11.48 229.456,10.9733333 229.456,10.344 C229.456,9.736 229.664,9.24 230.08,8.856 C230.56,8.408 231.248,8.184 232.144,8.184 C233.029333,8.184 233.717333,8.408 234.208,8.856 C234.624,9.24 234.832,9.736 234.832,10.344 C234.832,10.9733333 234.64,11.48 234.256,11.864 C233.776,12.312 233.072,12.536 232.144,12.536 Z M232.144,18.408 C231.141333,18.408 230.368,18.1626667 229.824,17.672 C229.322667,17.2346667 229.072,16.6373333 229.072,15.88 C229.072,15.1333333 229.328,14.536 229.84,14.088 C230.373333,13.5866667 231.141333,13.336 232.144,13.336 C233.146667,13.336 233.914667,13.5866667 234.448,14.088 C234.96,14.536 235.216,15.1333333 235.216,15.88 C235.216,16.616 234.970667,17.2133333 234.48,17.672 C233.925333,18.1626667 233.146667,18.408 232.144,18.408 Z M241.904,19.224 C242.992,19.224 243.888,18.856 244.592,18.12 C245.296,17.384 245.648,16.456 245.648,15.336 C245.648,14.2266667 245.317333,13.3253333 244.656,12.632 C244.005333,11.9386667 243.136,11.592 242.048,11.592 C241.312,11.592 240.672,11.784 240.128,12.168 C239.552,12.552 239.136,13.08 238.88,13.752 L238.88,13.752 L238.816,13.752 L238.816,13.192 C238.816,11.7413333 239.082667,10.5626667 239.616,9.656 C240.16,8.68533333 240.922667,8.2 241.904,8.2 C243.354667,8.2 244.213333,8.92 244.48,10.36 L244.48,10.36 L245.456,10.36 C245.136,8.35466667 243.957333,7.352 241.92,7.352 C240.629333,7.352 239.616,7.96 238.88,9.176 C238.197333,10.3066667 237.856,11.7733333 237.856,13.576 C237.856,15.336 238.165333,16.6906667 238.784,17.64 C239.477333,18.696 240.517333,19.224 241.904,19.224 Z M241.872,18.376 C241.008,18.376 240.309333,18.072 239.776,17.464 C239.285333,16.8986667 239.04,16.1946667 239.04,15.352 C239.04,14.5093333 239.317333,13.816 239.872,13.272 C240.405333,12.7066667 241.077333,12.424 241.888,12.424 C242.741333,12.424 243.418667,12.6906667 243.92,13.224 C244.421333,13.7573333 244.672,14.4613333 244.672,15.336 C244.672,16.2106667 244.416,16.936 243.904,17.512 C243.392,18.088 242.714667,18.376 241.872,18.376 Z M267.328,19.224 C268.693333,19.224 269.717333,18.5946667 270.4,17.336 C270.954667,16.2906667 271.232,14.9413333 271.232,13.288 C271.232,11.6133333 270.954667,10.264 270.4,9.24 C269.728,7.98133333 268.704,7.352 267.328,7.352 C265.952,7.352 264.928,7.98133333 264.256,9.24 C263.701333,10.2426667 263.424,11.592 263.424,13.288 C263.424,14.9733333 263.701333,16.3226667 264.256,17.336 C264.938667,18.5946667 265.962667,19.224 267.328,19.224 Z M267.328,18.36 C266.218667,18.36 265.424,17.7946667 264.944,16.664 C264.592,15.8106667 264.416,14.6853333 264.416,13.288 C264.416,11.8693333 264.592,10.744 264.944,9.912 C265.424,8.78133333 266.218667,8.216 267.328,8.216 C268.426667,8.216 269.221333,8.78133333 269.712,9.912 C270.074667,10.7653333 270.256,11.8906667 270.256,13.288 C270.256,14.664 270.074667,15.7893333 269.712,16.664 C269.210667,17.7946667 268.416,18.36 267.328,18.36 Z M280.64,19 L280.64,18.104 L274.416,18.104 C274.597333,17.2186667 275.498667,16.2266667 277.12,15.128 C278.325333,14.3066667 279.114667,13.6986667 279.488,13.304 C280.245333,12.4933333 280.624,11.5973333 280.624,10.616 C280.624,9.624 280.288,8.83466667 279.616,8.248 C278.954667,7.65066667 278.106667,7.352 277.072,7.352 C275.952,7.352 275.056,7.72 274.384,8.456 C273.68,9.192 273.328,10.2 273.328,11.48 L273.328,11.48 L274.32,11.48 C274.32,10.4133333 274.576,9.60266667 275.088,9.048 C275.568,8.49333333 276.224,8.216 277.056,8.216 C277.845333,8.216 278.469333,8.424 278.928,8.84 C279.397333,9.256 279.632,9.84266667 279.632,10.6 C279.632,11.3786667 279.317333,12.1093333 278.688,12.792 C278.357333,13.1226667 277.712,13.6293333 276.752,14.312 C275.621333,15.0906667 274.821333,15.7466667 274.352,16.28 C273.594667,17.112 273.216,18.0186667 273.216,19 L273.216,19 L280.64,19 Z M286.448,19.224 C287.568,19.224 288.501333,18.872 289.248,18.168 C290.026667,17.4213333 290.416,16.488 290.416,15.368 C290.416,14.152 290.069333,13.1866667 289.376,12.472 C288.704,11.8 287.824,11.464 286.736,11.464 C286.192,11.464 285.696,11.5653333 285.248,11.768 C284.746667,11.9706667 284.325333,12.2746667 283.984,12.68 L283.984,12.68 L283.936,12.68 L284.336,8.472 L289.984,8.472 L289.984,7.576 L283.52,7.576 L282.944,13.816 L283.872,13.816 C284.128,13.3253333 284.496,12.9466667 284.976,12.68 C285.445333,12.424 285.968,12.296 286.544,12.296 C287.429333,12.296 288.128,12.5573333 288.64,13.08 C289.173333,13.6346667 289.44,14.3973333 289.44,15.368 C289.44,16.2213333 289.157333,16.9413333 288.592,17.528 C288.026667,18.0933333 287.312,18.376 286.448,18.376 C285.712,18.376 285.088,18.1786667 284.576,17.784 C284.021333,17.3573333 283.701333,16.7546667 283.616,15.976 L283.616,15.976 L282.64,15.976 C282.725333,17.0106667 283.157333,17.8213333 283.936,18.408 C284.629333,18.952 285.466667,19.224 286.448,19.224 Z M300.208,15.272 L300.208,14.44 L292.128,14.44 L292.128,15.272 L300.208,15.272 Z M305.968,19.224 C307.056,19.224 307.952,18.856 308.656,18.12 C309.36,17.384 309.712,16.456 309.712,15.336 C309.712,14.2266667 309.381333,13.3253333 308.72,12.632 C308.069333,11.9386667 307.2,11.592 306.112,11.592 C305.376,11.592 304.736,11.784 304.192,12.168 C303.616,12.552 303.2,13.08 302.944,13.752 L302.944,13.752 L302.88,13.752 L302.88,13.192 C302.88,11.7413333 303.146667,10.5626667 303.68,9.656 C304.224,8.68533333 304.986667,8.2 305.968,8.2 C307.418667,8.2 308.277333,8.92 308.544,10.36 L308.544,10.36 L309.52,10.36 C309.2,8.35466667 308.021333,7.352 305.984,7.352 C304.693333,7.352 303.68,7.96 302.944,9.176 C302.261333,10.3066667 301.92,11.7733333 301.92,13.576 C301.92,15.336 302.229333,16.6906667 302.848,17.64 C303.541333,18.696 304.581333,19.224 305.968,19.224 Z M305.936,18.376 C305.072,18.376 304.373333,18.072 303.84,17.464 C303.349333,16.8986667 303.104,16.1946667 303.104,15.352 C303.104,14.5093333 303.381333,13.816 303.936,13.272 C304.469333,12.7066667 305.141333,12.424 305.952,12.424 C306.805333,12.424 307.482667,12.6906667 307.984,13.224 C308.485333,13.7573333 308.736,14.4613333 308.736,15.336 C308.736,16.2106667 308.48,16.936 307.968,17.512 C307.456,18.088 306.778667,18.376 305.936,18.376 Z M315.248,19.224 C316.538667,19.224 317.552,18.616 318.288,17.4 C318.970667,16.2266667 319.312,14.76 319.312,13 C319.312,11.2506667 318.997333,9.89066667 318.368,8.92 C317.685333,7.87466667 316.650667,7.352 315.264,7.352 C314.176,7.352 313.28,7.72 312.576,8.456 C311.872,9.192 311.52,10.12 311.52,11.24 C311.52,12.3493333 311.845333,13.2453333 312.496,13.928 C313.157333,14.632 314.032,14.984 315.12,14.984 C315.845333,14.984 316.485333,14.792 317.04,14.408 C317.605333,14.0026667 318.021333,13.4746667 318.288,12.824 L318.288,12.824 L318.352,12.824 L318.352,13.384 C318.352,14.8026667 318.085333,15.9813333 317.552,16.92 C316.986667,17.8906667 316.224,18.376 315.264,18.376 C313.802667,18.376 312.944,17.656 312.688,16.216 L312.688,16.216 L311.712,16.216 C312.032,18.2213333 313.210667,19.224 315.248,19.224 Z M315.28,14.152 C314.437333,14.152 313.76,13.8853333 313.248,13.352 C312.746667,12.8186667 312.496,12.1146667 312.496,11.24 C312.496,10.3653333 312.752,9.64 313.264,9.064 C313.776,8.488 314.453333,8.2 315.296,8.2 C316.149333,8.2 316.848,8.504 317.392,9.112 C317.882667,9.69866667 318.128,10.4026667 318.128,11.224 C318.128,12.0346667 317.850667,12.728 317.296,13.304 C316.730667,13.8693333 316.058667,14.152 315.28,14.152 Z M324.848,19.224 C326.138667,19.224 327.152,18.616 327.888,17.4 C328.570667,16.2266667 328.912,14.76 328.912,13 C328.912,11.2506667 328.597333,9.89066667 327.968,8.92 C327.285333,7.87466667 326.250667,7.352 324.864,7.352 C323.776,7.352 322.88,7.72 322.176,8.456 C321.472,9.192 321.12,10.12 321.12,11.24 C321.12,12.3493333 321.445333,13.2453333 322.096,13.928 C322.757333,14.632 323.632,14.984 324.72,14.984 C325.445333,14.984 326.085333,14.792 326.64,14.408 C327.205333,14.0026667 327.621333,13.4746667 327.888,12.824 L327.888,12.824 L327.952,12.824 L327.952,13.384 C327.952,14.8026667 327.685333,15.9813333 327.152,16.92 C326.586667,17.8906667 325.824,18.376 324.864,18.376 C323.402667,18.376 322.544,17.656 322.288,16.216 L322.288,16.216 L321.312,16.216 C321.632,18.2213333 322.810667,19.224 324.848,19.224 Z M324.88,14.152 C324.037333,14.152 323.36,13.8853333 322.848,13.352 C322.346667,12.8186667 322.096,12.1146667 322.096,11.24 C322.096,10.3653333 322.352,9.64 322.864,9.064 C323.376,8.488 324.053333,8.2 324.896,8.2 C325.749333,8.2 326.448,8.504 326.992,9.112 C327.482667,9.69866667 327.728,10.4026667 327.728,11.224 C327.728,12.0346667 327.450667,12.728 326.896,13.304 C326.330667,13.8693333 325.658667,14.152 324.88,14.152 Z M333.984,19 L338.304,8.392 L338.304,7.576 L330.928,7.576 L330.928,8.488 L337.28,8.488 L332.912,19 L333.984,19 Z M344.24,19.224 C345.36,19.224 346.288,18.8986667 347.024,18.248 C347.738667,17.5866667 348.096,16.744 348.096,15.72 C348.096,15.0586667 347.909333,14.4933333 347.536,14.024 C347.173333,13.5546667 346.661333,13.2186667 346,13.016 C347.237333,12.6 347.856,11.736 347.856,10.424 C347.856,9.48533333 347.536,8.73866667 346.896,8.184 C346.245333,7.62933333 345.386667,7.352 344.32,7.352 C343.274667,7.352 342.421333,7.656 341.76,8.264 C341.066667,8.89333333 340.672,9.74133333 340.576,10.808 L340.576,10.808 L341.552,10.808 C341.648,9.98666667 341.936,9.352 342.416,8.904 C342.874667,8.44533333 343.509333,8.216 344.32,8.216 C345.130667,8.216 345.765333,8.424 346.224,8.84 C346.661333,9.256 346.88,9.8 346.88,10.472 C346.88,11.1546667 346.666667,11.6933333 346.24,12.088 C345.781333,12.4613333 345.152,12.648 344.352,12.648 L344.352,12.648 L343.44,12.648 L343.44,13.448 L344.448,13.448 C345.269333,13.448 345.914667,13.6506667 346.384,14.056 C346.874667,14.4826667 347.12,15.048 347.12,15.752 C347.12,16.4986667 346.864,17.1226667 346.352,17.624 C345.797333,18.1253333 345.088,18.376 344.224,18.376 C343.477333,18.376 342.848,18.168 342.336,17.752 C341.696,17.24 341.354667,16.4986667 341.312,15.528 L341.312,15.528 L340.32,15.528 C340.416,16.8293333 340.874667,17.7946667 341.696,18.424 C342.378667,18.9573333 343.226667,19.224 344.24,19.224 Z M353.808,19.224 C355.098667,19.224 356.101333,18.9093333 356.816,18.28 C357.498667,17.6613333 357.84,16.8613333 357.84,15.88 C357.84,15.1333333 357.616,14.488 357.168,13.944 C356.72,13.4 356.186667,13.064 355.568,12.936 L355.568,12.936 L355.568,12.872 C356.176,12.68 356.645333,12.3546667 356.976,11.896 C357.285333,11.4373333 357.44,10.9093333 357.44,10.312 C357.44,9.49066667 357.141333,8.808 356.544,8.264 C355.893333,7.656 354.981333,7.352 353.808,7.352 C352.624,7.352 351.712,7.656 351.072,8.264 C350.474667,8.79733333 350.176,9.48 350.176,10.312 C350.176,10.9306667 350.330667,11.4586667 350.64,11.896 C350.970667,12.3546667 351.445333,12.68 352.064,12.872 L352.064,12.872 L352.064,12.936 C351.413333,13.064 350.874667,13.4 350.448,13.944 C350,14.488 349.776,15.1333333 349.776,15.88 C349.776,16.872 350.117333,17.672 350.8,18.28 C351.514667,18.9093333 352.517333,19.224 353.808,19.224 Z M353.808,12.536 C352.869333,12.536 352.165333,12.312 351.696,11.864 C351.312,11.48 351.12,10.9733333 351.12,10.344 C351.12,9.736 351.328,9.24 351.744,8.856 C352.224,8.408 352.912,8.184 353.808,8.184 C354.693333,8.184 355.381333,8.408 355.872,8.856 C356.288,9.24 356.496,9.736 356.496,10.344 C356.496,10.9733333 356.304,11.48 355.92,11.864 C355.44,12.312 354.736,12.536 353.808,12.536 Z M353.808,18.408 C352.805333,18.408 352.032,18.1626667 351.488,17.672 C350.986667,17.2346667 350.736,16.6373333 350.736,15.88 C350.736,15.1333333 350.992,14.536 351.504,14.088 C352.037333,13.5866667 352.805333,13.336 353.808,13.336 C354.810667,13.336 355.578667,13.5866667 356.112,14.088 C356.624,14.536 356.88,15.1333333 356.88,15.88 C356.88,16.616 356.634667,17.2133333 356.144,17.672 C355.589333,18.1626667 354.810667,18.408 353.808,18.408 Z M363.408,19.224 C364.698667,19.224 365.701333,18.9093333 366.416,18.28 C367.098667,17.6613333 367.44,16.8613333 367.44,15.88 C367.44,15.1333333 367.216,14.488 366.768,13.944 C366.32,13.4 365.786667,13.064 365.168,12.936 L365.168,12.936 L365.168,12.872 C365.776,12.68 366.245333,12.3546667 366.576,11.896 C366.885333,11.4373333 367.04,10.9093333 367.04,10.312 C367.04,9.49066667 366.741333,8.808 366.144,8.264 C365.493333,7.656 364.581333,7.352 363.408,7.352 C362.224,7.352 361.312,7.656 360.672,8.264 C360.074667,8.79733333 359.776,9.48 359.776,10.312 C359.776,10.9306667 359.930667,11.4586667 360.24,11.896 C360.570667,12.3546667 361.045333,12.68 361.664,12.872 L361.664,12.872 L361.664,12.936 C361.013333,13.064 360.474667,13.4 360.048,13.944 C359.6,14.488 359.376,15.1333333 359.376,15.88 C359.376,16.872 359.717333,17.672 360.4,18.28 C361.114667,18.9093333 362.117333,19.224 363.408,19.224 Z M363.408,12.536 C362.469333,12.536 361.765333,12.312 361.296,11.864 C360.912,11.48 360.72,10.9733333 360.72,10.344 C360.72,9.736 360.928,9.24 361.344,8.856 C361.824,8.408 362.512,8.184 363.408,8.184 C364.293333,8.184 364.981333,8.408 365.472,8.856 C365.888,9.24 366.096,9.736 366.096,10.344 C366.096,10.9733333 365.904,11.48 365.52,11.864 C365.04,12.312 364.336,12.536 363.408,12.536 Z M363.408,18.408 C362.405333,18.408 361.632,18.1626667 361.088,17.672 C360.586667,17.2346667 360.336,16.6373333 360.336,15.88 C360.336,15.1333333 360.592,14.536 361.104,14.088 C361.637333,13.5866667 362.405333,13.336 363.408,13.336 C364.410667,13.336 365.178667,13.5866667 365.712,14.088 C366.224,14.536 366.48,15.1333333 366.48,15.88 C366.48,16.616 366.234667,17.2133333 365.744,17.672 C365.189333,18.1626667 364.410667,18.408 363.408,18.408 Z M372.384,19 L376.704,8.392 L376.704,7.576 L369.328,7.576 L369.328,8.488 L375.68,8.488 L371.312,19 L372.384,19 Z" id="025-69973885025-69973886025-69973887" fill="#FFFFFF" fill-rule="nonzero"></path>
                    </g>
                </g>
            </g>
        </g>
    </g>
</svg>