<?xml version="1.0" encoding="UTF-8"?>
<svg width="180px" height="20px" viewBox="0 0 180 20" version="1.1" xmlns="http://www.w3.org/2000/svg" xmlns:xlink="http://www.w3.org/1999/xlink">
    <!-- Generator: Sketch 61 (89581) - https://sketch.com -->
    <title>footer-email</title>
    <desc>Created with Sketch.</desc>
    <g id="设计稿" stroke="none" stroke-width="1" fill="none" fill-rule="evenodd">
        <g id="首页" transform="translate(-1003.000000, -5070.000000)">
            <g id="footer" transform="translate(0.000000, 4908.000000)">
                <g id="增值服务备份" transform="translate(979.000000, 162.000000)">
                    <g id="footer-email" transform="translate(24.000000, 0.000000)">
                        <path d="M11.242,16.33 C12.054,16.33 12.474,15.868 12.474,14.944 L12.474,7.384 L9.366,7.384 C9.646,6.88 9.926,6.32 10.178,5.69 L13.202,5.69 L13.202,4.71 L7.574,4.71 C7.42,4.234 7.252,3.814 7.084,3.422 L5.978,3.604 C6.16,3.94 6.328,4.304 6.496,4.71 L0.798,4.71 L0.798,5.69 L3.71,5.69 C3.99,6.222 4.242,6.782 4.452,7.384 L1.498,7.384 L1.498,16.302 L2.464,16.302 L2.464,8.28 L11.508,8.28 L11.508,14.72 C11.508,15.196 11.312,15.448 10.92,15.448 L9.562,15.406 L9.814,16.33 L11.242,16.33 Z M8.274,7.384 L5.502,7.384 C5.292,6.768 5.068,6.194 4.83,5.69 L9.072,5.69 C8.834,6.264 8.568,6.824 8.274,7.384 Z M10.5,11.668 L11.256,10.926 C10.472,10.128 9.506,9.33 8.358,8.518 L7.672,9.162 C8.876,10.044 9.814,10.884 10.5,11.668 Z M3.29,11.682 C4.466,10.968 5.46,10.128 6.258,9.162 L5.544,8.532 C4.76,9.428 3.794,10.198 2.646,10.842 L3.29,11.682 Z M9.59,14.692 L9.59,11.248 L4.396,11.248 L4.396,14.692 L9.59,14.692 Z M8.624,13.796 L5.362,13.796 L5.362,12.158 L8.624,12.158 L8.624,13.796 Z M15.064,10.45 C17.332,10.1 19.334,9.526 21.042,8.742 C22.778,9.61 24.752,10.17 26.964,10.422 L27.426,9.484 C25.48,9.288 23.716,8.854 22.134,8.182 C23.422,7.454 24.514,6.572 25.41,5.536 L25.41,4.724 L19.306,4.724 C19.502,4.388 19.684,4.038 19.838,3.66 L18.816,3.52 C18.228,4.92 17.08,6.096 15.4,7.062 L16.016,7.874 C16.66,7.482 17.234,7.048 17.766,6.572 C18.438,7.16 19.166,7.692 19.95,8.154 C18.41,8.77 16.632,9.218 14.602,9.498 L15.064,10.45 Z M21.028,7.664 C20.09,7.174 19.222,6.586 18.438,5.9 L18.62,5.676 L23.968,5.676 C23.142,6.432 22.162,7.104 21.028,7.664 Z M15.414,16.428 C17.99,15.616 19.628,14.566 20.342,13.306 C20.524,12.97 20.678,12.62 20.79,12.256 L24.934,12.256 C24.892,13.656 24.766,14.524 24.556,14.86 C24.332,15.196 23.814,15.378 22.974,15.392 L21.322,15.322 L21.574,16.232 C22.218,16.26 22.764,16.288 23.212,16.288 C24.206,16.288 24.906,16.05 25.312,15.588 C25.718,15.126 25.928,13.712 25.956,11.346 L21.028,11.346 C21.112,10.842 21.168,10.31 21.168,9.75 L20.174,9.75 C20.174,10.31 20.118,10.842 20.006,11.346 L15.554,11.346 L15.554,12.256 L19.726,12.256 C19.614,12.536 19.46,12.802 19.292,13.054 C18.564,14.076 17.038,14.93 14.742,15.602 L15.414,16.428 Z M30.058,15.784 L30.058,14.902 L34.314,14.902 L34.314,15.784 L35.266,15.784 L35.266,5.536 L32.676,5.536 L32.676,3.506 L31.696,3.506 L31.696,5.536 L29.106,5.536 L29.106,15.784 L30.058,15.784 Z M37.408,16.414 L37.408,5.228 L39.886,5.228 C39.452,6.726 39.004,8.028 38.556,9.134 C39.564,10.562 40.082,11.71 40.096,12.578 C40.082,12.97 40.012,13.222 39.886,13.362 C39.746,13.502 39.438,13.572 38.962,13.6 C38.71,13.6 38.402,13.572 38.038,13.53 L38.332,14.552 C39.424,14.552 40.152,14.398 40.516,14.104 C40.852,13.81 41.034,13.306 41.034,12.578 C41.02,11.682 40.53,10.534 39.564,9.134 C40.054,7.888 40.502,6.53 40.922,5.06 L40.922,4.318 L36.442,4.318 L36.442,16.414 L37.408,16.414 Z M31.696,9.666 L30.058,9.666 L30.058,6.46 L31.696,6.46 L31.696,9.666 Z M34.314,9.666 L32.676,9.666 L32.676,6.46 L34.314,6.46 L34.314,9.666 Z M31.696,13.992 L30.058,13.992 L30.058,10.562 L31.696,10.562 L31.696,13.992 Z M34.314,13.992 L32.676,13.992 L32.676,10.562 L34.314,10.562 L34.314,13.992 Z M52.724,7.244 L53.606,6.922 C53.368,6.488 53.06,6.026 52.668,5.522 L55.314,5.522 L55.314,4.626 L51.142,4.626 C51.268,4.29 51.38,3.954 51.492,3.604 L50.526,3.394 C50.19,4.598 49.63,5.69 48.874,6.698 L49.742,7.244 C50.12,6.712 50.456,6.138 50.764,5.522 L51.618,5.522 C52.038,6.082 52.402,6.656 52.724,7.244 Z M46.676,7.314 L47.614,6.964 C47.376,6.516 47.068,6.04 46.676,5.522 L48.93,5.522 L48.93,4.626 L45.234,4.626 C45.374,4.318 45.5,4.01 45.612,3.674 L44.646,3.464 C44.254,4.598 43.61,5.62 42.742,6.544 L43.624,7.104 C44.058,6.628 44.436,6.096 44.772,5.522 L45.598,5.522 C46.018,6.11 46.368,6.698 46.676,7.314 Z M46.27,16.414 L46.27,11.29 C46.69,11.822 47.208,12.522 47.796,13.39 L48.356,12.55 C47.656,11.752 46.956,11.024 46.27,10.366 L46.27,9.904 L48.174,9.904 L48.174,8.924 L46.27,8.924 L46.27,7.44 L45.248,7.44 L45.248,8.924 L42.994,8.924 L42.994,9.904 L45.122,9.904 C44.576,11.276 43.694,12.494 42.476,13.572 L42.91,14.692 C43.89,13.656 44.674,12.494 45.248,11.206 L45.248,16.414 L46.27,16.414 Z M49.91,16.414 L49.91,15.784 L53.466,15.784 L53.466,16.414 L54.432,16.414 L54.432,7.916 L48.944,7.916 L48.944,16.414 L49.91,16.414 Z M53.466,10.212 L49.91,10.212 L49.91,8.812 L53.466,8.812 L53.466,10.212 Z M53.466,12.466 L49.91,12.466 L49.91,11.08 L53.466,11.08 L53.466,12.466 Z M53.466,14.888 L49.91,14.888 L49.91,13.334 L53.466,13.334 L53.466,14.888 Z M69.65,15.196 C70.7,15.196 71.526,14.804 72.128,14.048 C72.66,13.348 72.94,12.452 72.94,11.36 C72.94,10.296 72.66,9.428 72.128,8.728 C71.54,7.944 70.728,7.566 69.706,7.566 C68.67,7.566 67.872,8.07 67.312,9.092 L67.312,4.808 L66.192,4.808 L66.192,15 L67.242,15 L67.242,13.81 C67.732,14.734 68.53,15.196 69.65,15.196 Z M69.51,14.272 C68.782,14.272 68.208,13.992 67.816,13.432 C67.452,12.928 67.27,12.27 67.27,11.458 L67.27,11.318 C67.27,10.478 67.466,9.792 67.886,9.274 C68.278,8.742 68.81,8.49 69.468,8.49 C70.252,8.49 70.84,8.77 71.246,9.33 C71.61,9.82 71.792,10.492 71.792,11.36 C71.792,12.228 71.61,12.914 71.274,13.418 C70.882,13.978 70.294,14.272 69.51,14.272 Z M77.028,15.196 C78.008,15.196 78.792,14.748 79.38,13.88 L79.38,15 L80.5,15 L80.5,7.762 L79.38,7.762 L79.38,12.172 C79.296,12.788 79.058,13.292 78.666,13.684 C78.288,14.048 77.854,14.244 77.378,14.244 C76.72,14.244 76.244,14.062 75.95,13.726 C75.656,13.39 75.516,12.872 75.516,12.186 L75.516,7.762 L74.396,7.762 L74.396,12.242 C74.396,14.202 75.264,15.196 77.028,15.196 Z M84.924,15.196 C86.968,15.196 87.99,14.44 87.99,12.956 C87.99,12.326 87.696,11.836 87.122,11.472 C86.744,11.234 86.128,11.01 85.26,10.8 C84.532,10.604 84.028,10.45 83.762,10.324 C83.342,10.114 83.146,9.848 83.146,9.54 C83.146,9.218 83.3,8.966 83.608,8.784 C83.888,8.588 84.28,8.504 84.784,8.504 C85.358,8.504 85.806,8.616 86.114,8.84 C86.394,9.036 86.576,9.372 86.674,9.82 L87.766,9.82 C87.57,8.308 86.59,7.566 84.798,7.566 C83.986,7.566 83.314,7.748 82.81,8.112 C82.264,8.476 81.998,8.952 81.998,9.568 C81.998,10.184 82.264,10.646 82.824,10.982 C83.16,11.206 83.762,11.416 84.616,11.626 C85.4,11.822 85.918,11.976 86.156,12.088 C86.604,12.312 86.842,12.62 86.842,13.026 C86.842,13.838 86.184,14.258 84.896,14.258 C84.28,14.258 83.818,14.146 83.51,13.922 C83.202,13.67 82.992,13.264 82.908,12.69 L81.816,12.69 C81.984,14.356 83.02,15.196 84.924,15.196 Z M90.23,6.698 C90.468,6.698 90.664,6.614 90.832,6.46 C91,6.292 91.084,6.096 91.084,5.858 C91.084,5.606 91,5.41 90.832,5.27 C90.664,5.102 90.468,5.032 90.23,5.032 C89.992,5.032 89.796,5.102 89.628,5.27 C89.46,5.41 89.39,5.606 89.39,5.858 C89.39,6.096 89.46,6.292 89.628,6.46 C89.796,6.614 89.992,6.698 90.23,6.698 Z M90.79,15 L90.79,7.762 L89.67,7.762 L89.67,15 L90.79,15 Z M94.01,15 L94.01,10.632 C94.052,9.974 94.262,9.456 94.654,9.064 C95.018,8.7 95.452,8.518 95.956,8.518 C97.216,8.518 97.86,9.218 97.86,10.632 L97.86,15 L98.98,15 L98.98,10.548 C98.98,8.56 98.07,7.566 96.278,7.566 C95.802,7.566 95.368,7.678 94.976,7.902 C94.584,8.112 94.262,8.42 94.01,8.826 L94.01,7.762 L92.89,7.762 L92.89,15 L94.01,15 Z M103.74,15.196 C104.678,15.196 105.448,14.916 106.05,14.384 C106.54,13.936 106.862,13.376 107.03,12.676 L105.91,12.676 C105.728,13.18 105.49,13.558 105.182,13.81 C104.818,14.104 104.328,14.258 103.74,14.258 C103.054,14.258 102.508,14.034 102.116,13.586 C101.724,13.138 101.514,12.508 101.458,11.696 L107.17,11.696 C107.142,10.436 106.862,9.442 106.33,8.742 C105.742,7.958 104.86,7.566 103.698,7.566 C102.648,7.566 101.822,7.944 101.206,8.7 C100.59,9.414 100.296,10.31 100.296,11.374 C100.296,12.55 100.604,13.474 101.248,14.174 C101.864,14.846 102.704,15.196 103.74,15.196 Z M106.008,10.828 L101.486,10.828 C101.556,10.114 101.78,9.554 102.172,9.134 C102.564,8.714 103.082,8.504 103.726,8.504 C105.098,8.504 105.868,9.274 106.008,10.828 Z M111.174,15.196 C113.218,15.196 114.24,14.44 114.24,12.956 C114.24,12.326 113.946,11.836 113.372,11.472 C112.994,11.234 112.378,11.01 111.51,10.8 C110.782,10.604 110.278,10.45 110.012,10.324 C109.592,10.114 109.396,9.848 109.396,9.54 C109.396,9.218 109.55,8.966 109.858,8.784 C110.138,8.588 110.53,8.504 111.034,8.504 C111.608,8.504 112.056,8.616 112.364,8.84 C112.644,9.036 112.826,9.372 112.924,9.82 L114.016,9.82 C113.82,8.308 112.84,7.566 111.048,7.566 C110.236,7.566 109.564,7.748 109.06,8.112 C108.514,8.476 108.248,8.952 108.248,9.568 C108.248,10.184 108.514,10.646 109.074,10.982 C109.41,11.206 110.012,11.416 110.866,11.626 C111.65,11.822 112.168,11.976 112.406,12.088 C112.854,12.312 113.092,12.62 113.092,13.026 C113.092,13.838 112.434,14.258 111.146,14.258 C110.53,14.258 110.068,14.146 109.76,13.922 C109.452,13.67 109.242,13.264 109.158,12.69 L108.066,12.69 C108.234,14.356 109.27,15.196 111.174,15.196 Z M118.244,15.196 C120.288,15.196 121.31,14.44 121.31,12.956 C121.31,12.326 121.016,11.836 120.442,11.472 C120.064,11.234 119.448,11.01 118.58,10.8 C117.852,10.604 117.348,10.45 117.082,10.324 C116.662,10.114 116.466,9.848 116.466,9.54 C116.466,9.218 116.62,8.966 116.928,8.784 C117.208,8.588 117.6,8.504 118.104,8.504 C118.678,8.504 119.126,8.616 119.434,8.84 C119.714,9.036 119.896,9.372 119.994,9.82 L121.086,9.82 C120.89,8.308 119.91,7.566 118.118,7.566 C117.306,7.566 116.634,7.748 116.13,8.112 C115.584,8.476 115.318,8.952 115.318,9.568 C115.318,10.184 115.584,10.646 116.144,10.982 C116.48,11.206 117.082,11.416 117.936,11.626 C118.72,11.822 119.238,11.976 119.476,12.088 C119.924,12.312 120.162,12.62 120.162,13.026 C120.162,13.838 119.504,14.258 118.216,14.258 C117.6,14.258 117.138,14.146 116.83,13.922 C116.522,13.67 116.312,13.264 116.228,12.69 L115.136,12.69 C115.304,14.356 116.34,15.196 118.244,15.196 Z M127.932,15.196 C129.038,15.196 130.032,14.972 130.928,14.538 C131.852,14.09 132.552,13.446 133.042,12.606 L132.062,12.606 C131.67,13.166 131.152,13.6 130.508,13.922 C129.78,14.272 128.912,14.454 127.932,14.454 C126.56,14.454 125.482,14.076 124.698,13.348 C123.858,12.578 123.452,11.486 123.452,10.072 C123.452,8.784 123.858,7.706 124.684,6.866 C125.524,6.012 126.588,5.592 127.876,5.592 C129.08,5.592 130.06,5.942 130.788,6.656 C131.46,7.314 131.796,8.14 131.796,9.134 C131.796,10.002 131.544,10.758 131.04,11.402 C130.606,11.948 130.172,12.228 129.738,12.228 C129.472,12.228 129.346,12.102 129.346,11.878 C129.346,11.71 129.402,11.43 129.514,11.024 L130.508,7.37 L129.598,7.37 L129.388,8.154 C129.164,7.454 128.716,7.104 128.044,7.104 C127.204,7.104 126.49,7.468 125.874,8.224 C125.23,8.98 124.922,9.89 124.922,10.926 C124.922,11.528 125.104,12.032 125.468,12.424 C125.832,12.816 126.308,13.026 126.896,13.026 C127.596,13.026 128.184,12.704 128.66,12.074 C128.716,12.69 129.038,12.998 129.626,12.998 C130.354,12.998 131.026,12.606 131.642,11.836 C132.258,11.024 132.58,10.128 132.58,9.12 C132.58,7.916 132.188,6.922 131.404,6.124 C130.55,5.242 129.388,4.808 127.932,4.808 C126.322,4.808 125.006,5.326 123.97,6.376 C122.976,7.356 122.486,8.574 122.486,10.044 C122.486,11.612 122.976,12.858 123.97,13.81 C124.936,14.734 126.252,15.196 127.932,15.196 Z M126.966,12.2 C126.616,12.2 126.35,12.088 126.168,11.864 C125.986,11.64 125.902,11.346 125.902,10.968 C125.902,10.142 126.14,9.442 126.616,8.854 C127.064,8.266 127.596,7.986 128.198,7.986 C128.478,7.986 128.702,8.098 128.884,8.322 C129.038,8.504 129.122,8.728 129.122,8.98 C129.122,9.064 129.066,9.288 128.982,9.652 L128.674,10.8 C128.562,11.164 128.338,11.5 128.002,11.78 C127.666,12.06 127.316,12.2 126.966,12.2 Z M137.648,15.196 C138.74,15.196 139.552,14.734 140.056,13.81 L140.056,15 L141.106,15 L141.106,4.808 L139.986,4.808 L139.986,9.092 C139.426,8.07 138.628,7.566 137.592,7.566 C136.556,7.566 135.758,7.944 135.17,8.728 C134.624,9.428 134.358,10.296 134.358,11.36 C134.358,12.452 134.624,13.348 135.17,14.048 C135.758,14.804 136.584,15.196 137.648,15.196 Z M137.788,14.272 C137.004,14.272 136.416,13.978 136.024,13.418 C135.674,12.914 135.506,12.228 135.506,11.36 C135.506,10.492 135.674,9.82 136.038,9.33 C136.43,8.77 137.032,8.49 137.83,8.49 C138.474,8.49 139.006,8.742 139.412,9.274 C139.804,9.792 140.014,10.478 140.014,11.318 L140.014,11.458 C140.014,12.27 139.832,12.928 139.482,13.432 C139.076,13.992 138.516,14.272 137.788,14.272 Z M145.558,15 L147.266,9.176 L148.946,15 L150.01,15 L152.474,7.762 L151.242,7.762 L149.464,13.628 L147.784,7.762 L146.734,7.762 L145.054,13.628 L143.276,7.762 L142.044,7.762 L144.508,15 L145.558,15 Z M154.336,6.698 C154.574,6.698 154.77,6.614 154.938,6.46 C155.106,6.292 155.19,6.096 155.19,5.858 C155.19,5.606 155.106,5.41 154.938,5.27 C154.77,5.102 154.574,5.032 154.336,5.032 C154.098,5.032 153.902,5.102 153.734,5.27 C153.566,5.41 153.496,5.606 153.496,5.858 C153.496,6.096 153.566,6.292 153.734,6.46 C153.902,6.614 154.098,6.698 154.336,6.698 Z M154.896,15 L154.896,7.762 L153.776,7.762 L153.776,15 L154.896,15 Z M157.976,15.056 C158.2,15.056 158.41,14.972 158.578,14.804 C158.746,14.636 158.83,14.44 158.83,14.202 C158.83,13.95 158.746,13.754 158.578,13.586 C158.41,13.418 158.2,13.334 157.976,13.334 C157.724,13.334 157.528,13.418 157.374,13.586 C157.206,13.754 157.122,13.95 157.122,14.202 C157.122,14.44 157.206,14.636 157.374,14.804 C157.528,14.972 157.724,15.056 157.976,15.056 Z M161.812,15 L161.812,10.632 C161.854,9.974 162.064,9.456 162.456,9.064 C162.82,8.7 163.254,8.518 163.758,8.518 C165.018,8.518 165.662,9.218 165.662,10.632 L165.662,15 L166.782,15 L166.782,10.548 C166.782,8.56 165.872,7.566 164.08,7.566 C163.604,7.566 163.17,7.678 162.778,7.902 C162.386,8.112 162.064,8.42 161.812,8.826 L161.812,7.762 L160.692,7.762 L160.692,15 L161.812,15 Z M171.752,17.968 C173.95,17.968 175.056,16.806 175.056,14.496 L175.056,7.762 L173.936,7.762 L173.936,9.008 C173.404,8.042 172.592,7.566 171.5,7.566 C170.492,7.566 169.694,7.916 169.106,8.63 C168.518,9.302 168.238,10.156 168.238,11.22 C168.238,12.27 168.518,13.124 169.106,13.796 C169.694,14.482 170.492,14.832 171.5,14.832 C172.592,14.832 173.404,14.342 173.936,13.376 L173.936,14.65 C173.936,16.246 173.208,17.058 171.752,17.058 C171.094,17.058 170.604,16.932 170.282,16.694 C169.96,16.47 169.75,16.106 169.666,15.616 L168.546,15.616 C168.672,16.4 168.994,16.988 169.512,17.38 C170.016,17.772 170.772,17.968 171.752,17.968 Z M171.654,13.894 C170.87,13.894 170.296,13.614 169.904,13.082 C169.554,12.606 169.386,11.976 169.386,11.22 C169.386,10.408 169.582,9.75 169.974,9.274 C170.38,8.742 170.94,8.49 171.668,8.49 C172.382,8.49 172.942,8.742 173.362,9.274 C173.754,9.75 173.95,10.408 173.95,11.22 C173.95,12.004 173.754,12.648 173.362,13.138 C172.942,13.642 172.382,13.894 171.654,13.894 Z" id="商务邮箱business@dwi.ng" fill-opacity="0.4" fill="#FFFFFF" fill-rule="nonzero"></path>
                        <rect x="0" y="0" width="180" height="20"></rect>
                    </g>
                </g>
            </g>
        </g>
    </g>
</svg>